<svg width="104" height="26" viewBox="0 0 104 26" fill="none" xmlns="http://www.w3.org/2000/svg">
<g clip-path="url(#clip0_6603_37635)">
<path d="M54.8957 0.928551C54.9096 0.904798 54.9258 0.904798 54.9451 0.928551L54.9161 0.952305L54.8957 0.928551Z" fill="#0124DD"/>
<path d="M29.7991 9.368C30.1148 8.40811 30.4142 7.50093 30.7069 6.60144C30.743 6.49162 30.8162 6.46636 30.9112 6.44878C32.4919 6.15225 34.0791 5.89964 35.6937 5.97982C36.833 6.03363 37.9287 6.26757 38.9097 6.8826C40.2402 7.71509 40.8487 8.96933 40.935 10.5069C40.9852 11.391 40.8421 12.2642 40.7165 13.1296C40.4554 14.8934 40.1867 16.6551 39.9343 18.4189C39.9274 18.4929 39.9009 18.5636 39.8575 18.6237C39.814 18.6838 39.7553 18.731 39.6875 18.7605C38.6584 19.3283 37.542 19.6391 36.395 19.828C34.9755 20.0753 33.5277 20.1123 32.0975 19.9378C30.9057 19.7873 29.7948 19.415 28.9296 18.5342C28.5541 18.1477 28.2627 17.6869 28.0737 17.1812C27.8847 16.6754 27.8024 16.1357 27.8319 15.5962C27.8613 15.0568 28.002 14.5294 28.245 14.0475C28.4879 13.5655 28.8278 13.1397 29.2431 12.7968C30.1301 12.0632 31.1788 11.6985 32.2832 11.4624C33.9557 11.1066 35.6434 11.1549 37.3323 11.2845C37.5431 11.2999 37.589 11.2351 37.5988 11.0462C37.6742 9.72164 36.8833 8.77054 35.4949 8.51464C34.5314 8.33672 33.5854 8.49048 32.6394 8.64643C31.6741 8.80611 30.724 9.04749 29.7991 9.368ZM35.7068 13.3635C35.1056 13.3596 34.505 13.404 33.9109 13.4964C33.2686 13.6062 32.6448 13.7765 32.127 14.2048C31.5415 14.6891 31.3853 15.3393 31.5011 16.0554C31.6103 16.7089 32.0648 17.0669 32.6536 17.2778C32.9234 17.3732 33.2042 17.4341 33.4892 17.459C34.5423 17.5611 35.5648 17.3766 36.5807 17.124C36.6496 17.1149 36.7128 17.0807 36.7583 17.0278C36.8038 16.975 36.8284 16.9072 36.8276 16.8374C36.9663 15.7995 37.104 14.7605 37.2569 13.7249C37.2831 13.5458 37.2241 13.5118 37.0756 13.4832C36.623 13.4081 36.1654 13.3681 35.7068 13.3635Z" fill="#114185"/>
<path d="M78.5678 16.6012C78.3931 17.135 78.2401 17.6127 78.0785 18.0905C77.9495 18.4826 77.8119 18.8714 77.6896 19.2667C77.6778 19.3272 77.6486 19.3829 77.6054 19.4267C77.5622 19.4705 77.5071 19.5004 77.447 19.5128C75.7757 19.9608 74.0825 20.2036 72.3565 19.985C70.3902 19.7357 68.7647 18.8867 67.7685 17.0735C67.1556 15.951 66.9612 14.7287 67.0442 13.4689C67.2026 11.0725 68.1956 9.08572 70.0417 7.54704C71.1636 6.61131 72.4723 6.13026 73.9121 5.98748C74.9051 5.88974 75.8926 5.90841 76.8615 6.17968C78.8344 6.72882 80.1496 8.2719 80.402 10.3147C80.5473 11.4887 80.402 12.6419 80.213 13.7962C80.19 13.9401 80.1179 13.9445 80.0087 13.9445C79.4789 13.9445 78.948 13.9445 78.4182 13.9445C75.8693 13.9445 73.3204 13.9445 70.7715 13.9445C70.5661 13.9445 70.506 13.995 70.5027 14.207C70.4743 15.9335 71.4225 17.0735 73.1103 17.3645C74.3578 17.5842 75.5714 17.3942 76.7829 17.1284C77.3887 16.9922 77.985 16.8161 78.5678 16.6012ZM74.1109 11.7029H76.5578C77.305 11.7029 77.305 11.7029 77.3302 10.9517C77.3815 9.43058 76.4563 8.43884 74.952 8.35427C73.1529 8.25213 71.4564 9.56237 71.0194 11.5063C70.9834 11.6678 71.0194 11.7073 71.1833 11.7062C72.1566 11.6985 73.1277 11.7029 74.1109 11.7029Z" fill="#114185"/>
<path d="M84.8491 20.0289C83.245 20.0182 81.6529 19.7513 80.1322 19.2382C79.9803 19.1855 79.9399 19.1415 79.9945 18.9757C80.2443 18.215 80.4835 17.4506 80.7122 16.6825C80.769 16.4936 80.8357 16.509 80.9864 16.5815C82.447 17.2998 84.0967 17.5336 85.6979 17.2492C86.0735 17.1917 86.43 17.0448 86.7378 16.8209C86.8802 16.7216 86.9987 16.5916 87.0845 16.4402C87.1703 16.2889 87.2212 16.1201 87.2336 15.9464C87.246 15.7726 87.2194 15.5983 87.1559 15.4362C87.0924 15.2741 86.9936 15.1284 86.8667 15.0098C86.5891 14.7514 86.2774 14.5326 85.9404 14.3596C85.1047 13.8896 84.2548 13.4492 83.4607 12.9044C81.3272 11.436 81.5872 8.37953 83.6879 7.03854C84.6186 6.44437 85.6378 6.14674 86.7203 6.03361C88.525 5.84581 90.2695 6.15662 91.9889 6.6772C92.1462 6.72443 92.1867 6.76726 92.1266 6.9353C91.8677 7.65687 91.6175 8.38282 91.3827 9.11318C91.3204 9.30538 91.2461 9.2911 91.0986 9.22301C90.0231 8.71281 88.8456 8.45732 87.6565 8.47618C87.0797 8.49046 86.5172 8.58601 86.0289 8.92867C85.8213 9.06174 85.6629 9.25965 85.5781 9.49199C85.4932 9.72432 85.4866 9.97825 85.5591 10.2148C85.6532 10.48 85.8308 10.7071 86.0649 10.8616C86.5707 11.2438 87.1497 11.5019 87.7035 11.8073C88.3811 12.163 89.0279 12.5752 89.637 13.0395C91.4373 14.4761 91.2549 17.213 89.5278 18.6034C88.4136 19.4985 87.1092 19.8565 85.7219 19.9839C85.3734 20.0147 85.0271 20.0202 84.8491 20.0289Z" fill="#114185"/>
<path d="M96.6327 20.029C95.05 20.0136 93.4795 19.7494 91.978 19.2459C91.8043 19.1877 91.7595 19.1361 91.824 18.9516C92.0709 18.2069 92.3046 17.4579 92.5319 16.7067C92.5865 16.5244 92.6411 16.498 92.8181 16.5837C94.2725 17.2953 95.9125 17.5297 97.5066 17.2536C97.8482 17.1997 98.1755 17.0772 98.469 16.8934C99.1932 16.4288 99.2817 15.5755 98.67 14.978C98.4134 14.7462 98.1281 14.5487 97.8212 14.3904C96.9473 13.8918 96.0395 13.4459 95.217 12.8528C93.3195 11.4745 93.5554 8.9803 94.7155 7.72827C95.4977 6.88589 96.4852 6.4334 97.5809 6.19068C99.0348 5.8612 100.488 5.94027 101.94 6.21045C102.551 6.32028 103.15 6.48722 103.749 6.64976C103.947 6.70577 104.019 6.76508 103.935 6.99352C103.683 7.68214 103.454 8.37845 103.231 9.08025C103.168 9.27245 103.106 9.2999 102.918 9.21753C101.857 8.71659 100.698 8.46174 99.5253 8.4718C98.9791 8.48169 98.4515 8.56296 97.9752 8.85071C97.5241 9.12198 97.2958 9.51626 97.3635 10.0588C97.4061 10.4037 97.6126 10.6442 97.8725 10.8419C98.4187 11.2581 99.0469 11.5327 99.6411 11.8622C100.318 12.2389 100.987 12.631 101.578 13.1373C103.234 14.565 103.047 17.2119 101.386 18.5737C100.493 19.3063 99.4576 19.6863 98.3401 19.8829C97.7755 19.9751 97.2047 20.0239 96.6327 20.029Z" fill="#114185"/>
<path d="M53.3555 16.7957C53.2997 17.1251 53.1588 17.4206 53.055 17.7314C52.8573 18.3234 52.6465 18.9098 52.451 19.5029C52.4366 19.5622 52.4039 19.6154 52.3576 19.6549C52.3113 19.6943 52.2537 19.718 52.1931 19.7226C50.8823 19.9422 49.5572 20.0817 48.2256 19.9807C46.2385 19.8302 44.5344 19.102 43.3634 17.3997C42.5375 16.2004 42.2459 14.8374 42.319 13.402C42.4414 11.0077 43.4508 9.04841 45.3111 7.54817C46.3773 6.68932 47.6313 6.26758 48.9673 6.09186C50.6211 5.8562 52.3051 5.95741 53.9191 6.38949C54.2272 6.47406 54.5243 6.59267 54.8269 6.69151C54.9361 6.72666 54.9645 6.77388 54.9241 6.8936C54.6663 7.65141 54.4107 8.41142 54.1693 9.17472C54.1158 9.34276 54.0404 9.30871 53.9322 9.26587C53.1609 8.94789 52.3441 8.75547 51.5126 8.69587C49.7134 8.59373 48.1491 9.09125 47.0261 10.597C45.9742 12.0083 45.8114 14.352 46.9377 15.7688C47.6379 16.6474 48.562 17.1131 49.6588 17.2416C50.8419 17.3799 51.9856 17.1504 53.1151 16.8242C53.1872 16.8033 53.2604 16.7891 53.3336 16.7715L53.3555 16.7957Z" fill="#114185"/>
<path d="M65.8087 16.7803C65.5575 17.5073 65.2691 18.2267 65.0626 18.9692C64.913 19.5106 64.6606 19.7676 64.0729 19.8269C62.4344 19.9916 60.7958 20.1762 59.1572 19.7401C56.5802 19.0515 54.8969 16.9846 54.757 14.2982C54.6041 11.379 55.7162 9.04623 58.055 7.32083C59.0381 6.59707 60.1851 6.25441 61.3824 6.09735C63.0357 5.86247 64.7192 5.96331 66.3331 6.39389C66.6324 6.47626 66.9197 6.59927 67.2179 6.68603C67.3741 6.73216 67.3785 6.80354 67.3272 6.94083C67.077 7.67558 66.829 8.41033 66.5964 9.15056C66.5406 9.32739 66.474 9.3208 66.3309 9.26588C65.1861 8.82657 64.015 8.58824 62.7795 8.71674C60.6811 8.94299 59.084 10.3378 58.6809 12.3905C58.3903 13.8721 58.6569 15.2273 59.8312 16.2762C60.7674 17.1109 61.9067 17.3437 63.1204 17.2723C63.9766 17.2156 64.8226 17.0533 65.6394 16.7891C65.6886 16.7803 65.7323 16.7397 65.8087 16.7803Z" fill="#114185"/>
<path d="M24.193 13.7578L10.5851 0.0765991V2.17651L22.1044 13.7578L22.1087 13.7622L12.1308 23.7939L12.1188 23.7818L2.14748 13.7578L2.13874 13.749L7.03374 8.82766H4.90904L0.00967407 13.7534L0.0140437 13.7578L12.1144 25.9234L12.1188 25.919L24.2039 13.7688L24.193 13.7578Z" fill="#FE6309"/>
<path d="M10.5807 3.62183V5.72173L18.5781 13.7622L12.1352 20.2398L5.68682 13.7578L5.67808 13.749L10.5731 8.82765H8.44838L3.54901 13.7534L3.55338 13.7578L11.0679 21.3128L12.1188 22.3694L13.1872 21.2964L20.6733 13.7688L10.5807 3.62183Z" fill="#FE6309"/>
<path d="M17.146 13.7578L13.1555 9.74138L12.0937 8.67386L11.0494 9.72381L7.03812 13.7534L11.0516 17.7885L12.1024 18.845L13.1686 17.772L17.1569 13.7688L17.146 13.7578ZM12.121 16.7231L9.17155 13.7578L9.16282 13.749L12.1046 10.7913L15.0541 13.7567L12.121 16.7231Z" fill="#FE6309"/>
</g>
<defs>
<clipPath id="clip0_6603_37635">
<rect width="104" height="26" fill="white"/>
</clipPath>
</defs>
</svg>
