<svg width="149" height="44" viewBox="0 0 149 44" fill="none" xmlns="http://www.w3.org/2000/svg">
<rect width="148.762" height="44" rx="7.15" fill="black"/>
<path d="M31.238 21.8407C31.2654 19.6841 32.4042 17.6435 34.2108 16.514C33.0711 14.8586 31.1621 13.809 29.176 13.7459C27.0577 13.5197 25.004 15.035 23.9246 15.035C22.8242 15.035 21.1622 13.7683 19.3725 13.8058C17.0397 13.8824 14.8649 15.2312 13.73 17.3054C11.2902 21.6011 13.11 27.9143 15.4471 31.3867C16.6164 33.087 17.9829 34.9863 19.771 34.9189C21.5208 34.8451 22.1743 33.7842 24.2864 33.7842C26.3789 33.7842 26.992 34.9189 28.8164 34.8761C30.6939 34.8451 31.8769 33.1682 33.0052 31.4518C33.8453 30.2403 34.4917 28.9013 34.9206 27.4844C32.7141 26.5353 31.2406 24.2771 31.238 21.8407Z" fill="white"/>
<path d="M27.7921 11.4623C28.8158 10.2125 29.3202 8.60603 29.198 6.98413C27.634 7.15119 26.1893 7.91139 25.1517 9.11326C24.1371 10.2875 23.6091 11.8657 23.7089 13.4256C25.2735 13.442 26.8117 12.7024 27.7921 11.4623Z" fill="white"/>
<path d="M97.8761 15.5379V18.058H96.2965V19.7107H97.8761V25.3262C97.8761 27.2437 98.7435 28.0106 100.926 28.0106C101.309 28.0106 101.675 27.965 101.994 27.9102V26.2758C101.72 26.3032 101.547 26.3214 101.245 26.3214C100.268 26.3214 99.8392 25.8649 99.8392 24.824V19.7107H101.994V18.058H99.8392V15.5379H97.8761Z" fill="white"/>
<path d="M107.553 28.1476C110.457 28.1476 112.237 26.2027 112.237 22.9795C112.237 19.7746 110.448 17.8206 107.553 17.8206C104.65 17.8206 102.86 19.7746 102.86 22.9795C102.86 26.2027 104.641 28.1476 107.553 28.1476ZM107.553 26.4036C105.846 26.4036 104.887 25.1527 104.887 22.9795C104.887 20.8247 105.846 19.5646 107.553 19.5646C109.252 19.5646 110.22 20.8247 110.22 22.9795C110.22 25.1436 109.252 26.4036 107.553 26.4036Z" fill="white"/>
<path d="M113.761 27.9559H115.724V22.0847C115.724 20.6877 116.774 19.7472 118.262 19.7472C118.609 19.7472 119.194 19.8111 119.358 19.8659V17.9302C119.148 17.8754 118.774 17.848 118.482 17.848C117.185 17.848 116.08 18.5602 115.797 19.5372H115.651V18.0124H113.761V27.9559Z" fill="white"/>
<path d="M124.233 19.4916C125.684 19.4916 126.634 20.5051 126.68 22.0665H121.658C121.767 20.5142 122.781 19.4916 124.233 19.4916ZM126.67 25.2714C126.305 26.0475 125.493 26.4767 124.306 26.4767C122.735 26.4767 121.722 25.3718 121.658 23.6278V23.5183H128.679V22.8334C128.679 19.7107 127.008 17.8206 124.242 17.8206C121.438 17.8206 119.658 19.8385 119.658 23.0161C119.658 26.1936 121.402 28.1476 124.251 28.1476C126.524 28.1476 128.113 27.0519 128.561 25.2714H126.67Z" fill="white"/>
<path d="M85.0022 24.2839C85.1536 26.7256 87.1883 28.2871 90.2167 28.2871C93.4534 28.2871 95.4787 26.6498 95.4787 24.0378C95.4787 21.9842 94.3241 20.8485 91.5228 20.1955L90.018 19.8264C88.2388 19.41 87.5195 18.8516 87.5195 17.8768C87.5195 16.6465 88.6363 15.8421 90.3114 15.8421C91.9013 15.8421 92.9991 16.6276 93.1979 17.8863H95.261C95.138 15.5866 93.1127 13.9683 90.3398 13.9683C87.3587 13.9683 85.3713 15.5866 85.3713 18.0188C85.3713 20.0251 86.4974 21.2176 88.9675 21.7949L90.7278 22.2208C92.5354 22.6466 93.3304 23.2712 93.3304 24.3123C93.3304 25.5236 92.0811 26.4038 90.3776 26.4038C88.5511 26.4038 87.2829 25.5804 87.1031 24.2839H85.0022Z" fill="white"/>
<path d="M64.6661 17.848C63.3147 17.848 62.146 18.5237 61.5433 19.6559H61.3972V18.0124H59.5072V31.2612H61.4703V26.4493H61.6255C62.146 27.4993 63.2691 28.1202 64.6844 28.1202C67.1953 28.1202 68.7932 26.1388 68.7932 22.9795C68.7932 19.8203 67.1953 17.848 64.6661 17.848ZM64.1091 26.358C62.4656 26.358 61.4338 25.0614 61.4338 22.9887C61.4338 20.9068 62.4656 19.6103 64.1182 19.6103C65.7801 19.6103 66.7753 20.8794 66.7753 22.9795C66.7753 25.0888 65.7801 26.358 64.1091 26.358Z" fill="white"/>
<path d="M75.6626 17.848C74.3112 17.848 73.1425 18.5237 72.5398 19.6559H72.3937V18.0124H70.5036V31.2612H72.4668V26.4493H72.622C73.1425 27.4993 74.2655 28.1202 75.6808 28.1202C78.1918 28.1202 79.7897 26.1388 79.7897 22.9795C79.7897 19.8203 78.1918 17.848 75.6626 17.848ZM75.1056 26.358C73.462 26.358 72.4302 25.0614 72.4302 22.9887C72.4302 20.9068 73.462 19.6103 75.1147 19.6103C76.7765 19.6103 77.7718 20.8794 77.7718 22.9795C77.7718 25.0888 76.7765 26.358 75.1056 26.358Z" fill="white"/>
<path d="M55.985 27.9559H58.2374L53.3067 14.2995H51.0259L46.0952 27.9559H48.2719L49.5306 24.3312H54.7357L55.985 27.9559ZM52.0575 16.779H52.2183L54.1963 22.552H50.07L52.0575 16.779Z" fill="white"/>
</svg>
