<svg width="12" height="12" viewBox="0 0 12 12" fill="none" xmlns="http://www.w3.org/2000/svg">
<path d="M0.375 10.125H11.625V11.25H0.375V10.125ZM1.5 5.625H2.625V9.5625H1.5V5.625ZM4.3125 5.625H5.4375V9.5625H4.3125V5.625ZM6.5625 5.625H7.6875V9.5625H6.5625V5.625ZM9.375 5.625H10.5V9.5625H9.375V5.625ZM0.375 2.8125L6 0L11.625 2.8125V5.0625H0.375V2.8125ZM6 3.375C6.31067 3.375 6.5625 3.12316 6.5625 2.8125C6.5625 2.50184 6.31067 2.25 6 2.25C5.68933 2.25 5.4375 2.50184 5.4375 2.8125C5.4375 3.12316 5.68933 3.375 6 3.375Z" fill="#9DA0AE"/>
</svg>
