<svg width="1440" height="609" viewBox="0 0 1440 609" fill="none" xmlns="http://www.w3.org/2000/svg">
<path d="M-1108.25 -351.61C-1108.25 -351.61 -938.25 660.89 221.75 978.39C1381.75 1295.89 1551.75 2308.39 1551.75 2308.39M-1090.75 -371.61C-1090.75 -371.61 -920.75 640.89 239.25 958.39C1399.25 1275.89 1569.25 2288.39 1569.25 2288.39M-1073.25 -391.61C-1073.25 -391.61 -903.25 620.89 256.75 938.39C1416.75 1255.89 1586.75 2268.39 1586.75 2268.39M-1055.75 -411.61C-1055.75 -411.61 -885.75 600.89 274.25 918.39C1434.25 1235.89 1604.25 2248.39 1604.25 2248.39M-1038.25 -431.61C-1038.25 -431.61 -868.25 580.89 291.75 898.39C1451.75 1215.89 1621.75 2228.39 1621.75 2228.39M-1020.75 -451.61C-1020.75 -451.61 -850.75 560.89 309.25 878.39C1469.25 1195.89 1639.25 2208.39 1639.25 2208.39M-1003.25 -471.61C-1003.25 -471.61 -833.25 540.89 326.75 858.39C1486.75 1175.89 1656.75 2188.39 1656.75 2188.39M-985.75 -491.61C-985.75 -491.61 -815.75 520.89 344.25 838.39C1504.25 1155.89 1674.25 2168.39 1674.25 2168.39M-968.25 -511.61C-968.25 -511.61 -798.25 500.89 361.75 818.39C1521.75 1135.89 1691.75 2148.39 1691.75 2148.39M-950.75 -531.61C-950.75 -531.61 -780.75 480.89 379.25 798.39C1539.25 1115.89 1709.25 2128.39 1709.25 2128.39M-933.25 -551.61C-933.25 -551.61 -763.25 460.89 396.75 778.39C1556.75 1095.89 1726.75 2108.39 1726.75 2108.39M-915.75 -571.61C-915.75 -571.61 -745.75 440.89 414.25 758.39C1574.25 1075.89 1744.25 2088.39 1744.25 2088.39M-898.25 -591.61C-898.25 -591.61 -728.25 420.89 431.75 738.39C1591.75 1055.89 1761.75 2068.39 1761.75 2068.39M-880.75 -611.61C-880.75 -611.61 -710.75 400.89 449.25 718.39C1609.25 1035.89 1779.25 2048.39 1779.25 2048.39M-863.25 -631.61C-863.25 -631.61 -693.25 380.89 466.75 698.39C1626.75 1015.89 1796.75 2028.39 1796.75 2028.39M-845.75 -651.61C-845.75 -651.61 -675.75 360.89 484.25 678.39C1644.25 995.89 1814.25 2008.39 1814.25 2008.39M-828.25 -671.61C-828.25 -671.61 -658.25 340.89 501.75 658.39C1661.75 975.89 1831.75 1988.39 1831.75 1988.39M-810.75 -691.61C-810.75 -691.61 -640.75 320.89 519.25 638.39C1679.25 955.89 1849.25 1968.39 1849.25 1968.39M-793.25 -711.61C-793.25 -711.61 -623.25 300.89 536.75 618.39C1696.75 935.89 1866.75 1948.39 1866.75 1948.39M-775.75 -731.61C-775.75 -731.61 -605.75 280.89 554.25 598.39C1714.25 915.89 1884.25 1928.39 1884.25 1928.39M-758.25 -751.61C-758.25 -751.61 -588.25 260.89 571.75 578.39C1731.75 895.89 1901.75 1908.39 1901.75 1908.39M-740.75 -771.61C-740.75 -771.61 -570.75 240.89 589.25 558.39C1749.25 875.89 1919.25 1888.39 1919.25 1888.39M-723.25 -791.61C-723.25 -791.61 -553.25 220.89 606.75 538.39C1766.75 855.89 1936.75 1868.39 1936.75 1868.39M-705.75 -811.61C-705.75 -811.61 -535.75 200.89 624.25 518.39C1784.25 835.89 1954.25 1848.39 1954.25 1848.39M-688.25 -831.61C-688.25 -831.61 -518.25 180.89 641.75 498.39C1801.75 815.89 1971.75 1828.39 1971.75 1828.39M-670.75 -851.61C-670.75 -851.61 -500.75 160.89 659.25 478.39C1819.25 795.89 1989.25 1808.39 1989.25 1808.39M-653.25 -871.61C-653.25 -871.61 -483.25 140.89 676.75 458.39C1836.75 775.89 2006.75 1788.39 2006.75 1788.39M-635.75 -891.61C-635.75 -891.61 -465.75 120.89 694.25 438.39C1854.25 755.89 2024.25 1768.39 2024.25 1768.39M-618.25 -911.61C-618.25 -911.61 -448.25 100.89 711.75 418.39C1871.75 735.89 2041.75 1748.39 2041.75 1748.39M-600.75 -931.61C-600.75 -931.61 -430.75 80.8901 729.25 398.39C1889.25 715.89 2059.25 1728.39 2059.25 1728.39M-583.25 -951.61C-583.25 -951.61 -413.25 60.8901 746.75 378.39C1906.75 695.89 2076.75 1708.39 2076.75 1708.39M-565.75 -971.61C-565.75 -971.61 -395.75 40.8901 764.25 358.39C1924.25 675.89 2094.25 1688.39 2094.25 1688.39M-548.25 -991.61C-548.25 -991.61 -378.25 20.8901 781.75 338.39C1941.75 655.89 2111.75 1668.39 2111.75 1668.39M-530.75 -1011.61C-530.75 -1011.61 -360.75 0.890137 799.25 318.39C1959.25 635.89 2129.25 1648.39 2129.25 1648.39M-513.25 -1031.61C-513.25 -1031.61 -343.25 -19.1099 816.75 298.39C1976.75 615.89 2146.75 1628.39 2146.75 1628.39M-495.75 -1051.61C-495.75 -1051.61 -325.75 -39.1099 834.25 278.39C1994.25 595.89 2164.25 1608.39 2164.25 1608.39M-478.25 -1071.61C-478.25 -1071.61 -308.25 -59.1099 851.75 258.39C2011.75 575.89 2181.75 1588.39 2181.75 1588.39M-460.75 -1091.61C-460.75 -1091.61 -290.75 -79.1099 869.25 238.39C2029.25 555.89 2199.25 1568.39 2199.25 1568.39M-443.25 -1111.61C-443.25 -1111.61 -273.25 -99.1099 886.75 218.39C2046.75 535.89 2216.75 1548.39 2216.75 1548.39M-425.75 -1131.61C-425.75 -1131.61 -255.75 -119.11 904.25 198.39C2064.25 515.89 2234.25 1528.39 2234.25 1528.39M-408.25 -1151.61C-408.25 -1151.61 -238.25 -139.11 921.75 178.39C2081.75 495.89 2251.75 1508.39 2251.75 1508.39M-390.75 -1171.61C-390.75 -1171.61 -220.75 -159.11 939.25 158.39C2099.25 475.89 2269.25 1488.39 2269.25 1488.39M-373.25 -1191.61C-373.25 -1191.61 -203.25 -179.11 956.75 138.39C2116.75 455.89 2286.75 1468.39 2286.75 1468.39M-355.75 -1211.61C-355.75 -1211.61 -185.75 -199.11 974.25 118.39C2134.25 435.89 2304.25 1448.39 2304.25 1448.39M-338.25 -1231.61C-338.25 -1231.61 -168.25 -219.11 991.75 98.3901C2151.75 415.89 2321.75 1428.39 2321.75 1428.39M-320.75 -1251.61C-320.75 -1251.61 -150.75 -239.11 1009.25 78.3901C2169.25 395.89 2339.25 1408.39 2339.25 1408.39M-303.25 -1271.61C-303.25 -1271.61 -133.25 -259.11 1026.75 58.3901C2186.75 375.89 2356.75 1388.39 2356.75 1388.39M-285.75 -1291.61C-285.75 -1291.61 -115.75 -279.11 1044.25 38.3901C2204.25 355.89 2374.25 1368.39 2374.25 1368.39M-268.25 -1311.61C-268.25 -1311.61 -98.25 -299.11 1061.75 18.3901C2221.75 335.89 2391.75 1348.39 2391.75 1348.39M-250.75 -1331.61C-250.75 -1331.61 -80.75 -319.11 1079.25 -1.60986C2239.25 315.89 2409.25 1328.39 2409.25 1328.39M-233.25 -1351.61C-233.25 -1351.61 -63.25 -339.11 1096.75 -21.6099C2256.75 295.89 2426.75 1308.39 2426.75 1308.39M-215.75 -1371.61C-215.75 -1371.61 -45.75 -359.11 1114.25 -41.6099C2274.25 275.89 2444.25 1288.39 2444.25 1288.39M-198.25 -1391.61C-198.25 -1391.61 -28.25 -379.11 1131.75 -61.6099C2291.75 255.89 2461.75 1268.39 2461.75 1268.39M-180.75 -1411.61C-180.75 -1411.61 -10.75 -399.11 1149.25 -81.6099C2309.25 235.89 2479.25 1248.39 2479.25 1248.39M-163.25 -1431.61C-163.25 -1431.61 6.75 -419.11 1166.75 -101.61C2326.75 215.89 2496.75 1228.39 2496.75 1228.39M-145.75 -1451.61C-145.75 -1451.61 24.25 -439.11 1184.25 -121.61C2344.25 195.89 2514.25 1208.39 2514.25 1208.39M-128.25 -1471.61C-128.25 -1471.61 41.75 -459.11 1201.75 -141.61C2361.75 175.89 2531.75 1188.39 2531.75 1188.39M-110.75 -1491.61C-110.75 -1491.61 59.25 -479.11 1219.25 -161.61C2379.25 155.89 2549.25 1168.39 2549.25 1168.39" stroke="white" stroke-opacity="0.05" stroke-width="0.5"/>
</svg>
