<svg width="120" height="31" viewBox="0 0 120 31" fill="none" xmlns="http://www.w3.org/2000/svg">
<path d="M39.4848 10.6846H37.4714V21.0442H39.4848V10.6846Z" fill="#2A3362"/>
<path d="M47.2773 17.3684C47.2773 18.7982 46.3574 19.4406 45.1326 19.4406C43.9078 19.4406 43.0892 18.7982 43.0892 17.4409V13.749H41.0758V17.9083C41.0758 19.9792 42.3743 21.1903 44.534 21.1903C45.8912 21.1903 46.6499 20.6904 47.1585 20.1255H47.276L47.451 21.0453H49.3032V13.749H47.2773V17.3684Z" fill="#2A3362"/>
<path d="M67.0278 19.6005C65.5543 19.6005 64.7232 18.9294 64.592 17.952H70.9822C71.0117 17.7488 71.0263 17.5437 71.0259 17.3384C71.0122 14.7138 69.0263 13.6028 66.9016 13.6028C64.4358 13.6028 62.5823 15.0775 62.5823 17.4559C62.5823 19.7168 64.3633 21.1903 67.0328 21.1903C69.2662 21.1903 70.7535 20.1992 71.0609 18.6807H69.0712C68.8225 19.2793 68.1077 19.6005 67.0278 19.6005ZM66.9029 15.1937C68.1876 15.1937 68.9313 15.7624 69.0487 16.5685H64.6357C64.8244 15.7961 65.5693 15.1937 66.8966 15.1937H66.9029Z" fill="#2A3362"/>
<path d="M74.4466 14.7963H74.3216L74.1317 13.7452H72.302V21.0453H74.3154V17.9083C74.3154 16.4923 75.1315 15.7049 76.65 15.7049C76.9259 15.7011 77.2014 15.7254 77.4724 15.7774V13.749H77.1912C75.8489 13.749 75.0153 14.0264 74.4466 14.7963Z" fill="#2A3362"/>
<path d="M87.3583 18.7682H87.242L85.5198 14.2014H83.4476L81.7554 18.7544H81.6242L80.0194 13.749H78.0198L80.4856 21.0453H82.6753L84.4262 16.3898H84.5425L86.2647 21.0453H88.4681L90.9339 13.749H88.9342L87.3583 18.7682Z" fill="#2A3362"/>
<path d="M98.9476 18.9206V16.4785C98.9476 14.4939 97.2691 13.604 95.182 13.604C92.9648 13.604 91.5788 14.6551 91.3888 16.2286H93.4022C93.5485 15.5424 94.1321 15.1637 95.182 15.1637C96.2318 15.1637 96.9317 15.5574 96.9317 16.3598V16.546L93.6485 16.796C92.1312 16.9135 91.0239 17.5846 91.0239 19.0144C91.0239 20.4879 92.2937 21.1878 94.1609 21.1878C95.6681 21.1878 96.5867 20.7678 97.1491 20.1342H97.2491C97.5653 20.8466 98.2065 21.0428 98.9039 21.0428H99.75V19.5568H99.56C99.1363 19.5568 98.9476 19.3531 98.9476 18.9206ZM96.9329 18.147C96.9329 19.3006 95.5581 19.6793 94.3796 19.6793C93.5772 19.6793 93.0523 19.4755 93.0523 18.9206C93.0523 18.4207 93.5047 18.177 94.1771 18.1183L96.9342 17.9146L96.9329 18.147Z" fill="#2A3362"/>
<path d="M106.391 13.749L104.042 19.0319H103.911L101.532 13.749H99.3575L102.757 21.0453H105.165L108.55 13.749H106.391Z" fill="#2A3362"/>
<path d="M114.986 18.6807C114.736 19.2793 114.023 19.6005 112.943 19.6005C111.469 19.6005 110.638 18.9294 110.507 17.952H116.897C116.927 17.7488 116.941 17.5437 116.941 17.3384C116.927 14.7138 114.941 13.6028 112.817 13.6028C110.351 13.6028 108.499 15.0775 108.499 17.4559C108.499 19.7168 110.278 21.1903 112.948 21.1903C115.181 21.1903 116.668 20.1992 116.976 18.6807H114.986ZM112.812 15.1937C114.096 15.1937 114.84 15.7624 114.957 16.5685H110.546C110.737 15.7961 111.479 15.1937 112.807 15.1937H112.812Z" fill="#2A3362"/>
<path d="M34.1995 13.2116C34.1995 12.5692 34.6519 12.293 35.2355 12.293C35.507 12.2955 35.7769 12.3346 36.0379 12.4092L36.3741 10.9495C35.8867 10.7771 35.3738 10.6884 34.8568 10.687C33.3683 10.687 32.1723 11.4756 32.1723 13.1091V13.749H30.4351V15.3475H32.1723V21.0453H34.1995V15.3463H36.4691V13.749H34.1995V13.2116Z" fill="#2A3362"/>
<path d="M53.7462 11.6919H51.8715L51.7666 13.749H50.1818V15.3475H51.7291V18.9444C51.7291 20.1692 52.354 21.1941 54.2287 21.1941C54.7147 21.1941 55.1992 21.1404 55.6734 21.0341V19.4981C55.4 19.5594 55.1212 19.5937 54.8411 19.6006C53.835 19.6006 53.7475 19.0319 53.7475 18.5932V15.3438H55.7472V13.749H53.7462V11.6919Z" fill="#2A3362"/>
<path d="M60.069 11.6919H58.2005L58.0955 13.749H56.5071V15.3475H58.0543V18.9444C58.0543 20.1692 58.6792 21.1941 60.5539 21.1941C61.0388 21.1926 61.522 21.1377 61.9949 21.0303V19.4981C61.7215 19.5594 61.4427 19.5937 61.1626 19.6006C60.1565 19.6006 60.069 19.0319 60.069 18.5932V15.3438H62.0749V13.749H60.069V11.6919Z" fill="#2A3362"/>
<path d="M2.4084 10.4083C2.4084 9.23727 2.75085 8.23743 3.46948 7.5188L4.71927 8.76859C3.32825 10.1546 4.54305 14.4639 8.50366 18.4283C12.4643 22.3926 16.7761 23.6062 18.1658 22.2177L19.4156 23.4674C17.071 25.8121 11.7306 24.1486 7.26011 19.6768C4.15937 16.5748 2.4084 13.0554 2.4084 10.4083Z" fill="#009A46"/>
<path d="M10.2896 24.5448C9.11849 24.5448 8.11866 24.2023 7.39877 23.4837L8.64857 22.2339C10.0371 23.6224 14.3464 22.4076 18.3107 18.4445C22.2751 14.4814 23.4874 10.1721 22.0989 8.78361L23.3487 7.53381C25.6945 9.87843 24.0298 15.2188 19.558 19.6893C16.456 22.7951 12.9366 24.5448 10.2896 24.5448Z" fill="#FF5805"/>
<path d="M19.9718 17.9008C19.2131 15.7162 17.6634 13.3816 15.6075 11.3269C11.137 6.85513 5.79658 5.1904 3.45196 7.53627C3.28574 7.70374 3.42946 8.11743 3.77441 8.46237C4.11935 8.80731 4.53303 8.94979 4.69926 8.78357C6.08903 7.39504 10.3983 8.60985 14.3614 12.5742C16.2361 14.4489 17.6334 16.5423 18.307 18.4795C18.8969 20.178 18.8394 21.5477 18.1521 22.2351C17.9846 22.4013 18.1296 22.8163 18.4733 23.16C18.817 23.5037 19.2319 23.6486 19.3994 23.4812C20.6004 22.2801 20.8041 20.2954 19.9718 17.9008Z" fill="#F5AFCB"/>
<path d="M23.3462 7.53634C22.1426 6.33278 20.1604 6.12907 17.7633 6.96268C15.5799 7.72006 13.2441 9.27106 11.1894 11.3257C6.71888 15.7962 5.05415 21.1366 7.39877 23.4825C7.56624 23.6487 7.97992 23.505 8.32487 23.1613C8.66981 22.8176 8.81354 22.4027 8.64607 22.2352C7.25379 20.8467 8.47234 16.5374 12.4367 12.573C14.3114 10.6983 16.4048 9.30105 18.342 8.62741C20.0405 8.03876 21.4102 8.095 22.0989 8.78238C22.2651 8.94861 22.68 8.80488 23.0237 8.45994C23.3674 8.11499 23.5124 7.70256 23.3462 7.53634Z" fill="#FF9B00"/>
</svg>
