<svg width="150" height="44" viewBox="0 0 150 44" fill="none" xmlns="http://www.w3.org/2000/svg">
<rect x="0.619019" width="148.5" height="44" rx="5.10714" fill="black"/>
<g filter="url(#filter0_ii_6613_46220)">
<path d="M12.0987 8.2916C11.7786 8.6304 11.5894 9.1562 11.5894 9.8371V34.1647C11.5894 34.8467 11.7786 35.3714 12.0987 35.7102L12.1801 35.7894L25.808 22.1615V22.0009V21.8403L12.1801 8.2113L12.0987 8.2916Z" fill="url(#paint0_linear_6613_46220)"/>
<path d="M30.3499 26.7055L25.808 22.1614V22.0008V21.8402L30.351 17.2972L30.4533 17.3555L35.8356 20.4135C37.3723 21.2869 37.3723 22.7158 35.8356 23.5903L30.4533 26.6483L30.3499 26.7055Z" fill="url(#paint1_linear_6613_46220)"/>
<g filter="url(#filter1_i_6613_46220)">
<path d="M30.4534 26.6473L25.807 22.0009L12.0988 35.7102C12.6048 36.247 13.4419 36.313 14.3846 35.7784L30.4534 26.6473Z" fill="url(#paint2_linear_6613_46220)"/>
</g>
<path d="M30.4534 17.3545L14.3846 8.22454C13.4419 7.68884 12.6048 7.75594 12.0988 8.29274L25.8081 22.002L30.4534 17.3545Z" fill="url(#paint3_linear_6613_46220)"/>
</g>
<path d="M75.5687 18.4443C72.9815 18.4443 70.8728 20.4122 70.8728 23.1226C70.8728 25.8165 72.9815 27.8009 75.5687 27.8009C78.157 27.8009 80.2657 25.8165 80.2657 23.1226C80.2646 20.4122 78.1559 18.4443 75.5687 18.4443ZM75.5687 25.9595C74.1508 25.9595 72.9287 24.7902 72.9287 23.1237C72.9287 21.4396 74.1519 20.2879 75.5687 20.2879C76.9866 20.2879 78.2087 21.4396 78.2087 23.1237C78.2087 24.7891 76.9866 25.9595 75.5687 25.9595ZM65.3233 18.4443C62.7361 18.4443 60.6274 20.4122 60.6274 23.1226C60.6274 25.8165 62.7361 27.8009 65.3233 27.8009C67.9116 27.8009 70.0203 25.8165 70.0203 23.1226C70.0203 20.4122 67.9116 18.4443 65.3233 18.4443ZM65.3233 25.9595C63.9054 25.9595 62.6833 24.7902 62.6833 23.1237C62.6833 21.4396 63.9065 20.2879 65.3233 20.2879C66.7412 20.2879 67.9633 21.4396 67.9633 23.1237C67.9644 24.7891 66.7412 25.9595 65.3233 25.9595ZM53.1375 19.8809V21.8653H57.8873C57.7454 22.9818 57.3736 23.7969 56.806 24.3634C56.1152 25.0542 55.0339 25.8165 53.1375 25.8165C50.2137 25.8165 47.9279 23.4592 47.9279 20.5354C47.9279 17.6116 50.2137 15.2543 53.1375 15.2543C54.7149 15.2543 55.8666 15.8747 56.7169 16.6722L58.1172 15.2719C56.9292 14.1378 55.3529 13.2699 53.1375 13.2699C49.1324 13.2699 45.7653 16.5303 45.7653 20.5354C45.7653 24.5405 49.1324 27.8009 53.1375 27.8009C55.299 27.8009 56.9303 27.0914 58.2052 25.7626C59.5164 24.4514 59.9245 22.6078 59.9245 21.1195C59.9245 20.6597 59.8893 20.234 59.8178 19.8798H53.1375V19.8809ZM102.976 21.422C102.587 20.377 101.399 18.4443 98.9712 18.4443C96.5611 18.4443 94.558 20.3407 94.558 23.1226C94.558 25.745 96.5435 27.8009 99.2011 27.8009C101.345 27.8009 102.586 26.4897 103.101 25.7274L101.506 24.6637C100.974 25.4436 100.247 25.9573 99.2011 25.9573C98.1561 25.9573 97.4114 25.4788 96.9329 24.5394L103.189 21.9522L102.976 21.422ZM96.5963 22.9818C96.5435 21.1734 97.9966 20.2527 99.0427 20.2527C99.8578 20.2527 100.549 20.6608 100.78 21.2449L96.5963 22.9818ZM91.511 27.5182H93.5658V13.7671H91.511V27.5182ZM88.1428 19.4904H88.0724C87.6115 18.9404 86.7249 18.4443 85.6095 18.4443C83.2698 18.4443 81.1259 20.5002 81.1259 23.1413C81.1259 25.7637 83.2698 27.802 85.6095 27.802C86.726 27.802 87.6115 27.3059 88.0724 26.7394H88.1428V27.4126C88.1428 29.2023 87.1858 30.1593 85.6447 30.1593C84.3863 30.1593 83.6064 29.2562 83.2874 28.4939L81.4977 29.2386C82.0114 30.4783 83.3754 32.0029 85.6447 32.0029C88.0548 32.0029 90.0931 30.585 90.0931 27.1288V18.7292H88.1439V19.4904H88.1428ZM85.7866 25.9595C84.3687 25.9595 83.1818 24.7715 83.1818 23.1413C83.1818 21.4924 84.3687 20.2879 85.7866 20.2879C87.1858 20.2879 88.2847 21.4924 88.2847 23.1413C88.2847 24.7715 87.1858 25.9595 85.7866 25.9595ZM112.606 13.7671H107.688V27.5182H109.739V22.3086H112.605C114.879 22.3086 117.117 20.6619 117.117 18.0384C117.117 15.4149 114.88 13.7671 112.606 13.7671ZM112.658 20.3946H109.739V15.6811H112.658C114.193 15.6811 115.064 16.9516 115.064 18.0384C115.064 19.1032 114.193 20.3946 112.658 20.3946ZM125.344 18.4201C123.858 18.4201 122.319 19.0746 121.682 20.5255L123.503 21.2856C123.893 20.5255 124.619 20.2769 125.379 20.2769C126.44 20.2769 127.519 20.9138 127.537 22.0457V22.1876C127.165 21.9753 126.369 21.6574 125.396 21.6574C123.433 21.6574 121.433 22.7365 121.433 24.7528C121.433 26.5931 123.044 27.7778 124.848 27.7778C126.227 27.7778 126.988 27.1585 127.466 26.4325H127.536V27.494H129.518V22.2217C129.519 19.7819 127.695 18.4201 125.344 18.4201ZM125.095 25.9562C124.424 25.9562 123.486 25.6196 123.486 24.788C123.486 23.7265 124.654 23.3195 125.663 23.3195C126.564 23.3195 126.989 23.5142 127.537 23.7793C127.378 25.0542 126.281 25.9562 125.095 25.9562ZM136.736 18.7204L134.383 24.6824H134.313L131.871 18.7204H129.66L133.322 27.0529L131.234 31.6883H133.375L139.019 18.7204H136.736ZM118.25 27.5182H120.301V13.7671H118.25V27.5182Z" fill="white"/>
<defs>
<filter id="filter0_ii_6613_46220" x="11.5894" y="7.85486" width="25.3988" height="28.2927" filterUnits="userSpaceOnUse" color-interpolation-filters="sRGB">
<feFlood flood-opacity="0" result="BackgroundImageFix"/>
<feBlend mode="normal" in="SourceGraphic" in2="BackgroundImageFix" result="shape"/>
<feColorMatrix in="SourceAlpha" type="matrix" values="0 0 0 0 0 0 0 0 0 0 0 0 0 0 0 0 0 0 127 0" result="hardAlpha"/>
<feOffset dy="-0.153214"/>
<feComposite in2="hardAlpha" operator="arithmetic" k2="-1" k3="1"/>
<feColorMatrix type="matrix" values="0 0 0 0 0 0 0 0 0 0 0 0 0 0 0 0 0 0 0.12 0"/>
<feBlend mode="normal" in2="shape" result="effect1_innerShadow_6613_46220"/>
<feColorMatrix in="SourceAlpha" type="matrix" values="0 0 0 0 0 0 0 0 0 0 0 0 0 0 0 0 0 0 127 0" result="hardAlpha"/>
<feOffset dy="0.153214"/>
<feComposite in2="hardAlpha" operator="arithmetic" k2="-1" k3="1"/>
<feColorMatrix type="matrix" values="0 0 0 0 1 0 0 0 0 1 0 0 0 0 1 0 0 0 0.25 0"/>
<feBlend mode="normal" in2="effect1_innerShadow_6613_46220" result="effect2_innerShadow_6613_46220"/>
</filter>
<filter id="filter1_i_6613_46220" x="12.0988" y="22.0009" width="18.3546" height="14.1467" filterUnits="userSpaceOnUse" color-interpolation-filters="sRGB">
<feFlood flood-opacity="0" result="BackgroundImageFix"/>
<feBlend mode="normal" in="SourceGraphic" in2="BackgroundImageFix" result="shape"/>
<feColorMatrix in="SourceAlpha" type="matrix" values="0 0 0 0 0 0 0 0 0 0 0 0 0 0 0 0 0 0 127 0" result="hardAlpha"/>
<feOffset dy="-0.153214"/>
<feComposite in2="hardAlpha" operator="arithmetic" k2="-1" k3="1"/>
<feColorMatrix type="matrix" values="0 0 0 0 0 0 0 0 0 0 0 0 0 0 0 0 0 0 0.08 0"/>
<feBlend mode="normal" in2="shape" result="effect1_innerShadow_6613_46220"/>
</filter>
<linearGradient id="paint0_linear_6613_46220" x1="24.5999" y1="9.5797" x2="6.13974" y2="28.0399" gradientUnits="userSpaceOnUse">
<stop stop-color="#00A0FF"/>
<stop offset="0.0066" stop-color="#00A1FF"/>
<stop offset="0.2601" stop-color="#00BEFF"/>
<stop offset="0.5122" stop-color="#00D2FF"/>
<stop offset="0.7604" stop-color="#00DFFF"/>
<stop offset="1" stop-color="#00E3FF"/>
</linearGradient>
<linearGradient id="paint1_linear_6613_46220" x1="37.8359" y1="22.0008" x2="11.2204" y2="22.0008" gradientUnits="userSpaceOnUse">
<stop stop-color="#FFE000"/>
<stop offset="0.4087" stop-color="#FFBD00"/>
<stop offset="0.7754" stop-color="#FFA500"/>
<stop offset="1" stop-color="#FF9C00"/>
</linearGradient>
<linearGradient id="paint2_linear_6613_46220" x1="27.9301" y1="24.5241" x2="2.89572" y2="49.5585" gradientUnits="userSpaceOnUse">
<stop stop-color="#FF3A44"/>
<stop offset="1" stop-color="#C31162"/>
</linearGradient>
<linearGradient id="paint3_linear_6613_46220" x1="8.64629" y1="0.194321" x2="19.8248" y2="11.3729" gradientUnits="userSpaceOnUse">
<stop stop-color="#32A071"/>
<stop offset="0.0685" stop-color="#2DA771"/>
<stop offset="0.4762" stop-color="#15CF74"/>
<stop offset="0.8009" stop-color="#06E775"/>
<stop offset="1" stop-color="#00F076"/>
</linearGradient>
</defs>
</svg>
