<svg width="35" height="34" viewBox="0 0 35 34" fill="none" xmlns="http://www.w3.org/2000/svg">
<g clip-path="url(#clip0_6603_37673)">
<path fill-rule="evenodd" clip-rule="evenodd" d="M0.952393 0H34.5476V34H0.952393V0Z" fill="#D94F00"/>
<path fill-rule="evenodd" clip-rule="evenodd" d="M20.0664 6.59302H28.6785V15.2225H20.0664V6.59302ZM9.65473 19.5876V20.4318H11.1391V24.8981H12.1625V20.3977H13.5445V19.5535L9.65473 19.5882V19.5876ZM8.89031 20.6342V19.79C8.06922 19.4188 7.12497 19.3066 6.15817 19.79C4.57266 20.4989 4.51599 24.0093 6.10208 24.6957C7.01279 25.1571 8.91228 24.9432 9.10368 24.5378V21.7589H7.21518V22.4903H8.04667V23.9533C5.31453 25.2809 4.80858 18.9013 8.89031 20.6342ZM15.2092 22.4452H16.187C16.9965 22.4793 17.2105 24.0093 16.1535 23.9978H15.2092V22.4452ZM15.2092 20.2965H16.187C16.9965 20.4428 16.7045 21.6467 16.1535 21.6802H15.2092V20.2965ZM14.1973 19.4754V24.853H16.8844C18.2559 24.358 18.3126 22.2319 16.8844 22.0064C18.1998 21.8606 18.2675 19.4413 15.9962 19.4413L14.1973 19.4754ZM18.9417 20.9829V21.7814C19.661 21.579 21.224 21.0164 21.0777 22.2093C19.7061 22.1191 18.7729 22.3666 18.6156 23.2212C18.3571 25.0669 20.3358 25.2468 21.1679 24.3355V24.7743H22.1121V21.5339C21.8762 20.4873 20.3138 20.3526 18.9417 20.9829ZM19.7397 23.0645C19.9536 22.7829 20.6394 22.7939 21.1002 22.9292V23.6381C20.3474 24.4476 19.1331 24.077 19.7402 23.0639L19.7397 23.0645ZM24.0689 21.9393C24.3164 21.6692 25.6318 21.1627 25.8342 21.9393V24.7969H26.8906V21.7704C26.6657 20.5099 25.4624 20.285 24.0012 21.1402V20.6677H23.0009V24.8194H24.0573L24.0689 21.9393ZM30.2074 20.6226L28.8248 22.4788L30.2866 24.7628L31.557 24.7292L29.9495 22.5354L31.3997 20.6562L30.208 20.6226H30.2074ZM27.6782 19.2609H28.7236V24.7628H27.6776V19.2615L27.6782 19.2609Z" fill="white"/>
<path fill-rule="evenodd" clip-rule="evenodd" d="M20.0664 6.59302H28.6786V15.2225H20.0664V6.59302Z" fill="white"/>
</g>
<defs>
<clipPath id="clip0_6603_37673">
<rect width="33.5952" height="34" fill="white" transform="translate(0.952393)"/>
</clipPath>
</defs>
</svg>
