<svg width="125" height="28" viewBox="0 0 125 28" fill="none" xmlns="http://www.w3.org/2000/svg">
<g clip-path="url(#clip0_6603_24871)">
<path d="M43.0717 14.3289H39.8328V21.0925H37.4046V2.55319H43.0717C46.9366 2.55319 49.4445 5.11172 49.4445 8.45553C49.4445 11.7993 46.9366 14.3325 43.0717 14.3325M43.0717 4.82583H39.8328V12.0852H43.0717C45.6302 12.0852 47.0416 10.5183 47.0416 8.45553C47.0416 6.39279 45.6302 4.82583 43.0717 4.82583Z" fill="#A51D21"/>
<path d="M50.9568 14.5641C50.9568 10.8295 53.6999 7.77518 57.355 7.77518C59.3381 7.77518 61.0896 8.79207 61.9509 10.0478V8.03573H64.1982V21.0925H61.9509V19.0805C61.0896 20.3326 59.3381 21.3531 57.355 21.3531C53.6999 21.3531 50.9568 18.2988 50.9568 14.5641ZM62.1318 14.5641C62.1318 11.926 60.3043 9.83792 57.6915 9.83792C55.0787 9.83792 53.2259 11.926 53.2259 14.5641C53.2259 17.2023 55.0534 19.2903 57.6915 19.2903C60.3297 19.2903 62.1318 17.2023 62.1318 14.5641Z" fill="#A51D21"/>
<path d="M69.3912 26.5498L72.2356 20.4122L66.5179 8.03574H69.0004L73.4914 17.9586L77.957 8.03574H80.4613L71.8991 26.5498H69.3912Z" fill="#A51D21"/>
<path d="M83.8052 10.0985H81.0367V8.0358H83.8052V5.39766C83.8052 2.67991 85.5024 1.34818 87.8004 1.34818C88.611 1.34818 89.2371 1.47845 89.8378 1.68835V3.67147C89.418 3.48691 88.7413 3.41092 88.2202 3.41092C86.7581 3.41092 86.0525 3.95736 86.0525 5.62927V8.03218H89.8378V10.0949H86.0525V21.089H83.8088V10.0949L83.8052 10.0985ZM91.8209 2.94409C91.8209 2.0828 92.5266 1.35179 93.4385 1.35179C94.3505 1.35179 95.0055 2.0828 95.0055 2.94409C95.0055 3.85604 94.3541 4.53638 93.4385 4.53638C92.523 4.53638 91.8209 3.85604 91.8209 2.94409ZM92.2914 8.0358H94.5387V21.0926H92.2914V8.0358Z" fill="#000001"/>
<path d="M103.571 16.1564L99.6015 21.0925H96.8077L102.16 14.4845L97.2528 8.03574H99.967L103.571 12.7619L107.147 8.03574H109.89L104.954 14.4845L110.31 21.0925H107.541L103.571 16.1564Z" fill="#000001"/>
<path d="M113.57 26.5498L116.418 20.4122L110.701 8.03574H113.18L117.671 17.9586L122.136 8.03574H124.644L116.078 26.5498H113.57Z" fill="#000001"/>
<path d="M8.07396 20.0286H8.0052C6.94126 20.0286 6.07997 19.1673 6.07997 18.1034C6.07274 17.8971 6.07274 16.8947 6.55042 15.8127C7.02087 14.7451 7.82788 13.9309 8.88096 13.4568C9.62644 13.1202 10.4986 12.9502 11.4757 12.9502H19.0608C21.9016 12.9502 24.3009 10.6269 24.2538 7.78244C24.2068 5.02126 21.9486 2.79205 19.1766 2.79205H0.0111694C0.0111694 1.69192 0.901405 0.798065 2.00515 0.798065H19.0427C22.9076 0.798065 26.1573 3.84151 26.2478 7.70282C26.3419 11.6799 23.132 14.9478 19.1766 14.9478H11.4757C10.7809 14.9478 10.1837 15.0599 9.69882 15.2771C9.09447 15.5485 8.64935 16.0008 8.37432 16.616C8.05586 17.3362 8.07396 18.0346 8.07396 18.0419V18.0817V20.025V20.0286Z" fill="#000001"/>
<path d="M17.812 6.87418H15.1521C15.1232 6.87418 15.0978 6.87418 15.0834 6.87418H7.07484C3.18458 6.87418 0.0180942 10.0334 0 13.9165C0 13.9273 0 13.9382 0 13.949V14.0721V20.0214C0 23.9298 3.17373 27.1035 7.07484 27.1035H7.20512C10.6503 27.0384 13.5707 24.4762 14.0737 21.0673L14.0954 20.1372V19.9889C14.0809 19.4497 13.6358 19.0226 13.0966 19.0226H13.0857C12.5393 19.0226 12.1014 19.4678 12.1014 20.0142V20.7488C11.7468 23.235 9.59718 25.1059 7.07484 25.1059H7.03142C4.24853 25.0842 1.99398 22.8152 1.99398 20.0287V13.8911C2.02655 11.1191 4.29195 8.87178 7.07123 8.87178H15.134H15.1376H17.8083V8.8573C18.21 8.81388 18.5719 8.64741 18.865 8.40133C19.3029 8.03583 19.5816 7.48938 19.5816 6.87418H17.8083H17.812Z" fill="#A51D21"/>
</g>
<defs>
<clipPath id="clip0_6603_24871">
<rect width="124.644" height="26.3054" fill="white" transform="translate(0 0.798126)"/>
</clipPath>
</defs>
</svg>
