<svg width="30" height="30" viewBox="0 0 30 30" fill="none" xmlns="http://www.w3.org/2000/svg">
<rect width="30" height="30" rx="6" fill="#FDF4F4"/>
<path fill-rule="evenodd" clip-rule="evenodd" d="M23.3295 19.9755C23.6451 20.2911 24.1846 20.0664 24.183 19.6201L24.1699 15.9211V9.60526C24.1699 8.44256 23.2273 7.5 22.0646 7.5H12.24C11.0773 7.5 10.1348 8.44256 10.1348 9.60526V12.5H15.3332C16.9901 12.5 18.3332 13.8431 18.3332 15.5V18.0263H21.3803L23.3295 19.9755Z" fill="#A51D21"/>
<path opacity="0.3" fill-rule="evenodd" clip-rule="evenodd" d="M6.6543 20.0001V15.8334C6.6543 14.9129 7.40049 14.1667 8.32096 14.1667H14.9876C15.9081 14.1667 16.6543 14.9129 16.6543 15.8334V20.0001C16.6543 20.9206 15.9081 21.6667 14.9876 21.6667H8.41741L7.52182 22.5239C7.20381 22.8283 6.67609 22.6029 6.67609 22.1627V20.2703C6.66175 20.1823 6.6543 20.0921 6.6543 20.0001ZM10.0001 17.0834C10.0001 16.8533 10.1866 16.6667 10.4168 16.6667H14.5834C14.8135 16.6667 15.0001 16.8533 15.0001 17.0834C15.0001 17.3135 14.8135 17.5001 14.5834 17.5001H10.4167C10.1866 17.5001 10.0001 17.3135 10.0001 17.0834ZM12.9167 18.3334C12.6866 18.3334 12.5001 18.52 12.5001 18.7501C12.5001 18.9802 12.6866 19.1667 12.9167 19.1667H14.5834C14.8135 19.1667 15.0001 18.9802 15.0001 18.7501C15.0001 18.52 14.8135 18.3334 14.5834 18.3334H12.9167Z" fill="#A51D21"/>
</svg>
