<svg width="45" height="45" viewBox="0 0 45 45" fill="none" xmlns="http://www.w3.org/2000/svg">
<path d="M14.0167 32.8866H13.8996C12.0878 32.8866 10.621 31.4199 10.621 29.608C10.6087 29.2567 10.6087 27.5496 11.4222 25.7069C12.2233 23.8888 13.5977 22.5022 15.391 21.6949C16.6606 21.1217 18.1458 20.8321 19.8098 20.8321H32.7271C37.565 20.8321 41.651 16.8755 41.5708 12.0315C41.4907 7.32926 37.6451 3.53294 32.9244 3.53294H0.285889C0.285889 1.65943 1.80195 0.137207 3.68162 0.137207H32.6963C39.2783 0.137207 44.8125 5.32017 44.9666 11.8959C45.1268 18.6689 39.6604 24.234 32.9244 24.234H19.8098C18.6265 24.234 17.6097 24.425 16.7838 24.7948C15.7547 25.257 14.9966 26.0274 14.5282 27.075C13.9859 28.3014 14.0167 29.4909 14.0167 29.5032V29.571V32.8805V32.8866Z" fill="#000001"/>
<path d="M30.6007 10.4849H26.071C26.0217 10.4849 25.9785 10.4849 25.9539 10.4849H12.3155C5.6904 10.4849 0.297904 15.865 0.26709 22.4778C0.26709 22.4963 0.26709 22.5148 0.26709 22.5332V22.7428V32.8745C0.26709 39.5304 5.67191 44.9352 12.3155 44.9352H12.5373C18.4044 44.8243 23.3778 40.461 24.2344 34.6556L24.2714 33.0717V32.819C24.2468 31.9008 23.4887 31.1736 22.5705 31.1736H22.552C21.6214 31.1736 20.8757 31.9316 20.8757 32.8622V34.1132C20.2717 38.3471 16.611 41.5333 12.3155 41.5333H12.2415C7.50228 41.4963 3.66282 37.6322 3.66282 32.8868V22.4346C3.71829 17.7139 7.57624 13.8868 12.3093 13.8868H26.0401H26.0463H30.5945V13.8621C31.2786 13.7882 31.8949 13.5047 32.394 13.0856C33.1398 12.4631 33.6143 11.5325 33.6143 10.4849H30.5945H30.6007Z" fill="#A51D21"/>
</svg>
