<svg width="25" height="24" viewBox="0 0 25 24" fill="none" xmlns="http://www.w3.org/2000/svg">
<path d="M21.2086 11.6147C21.203 11.6025 21.1973 11.5903 21.1908 11.5791L18.3652 6.55313V3C18.3652 2.60218 18.2071 2.22064 17.9258 1.93934C17.6445 1.65804 17.263 1.5 16.8652 1.5H7.86515C7.46733 1.5 7.0858 1.65804 6.80449 1.93934C6.52319 2.22064 6.36515 2.60218 6.36515 3V6.555L3.53953 11.5791C3.53297 11.5903 3.52734 11.6025 3.52078 11.6147C3.39836 11.8611 3.34636 12.1366 3.37051 12.4107C3.39467 12.6848 3.49403 12.9469 3.65765 13.1681L3.66797 13.1813L11.7717 23.7075C11.8418 23.7984 11.9318 23.8719 12.0347 23.9225C12.1377 23.9732 12.2509 23.9995 12.3656 23.9995C12.4804 23.9995 12.5936 23.9732 12.6965 23.9225C12.7995 23.8719 12.8895 23.7984 12.9595 23.7075L21.0623 13.1813L21.0727 13.1681C21.2363 12.9469 21.3356 12.6847 21.3596 12.4106C21.3836 12.1364 21.3313 11.861 21.2086 11.6147ZM16.8652 3V6H7.86515V3H16.8652ZM12.3652 13.5C12.1426 13.5 11.9251 13.434 11.7401 13.3104C11.5551 13.1868 11.4109 13.0111 11.3258 12.8055C11.2406 12.6 11.2184 12.3738 11.2618 12.1555C11.3052 11.9373 11.4123 11.7368 11.5697 11.5795C11.727 11.4222 11.9274 11.315 12.1457 11.2716C12.3639 11.2282 12.5901 11.2505 12.7957 11.3356C13.0012 11.4208 13.1769 11.565 13.3006 11.75C13.4242 11.935 13.4902 12.1525 13.4902 12.375C13.4902 12.6734 13.3716 12.9595 13.1606 13.1705C12.9497 13.3815 12.6635 13.5 12.3652 13.5ZM13.1152 21.0469V14.8903C13.7194 14.7102 14.2386 14.3185 14.5779 13.787C14.9171 13.2555 15.0537 12.6197 14.9627 11.9958C14.8716 11.3718 14.5591 10.8015 14.0821 10.3891C13.6051 9.9767 12.9957 9.74974 12.3652 9.74974C11.7346 9.74974 11.1252 9.9767 10.6482 10.3891C10.1713 10.8015 9.85868 11.3718 9.76765 11.9958C9.67662 12.6197 9.81322 13.2555 10.1525 13.787C10.4917 14.3185 11.0109 14.7102 11.6152 14.8903V21.0459L4.86515 12.2813L7.55484 7.5H17.1764L19.8652 12.2813L13.1152 21.0469Z" fill="#F65428"/>
</svg>
