<svg width="645" height="645" viewBox="0 0 645 645" fill="none" xmlns="http://www.w3.org/2000/svg">
<g clip-path="url(#clip0_6610_10541)">
<path opacity="0.2" d="M322.355 611.806C482.161 611.806 611.71 482.258 611.71 322.452C611.71 162.645 482.161 33.0967 322.355 33.0967C162.549 33.0967 33 162.645 33 322.452C33 482.258 162.549 611.806 322.355 611.806Z" stroke="#A51D21" stroke-width="0.403226"/>
<path opacity="0.3" d="M322.355 644.064C499.977 644.064 643.968 500.073 643.968 322.452C643.968 144.83 499.977 0.838623 322.355 0.838623C144.733 0.838623 0.741936 144.83 0.741936 322.452C0.741936 500.073 144.733 644.064 322.355 644.064Z" stroke="#A51D21" stroke-width="0.403226" stroke-dasharray="0.81 2.42"/>
<path opacity="0.3" d="M322.355 579.548C464.345 579.548 579.452 464.442 579.452 322.452C579.452 180.461 464.345 65.3547 322.355 65.3547C180.364 65.3547 65.2581 180.461 65.2581 322.452C65.2581 464.442 180.364 579.548 322.355 579.548Z" stroke="#A51D21" stroke-width="0.403226" stroke-dasharray="0.81 2.42"/>
<path opacity="0.2" d="M322.355 547.29C446.53 547.29 547.194 446.626 547.194 322.451C547.194 198.277 446.53 97.6128 322.355 97.6128C198.18 97.6128 97.5161 198.277 97.5161 322.451C97.5161 446.626 198.18 547.29 322.355 547.29Z" stroke="#A51D21" stroke-width="0.403226"/>
<path opacity="0.3" d="M322.355 515.032C428.714 515.032 514.935 428.811 514.935 322.451C514.935 216.092 428.714 129.871 322.355 129.871C215.995 129.871 129.774 216.092 129.774 322.451C129.774 428.811 215.995 515.032 322.355 515.032Z" stroke="#A51D21" stroke-width="0.403226" stroke-dasharray="0.81 2.42"/>
<path opacity="0.2" d="M322.355 482.774C410.899 482.774 482.677 410.995 482.677 322.451C482.677 233.908 410.899 162.129 322.355 162.129C233.811 162.129 162.032 233.908 162.032 322.451C162.032 410.995 233.811 482.774 322.355 482.774Z" stroke="#A51D21" stroke-width="0.403226"/>
<path opacity="0.3" d="M322.355 450.516C393.083 450.516 450.419 393.18 450.419 322.451C450.419 251.723 393.083 194.387 322.355 194.387C251.627 194.387 194.29 251.723 194.29 322.451C194.29 393.18 251.627 450.516 322.355 450.516Z" stroke="#A51D21" stroke-width="0.403226" stroke-dasharray="0.81 2.42"/>
<path opacity="0.2" d="M322.355 418.258C375.267 418.258 418.161 375.364 418.161 322.451C418.161 269.539 375.267 226.645 322.355 226.645C269.442 226.645 226.548 269.539 226.548 322.451C226.548 375.364 269.442 418.258 322.355 418.258Z" stroke="#A51D21" stroke-width="0.403226"/>
<path opacity="0.3" d="M322.355 386C357.452 386 385.903 357.549 385.903 322.452C385.903 287.355 357.452 258.903 322.355 258.903C287.258 258.903 258.806 287.355 258.806 322.452C258.806 357.549 287.258 386 322.355 386Z" stroke="#A51D21" stroke-width="0.403226" stroke-dasharray="0.81 2.42"/>
<rect x="522" y="318" width="65.8521" height="65.8521" rx="32.926" fill="white"/>
<rect x="522.514" y="318.514" width="64.8232" height="64.8232" rx="32.4116" stroke="#0E0E0F" stroke-opacity="0.08" stroke-width="1.02894"/>
<g filter="url(#filter0_i_6610_10541)">
<rect x="526.116" y="322.116" width="57.6206" height="57.6206" rx="28.8103" fill="#EEEEF0"/>
</g>
<path d="M572.34 341.43V360.916L555.173 370.195L538.007 360.916V341.43L538.981 340.906L555.173 349.656L571.365 340.906L572.34 341.43Z" fill="#FFB655"/>
<path d="M555.173 350.709V370.195L538.007 360.916V341.43L555.173 350.709Z" fill="#FCCC97"/>
<path d="M545.928 361.97C545.851 361.97 545.775 361.951 545.708 361.915L539.642 358.636C539.588 358.607 539.541 358.568 539.502 358.52C539.464 358.473 539.435 358.419 539.418 358.36C539.383 358.242 539.396 358.115 539.454 358.007C539.483 357.953 539.522 357.906 539.57 357.867C539.617 357.829 539.671 357.8 539.73 357.783C539.848 357.748 539.975 357.761 540.083 357.819L546.149 361.098C546.24 361.147 546.312 361.225 546.354 361.32C546.395 361.414 546.404 361.52 546.378 361.62C546.353 361.721 546.295 361.809 546.213 361.873C546.132 361.936 546.031 361.97 545.928 361.97Z" fill="#FFB655"/>
<path d="M542.063 361.464C541.986 361.464 541.911 361.445 541.843 361.408L539.642 360.218C539.588 360.189 539.541 360.15 539.502 360.103C539.464 360.056 539.435 360.001 539.418 359.943C539.4 359.884 539.395 359.823 539.401 359.762C539.407 359.702 539.425 359.643 539.454 359.589C539.483 359.536 539.522 359.488 539.57 359.45C539.617 359.411 539.671 359.383 539.73 359.365C539.788 359.348 539.849 359.342 539.91 359.348C539.971 359.355 540.029 359.373 540.083 359.402L542.284 360.592C542.375 360.641 542.447 360.719 542.489 360.813C542.53 360.908 542.539 361.014 542.514 361.114C542.488 361.214 542.43 361.303 542.349 361.366C542.267 361.43 542.166 361.464 542.063 361.464Z" fill="#FFB655"/>
<path d="M543.885 344.607V352.579C543.885 352.653 543.902 352.725 543.936 352.791C543.97 352.856 544.018 352.913 544.078 352.956C544.138 352.999 544.207 353.027 544.28 353.038C544.353 353.049 544.427 353.042 544.497 353.019L546.41 352.374L548.452 355.268C548.508 355.348 548.589 355.409 548.683 355.44C548.776 355.472 548.877 355.473 548.971 355.443C549.065 355.413 549.147 355.354 549.205 355.275C549.263 355.195 549.295 355.099 549.295 355.001V347.532L543.885 344.607Z" fill="#FFB655"/>
<path d="M538.007 341.43L555.173 350.709L572.34 341.43L555.173 332.15L538.007 341.43Z" fill="#FC9F30"/>
<path d="M543.861 344.594L549.319 347.544L566.485 338.265L561.027 335.315L543.861 344.594Z" fill="#DB811F"/>
<rect x="358" y="340" width="65.8521" height="65.8521" rx="32.926" fill="white"/>
<rect x="358.514" y="340.514" width="64.8232" height="64.8232" rx="32.4116" stroke="#0E0E0F" stroke-opacity="0.08" stroke-width="1.02894"/>
<g filter="url(#filter1_i_6610_10541)">
<rect x="362.116" y="344.116" width="57.6206" height="57.6206" rx="28.8103" fill="#EEEEF0"/>
</g>
<g clip-path="url(#clip1_6610_10541)">
<path fill-rule="evenodd" clip-rule="evenodd" d="M378.755 380.543V387.785H380.584C380.853 387.785 381.076 387.951 381.076 388.153V390.473H387.573V388.153C387.573 387.951 387.796 387.785 388.069 387.785H389.898V380.543H388.069C387.796 380.543 387.573 380.378 387.573 380.178V377.856H381.076V380.178C381.076 380.378 380.853 380.543 380.584 380.543H378.755Z" fill="#B6B1B7"/>
<path fill-rule="evenodd" clip-rule="evenodd" d="M392.188 380.543V387.785H394.102C394.387 387.785 394.62 387.951 394.62 388.153V390.473H401.419V388.153C401.419 387.951 401.652 387.785 401.937 387.785H403.851V380.543H401.937C401.652 380.543 401.419 380.378 401.419 380.178V377.856H394.62V380.178C394.62 380.378 394.387 380.543 394.102 380.543H392.188Z" fill="#B6B1B7"/>
<path fill-rule="evenodd" clip-rule="evenodd" d="M373.528 364.85V375.34H408.818V364.85L391.172 354.662L373.528 364.85Z" fill="#ECEAEC"/>
<path fill-rule="evenodd" clip-rule="evenodd" d="M370.974 366.1C371.419 366.871 372.411 367.137 373.181 366.692L373.528 366.492L391.172 356.304L408.818 366.492L409.165 366.692C409.934 367.137 410.928 366.871 411.371 366.1C411.815 365.332 411.55 364.338 410.779 363.893L392.059 353.085C391.803 352.936 391.489 352.864 391.172 352.864C390.858 352.864 390.541 352.936 390.285 353.085L371.565 363.893C370.797 364.338 370.529 365.332 370.974 366.1Z" fill="#9FD4FE"/>
<path fill-rule="evenodd" clip-rule="evenodd" d="M402.156 379.297H407.577V389.031H402.156V379.297Z" fill="#FFE07D"/>
<path fill-rule="evenodd" clip-rule="evenodd" d="M388.462 379.297H393.883V389.031H388.462V379.297Z" fill="#FFE07D"/>
<path fill-rule="evenodd" clip-rule="evenodd" d="M374.767 379.297H380.191V389.031H374.767V379.297Z" fill="#FFE07D"/>
<path fill-rule="evenodd" clip-rule="evenodd" d="M373.044 390.472L377.016 391.977L381.914 390.472V388.153C381.914 387.95 381.748 387.785 381.548 387.785H380.191H374.767H373.41C373.209 387.785 373.044 387.95 373.044 388.153V390.472Z" fill="#ECEAEC"/>
<path fill-rule="evenodd" clip-rule="evenodd" d="M400.431 390.472L405.221 391.977L409.303 390.472V388.153C409.303 387.95 409.137 387.785 408.935 387.785H407.577H402.156H400.799C400.596 387.785 400.431 387.95 400.431 388.153V390.472Z" fill="#ECEAEC"/>
<path fill-rule="evenodd" clip-rule="evenodd" d="M386.736 390.472L391.173 391.547L395.608 390.472V388.153C395.608 387.95 395.443 387.785 395.24 387.785H393.883H388.462H387.104C386.902 387.785 386.736 387.95 386.736 388.153V390.472Z" fill="#ECEAEC"/>
<path fill-rule="evenodd" clip-rule="evenodd" d="M371.137 393.481H411.21C411.417 393.481 411.587 393.311 411.587 393.104V390.85C411.587 390.642 411.417 390.472 411.21 390.472H409.303H400.431H395.608H386.736H381.914H373.044H371.137C370.93 390.472 370.76 390.642 370.76 390.85V393.104C370.76 393.311 370.93 393.481 371.137 393.481Z" fill="#9FD4FE"/>
<path fill-rule="evenodd" clip-rule="evenodd" d="M389.291 361.919C389.291 363.008 390.173 363.891 391.263 363.891C392.35 363.891 393.235 363.008 393.235 361.919C393.235 360.829 392.35 359.946 391.263 359.946C390.173 359.946 389.291 360.829 389.291 361.919Z" fill="#FFE07D"/>
<path fill-rule="evenodd" clip-rule="evenodd" d="M391.172 356.304L373.528 366.492V368.784L391.172 358.596L408.818 368.784V366.492L391.172 356.304Z" fill="#DAD8DB"/>
<path fill-rule="evenodd" clip-rule="evenodd" d="M391.263 359.946C390.173 359.946 389.291 360.829 389.291 361.919C389.291 362.145 389.328 362.359 389.398 362.561C389.689 361.837 390.399 361.327 391.226 361.327C392.09 361.327 392.825 361.884 393.091 362.657C393.184 362.429 393.235 362.179 393.235 361.919C393.235 360.829 392.35 359.946 391.263 359.946Z" fill="#FFC269"/>
<path fill-rule="evenodd" clip-rule="evenodd" d="M374.767 380.543H380.191V382.513H374.767V380.543Z" fill="#FFC269"/>
<path fill-rule="evenodd" clip-rule="evenodd" d="M388.462 380.543H393.883V382.513H388.462V380.543Z" fill="#FFC269"/>
<path fill-rule="evenodd" clip-rule="evenodd" d="M402.156 380.543H407.577V382.513H402.156V380.543Z" fill="#FFC269"/>
<path fill-rule="evenodd" clip-rule="evenodd" d="M374.767 380.543H380.191H381.548C381.748 380.543 381.914 380.377 381.914 380.177V377.363H373.044V380.177C373.044 380.377 373.209 380.543 373.41 380.543H374.767Z" fill="#ECEAEC"/>
<path fill-rule="evenodd" clip-rule="evenodd" d="M388.462 380.543H393.883H395.24C395.443 380.543 395.608 380.377 395.608 380.177V377.363H386.736V380.177C386.736 380.377 386.902 380.543 387.104 380.543H388.462Z" fill="#ECEAEC"/>
<path fill-rule="evenodd" clip-rule="evenodd" d="M400.799 380.543H402.156H407.577H408.935C409.137 380.543 409.303 380.377 409.303 380.177V377.363H400.431V380.177C400.431 380.377 400.596 380.543 400.799 380.543Z" fill="#ECEAEC"/>
<path fill-rule="evenodd" clip-rule="evenodd" d="M373.044 377.856H381.914V379.297H373.044V377.856Z" fill="#DAD8DB"/>
<path fill-rule="evenodd" clip-rule="evenodd" d="M386.736 377.856H395.608V379.297H386.736V377.856Z" fill="#DAD8DB"/>
<path fill-rule="evenodd" clip-rule="evenodd" d="M400.431 377.856H409.303V379.297H400.431V377.856Z" fill="#DAD8DB"/>
<path fill-rule="evenodd" clip-rule="evenodd" d="M373.044 377.856H381.914H386.736H395.608H400.431H409.303H411.21C411.417 377.856 411.587 377.686 411.587 377.479V375.224C411.587 375.017 411.417 374.847 411.21 374.847H408.818H373.528H371.137C370.93 374.847 370.76 375.017 370.76 375.224V377.479C370.76 377.686 370.93 377.856 371.137 377.856H373.044Z" fill="#9FD4FE"/>
<path d="M383.741 369.004C383.91 368.738 384.009 368.424 384.009 368.086C384.009 367.139 383.239 366.369 382.292 366.369H380.902C380.562 366.369 380.286 366.645 380.286 366.985V369.188V369.192V371.77C380.286 371.934 380.351 372.091 380.468 372.207C380.583 372.322 380.739 372.386 380.902 372.386H380.905C380.905 372.386 382.183 372.38 382.535 372.38C383.585 372.38 384.439 371.526 384.439 370.476C384.439 369.884 384.167 369.354 383.741 369.004ZM382.292 367.601C382.559 367.601 382.777 367.819 382.777 368.086C382.777 368.354 382.559 368.571 382.292 368.571C382.19 368.571 381.518 368.572 381.518 368.572V367.601H382.292ZM382.535 371.148C382.347 371.148 381.898 371.15 381.518 371.151V369.806C381.609 369.805 382.535 369.805 382.535 369.805C382.905 369.805 383.207 370.106 383.207 370.476C383.207 370.847 382.905 371.148 382.535 371.148Z" fill="#6F6571"/>
<path d="M388.714 366.835C388.712 366.829 388.71 366.824 388.708 366.818C388.596 366.545 388.333 366.369 388.038 366.369C388.038 366.369 388.037 366.369 388.037 366.369C387.742 366.369 387.479 366.546 387.367 366.819C387.365 366.824 387.363 366.829 387.362 366.833L385.565 371.551C385.444 371.869 385.603 372.225 385.921 372.346C386.239 372.467 386.595 372.307 386.717 371.989L387.013 371.211H389.049L389.342 371.987C389.435 372.234 389.67 372.386 389.918 372.386C389.991 372.386 390.064 372.374 390.136 372.346C390.454 372.226 390.615 371.871 390.495 371.553L388.714 366.835ZM387.482 369.979L388.035 368.526L388.584 369.979H387.482Z" fill="#6F6571"/>
<path d="M395.741 366.369C395.739 366.369 395.736 366.369 395.734 366.369C395.394 366.372 395.121 366.651 395.124 366.991L395.152 369.848L392.939 366.644C392.786 366.422 392.507 366.326 392.249 366.406C391.992 366.486 391.816 366.725 391.816 366.994V371.77C391.816 372.11 392.092 372.386 392.432 372.386C392.772 372.386 393.048 372.11 393.048 371.77V368.971L395.154 372.02C395.335 372.281 395.636 372.392 395.921 372.302C396.213 372.211 396.401 371.939 396.401 371.603L396.356 366.979C396.353 366.641 396.078 366.369 395.741 366.369Z" fill="#6F6571"/>
<path d="M402.013 371.327L399.861 369.25L401.83 367.44C402.08 367.21 402.097 366.82 401.867 366.57C401.636 366.319 401.246 366.303 400.996 366.533L399.423 367.979V366.925C399.423 366.585 399.147 366.309 398.807 366.309C398.467 366.309 398.191 366.585 398.191 366.925V371.77C398.191 372.11 398.467 372.386 398.807 372.386C399.147 372.386 399.423 372.11 399.423 371.77V370.54L401.157 372.213C401.277 372.329 401.431 372.386 401.585 372.386C401.746 372.386 401.907 372.323 402.028 372.198C402.265 371.953 402.258 371.563 402.013 371.327Z" fill="#6F6571"/>
</g>
<rect x="178" y="228" width="65.8521" height="65.8521" rx="32.926" fill="white"/>
<rect x="178.514" y="228.514" width="64.8232" height="64.8232" rx="32.4116" stroke="#0E0E0F" stroke-opacity="0.08" stroke-width="1.02894"/>
<g filter="url(#filter2_i_6610_10541)">
<rect x="182.116" y="232.116" width="57.6206" height="57.6206" rx="28.8103" fill="#EEEEF0"/>
</g>
<g clip-path="url(#clip2_6610_10541)">
<path d="M228.601 245.179C230.087 245.577 230.969 247.104 230.57 248.589L222.282 279.522C221.884 281.008 220.357 281.89 218.871 281.492L202.732 277.167C201.247 276.769 200.365 275.242 200.763 273.756L209.052 242.823C209.45 241.338 210.977 240.456 212.462 240.854L228.601 245.179Z" fill="#F5F9EC"/>
<path d="M216.111 249.282H207.321L200.763 273.756C200.365 275.242 201.247 276.769 202.733 277.167L218.871 281.491C220.357 281.889 221.884 281.008 222.282 279.522L227.368 260.54L216.111 249.282Z" fill="#E4E8DB"/>
<path d="M228.601 245.179C230.087 245.577 230.969 247.104 230.57 248.589L226.967 262.038L205.448 256.273L209.052 242.823C209.45 241.338 210.977 240.456 212.463 240.854L228.601 245.179Z" fill="#DCC69F"/>
<path d="M210.178 276.276L212.7 266.862L211.355 266.502L208.833 275.916L210.178 276.276Z" fill="#C8BEB2"/>
<path d="M213.421 264.175L214.142 261.485L212.797 261.125L212.076 263.814L213.421 264.175Z" fill="#C8BEB2"/>
<path d="M217.458 265.252L218.179 262.562L216.834 262.202L216.114 264.891L217.458 265.252Z" fill="#C8BEB2"/>
<path d="M221.49 266.334L222.21 263.645L220.865 263.284L220.145 265.974L221.49 266.334Z" fill="#C8BEB2"/>
<path d="M214.209 277.358L216.732 267.945L215.387 267.584L212.864 276.998L214.209 277.358Z" fill="#C8BEB2"/>
<path d="M218.249 278.441L220.771 269.027L219.427 268.667L216.904 278.081L218.249 278.441Z" fill="#C8BEB2"/>
<path d="M223.846 246.787L222.693 246.479L218.575 250.317C217.496 250.028 216.286 249.704 216.078 249.648C215.309 249.442 214.438 249.621 214.335 250.005C214.232 250.389 214.897 250.979 215.666 251.185C215.874 251.241 217.084 251.565 218.164 251.854L219.81 257.238L220.963 257.547L220.853 252.575C221.611 252.778 222.383 252.985 222.89 253.121L223.785 254.699L224.554 254.905L224.422 252.707L225.635 250.87L224.866 250.664L223.302 251.584C222.795 251.448 222.023 251.241 221.265 251.038L223.846 246.787Z" fill="#F5F9EC"/>
<path d="M205.448 256.273L226.967 262.038L227.368 260.54L216.111 249.282H207.321L205.448 256.273Z" fill="#CDB994"/>
<path d="M216.078 249.648C215.309 249.442 214.438 249.621 214.335 250.005C214.232 250.389 214.897 250.979 215.666 251.185C215.874 251.241 217.084 251.565 218.163 251.854L219.81 257.238L220.963 257.547L220.886 254.058L216.622 249.794C216.352 249.722 216.151 249.668 216.078 249.648Z" fill="#E4E8DB"/>
<path d="M213.807 241.215L204.077 277.527L202.733 277.167C201.247 276.769 200.365 275.242 200.763 273.757L209.052 242.823C209.45 241.338 210.977 240.456 212.463 240.854L213.807 241.215Z" fill="#EA672C"/>
<path d="M216.742 276.103C216.742 277.641 215.496 278.888 213.958 278.888H193.072C192.303 278.888 191.68 278.264 191.68 277.495V249.648C191.68 248.879 192.303 248.256 193.072 248.256H213.958C215.496 248.256 216.742 249.503 216.742 251.041V276.103Z" fill="#125D9D"/>
<path d="M204.211 252.433C199.597 252.433 195.857 256.173 195.857 260.787C195.857 265.401 199.597 269.141 204.211 269.141C208.825 269.141 212.565 265.401 212.565 260.787C212.565 256.173 208.825 252.433 204.211 252.433ZM210.394 257.654H207.383C207.095 256.212 206.645 255.045 206.186 254.146C208.026 254.695 209.536 255.97 210.394 257.654ZM206.3 260.787C206.3 261.409 206.253 261.98 206.189 262.528H202.233C202.169 261.98 202.123 261.409 202.123 260.787C202.123 260.165 202.168 259.595 202.232 259.047H206.191C206.254 259.595 206.3 260.166 206.3 260.787ZM202.464 257.654C202.851 255.91 203.489 254.642 204.009 253.846C204.077 253.844 204.142 253.825 204.211 253.825C204.281 253.825 204.346 253.844 204.416 253.846C204.938 254.648 205.574 255.916 205.958 257.654H202.464ZM202.236 254.146C201.779 255.044 201.329 256.211 201.04 257.654H198.029C198.886 255.97 200.396 254.695 202.236 254.146ZM197.497 259.047H200.829C200.771 259.598 200.73 260.172 200.73 260.787C200.73 261.403 200.772 261.976 200.831 262.528H197.496C197.351 261.968 197.249 261.392 197.249 260.787C197.249 260.183 197.351 259.606 197.497 259.047ZM198.029 263.92H201.044C201.335 265.366 201.785 266.542 202.234 267.428C200.396 266.879 198.886 265.603 198.029 263.92ZM204.009 267.729C203.51 266.961 202.86 265.69 202.466 263.92H205.957C205.564 265.689 204.914 266.959 204.414 267.729C204.345 267.731 204.281 267.749 204.211 267.749C204.142 267.749 204.078 267.731 204.009 267.729ZM206.189 267.428C206.639 266.541 207.089 265.366 207.379 263.92H210.394C209.537 265.603 208.027 266.878 206.189 267.428ZM210.926 262.528H207.592C207.651 261.976 207.692 261.403 207.692 260.787C207.692 260.172 207.652 259.598 207.594 259.047H210.926C211.071 259.606 211.173 260.183 211.173 260.787C211.173 261.392 211.071 261.968 210.926 262.528Z" fill="#E7BE29"/>
<path d="M196.771 274.712V272.719H197.523C197.655 272.719 197.756 272.725 197.826 272.738C197.924 272.754 198.006 272.785 198.072 272.831C198.138 272.876 198.192 272.941 198.232 273.023C198.272 273.106 198.292 273.196 198.292 273.295C198.292 273.465 198.238 273.608 198.131 273.725C198.023 273.843 197.828 273.901 197.546 273.901H197.035V274.712H196.771ZM197.035 273.666H197.55C197.72 273.666 197.841 273.635 197.913 273.571C197.985 273.508 198.02 273.418 198.02 273.303C198.02 273.22 197.999 273.148 197.957 273.089C197.915 273.03 197.859 272.99 197.791 272.971C197.746 272.96 197.664 272.954 197.545 272.954H197.035V273.666Z" fill="white"/>
<path d="M198.203 274.712L198.968 272.719H199.252L200.068 274.712H199.768L199.535 274.108H198.702L198.483 274.712H198.203ZM198.778 273.893H199.454L199.246 273.341C199.182 273.174 199.135 273.036 199.104 272.928C199.079 273.056 199.043 273.183 198.997 273.309L198.778 273.893Z" fill="white"/>
<path d="M200.189 274.072L200.438 274.05C200.45 274.15 200.477 274.231 200.52 274.295C200.563 274.359 200.63 274.411 200.721 274.45C200.812 274.49 200.913 274.509 201.027 274.509C201.127 274.509 201.216 274.494 201.293 274.465C201.37 274.435 201.428 274.394 201.465 274.341C201.503 274.289 201.522 274.233 201.522 274.171C201.522 274.108 201.504 274.054 201.467 274.007C201.431 273.96 201.371 273.921 201.288 273.889C201.234 273.869 201.116 273.836 200.933 273.792C200.75 273.748 200.622 273.707 200.548 273.668C200.453 273.618 200.382 273.556 200.335 273.482C200.289 273.408 200.265 273.325 200.265 273.234C200.265 273.133 200.294 273.039 200.351 272.952C200.408 272.864 200.491 272.798 200.601 272.753C200.711 272.707 200.833 272.685 200.967 272.685C201.115 272.685 201.245 272.708 201.358 272.756C201.471 272.804 201.557 272.874 201.618 272.966C201.679 273.059 201.712 273.163 201.716 273.28L201.463 273.299C201.45 273.173 201.404 273.078 201.325 273.014C201.247 272.949 201.131 272.917 200.978 272.917C200.818 272.917 200.702 272.946 200.629 273.005C200.556 273.063 200.52 273.134 200.52 273.216C200.52 273.288 200.545 273.347 200.597 273.393C200.648 273.439 200.78 273.487 200.995 273.535C201.209 273.584 201.356 273.626 201.436 273.662C201.552 273.716 201.638 273.784 201.693 273.866C201.748 273.948 201.776 274.042 201.776 274.149C201.776 274.255 201.746 274.355 201.685 274.449C201.624 274.543 201.537 274.616 201.423 274.668C201.309 274.72 201.181 274.746 201.039 274.746C200.859 274.746 200.707 274.72 200.585 274.667C200.464 274.615 200.368 274.535 200.299 274.43C200.229 274.324 200.193 274.205 200.189 274.072Z" fill="white"/>
<path d="M202.047 274.072L202.295 274.05C202.307 274.15 202.335 274.231 202.378 274.295C202.421 274.359 202.488 274.411 202.578 274.45C202.669 274.49 202.771 274.509 202.884 274.509C202.985 274.509 203.074 274.494 203.151 274.465C203.228 274.435 203.285 274.394 203.323 274.341C203.36 274.289 203.379 274.233 203.379 274.171C203.379 274.108 203.361 274.054 203.325 274.007C203.289 273.96 203.229 273.921 203.145 273.889C203.092 273.869 202.974 273.836 202.79 273.792C202.607 273.748 202.479 273.707 202.406 273.668C202.31 273.618 202.239 273.556 202.193 273.482C202.146 273.408 202.123 273.325 202.123 273.234C202.123 273.133 202.151 273.039 202.208 272.952C202.265 272.864 202.349 272.798 202.459 272.753C202.568 272.707 202.69 272.685 202.824 272.685C202.972 272.685 203.102 272.708 203.215 272.756C203.328 272.804 203.415 272.874 203.476 272.966C203.536 273.059 203.569 273.163 203.574 273.28L203.321 273.299C203.307 273.173 203.261 273.078 203.183 273.014C203.104 272.949 202.988 272.917 202.835 272.917C202.676 272.917 202.559 272.946 202.486 273.005C202.413 273.063 202.377 273.134 202.377 273.216C202.377 273.288 202.403 273.347 202.455 273.393C202.505 273.439 202.638 273.487 202.852 273.535C203.067 273.584 203.214 273.626 203.293 273.662C203.409 273.716 203.495 273.784 203.55 273.866C203.606 273.948 203.633 274.042 203.633 274.149C203.633 274.255 203.603 274.355 203.542 274.449C203.481 274.543 203.394 274.616 203.28 274.668C203.167 274.72 203.039 274.746 202.896 274.746C202.716 274.746 202.565 274.72 202.443 274.667C202.321 274.615 202.225 274.535 202.156 274.43C202.087 274.324 202.05 274.205 202.047 274.072Z" fill="white"/>
<path d="M203.994 274.712V272.719H204.746C204.878 272.719 204.979 272.725 205.049 272.738C205.147 272.754 205.229 272.785 205.295 272.831C205.361 272.877 205.414 272.941 205.455 273.023C205.495 273.106 205.515 273.197 205.515 273.295C205.515 273.465 205.461 273.608 205.353 273.726C205.246 273.843 205.051 273.902 204.769 273.902H204.258V274.712H203.994ZM204.258 273.666H204.773C204.943 273.666 205.064 273.635 205.136 273.571C205.208 273.508 205.243 273.418 205.243 273.303C205.243 273.22 205.222 273.149 205.18 273.089C205.138 273.03 205.082 272.991 205.013 272.972C204.969 272.96 204.887 272.954 204.767 272.954H204.258V273.666Z" fill="white"/>
<path d="M205.771 273.741C205.771 273.41 205.86 273.151 206.037 272.964C206.215 272.777 206.444 272.683 206.725 272.683C206.909 272.683 207.075 272.727 207.223 272.815C207.371 272.903 207.484 273.026 207.561 273.183C207.639 273.34 207.677 273.519 207.677 273.718C207.677 273.92 207.637 274.101 207.555 274.26C207.473 274.42 207.358 274.541 207.208 274.623C207.059 274.705 206.897 274.746 206.724 274.746C206.537 274.746 206.369 274.7 206.221 274.61C206.073 274.519 205.961 274.395 205.885 274.239C205.809 274.082 205.771 273.916 205.771 273.741ZM206.043 273.745C206.043 273.985 206.107 274.175 206.237 274.313C206.366 274.451 206.528 274.52 206.723 274.52C206.921 274.52 207.085 274.45 207.213 274.311C207.341 274.171 207.405 273.973 207.405 273.717C207.405 273.554 207.378 273.413 207.323 273.292C207.268 273.171 207.188 273.077 207.082 273.01C206.977 272.944 206.858 272.91 206.727 272.91C206.54 272.91 206.379 272.974 206.245 273.103C206.11 273.231 206.043 273.445 206.043 273.745Z" fill="white"/>
<path d="M208.021 274.712V272.719H208.905C209.083 272.719 209.218 272.737 209.31 272.772C209.403 272.808 209.476 272.872 209.532 272.962C209.587 273.053 209.615 273.153 209.615 273.263C209.615 273.404 209.569 273.523 209.477 273.62C209.386 273.717 209.244 273.779 209.053 273.805C209.123 273.839 209.176 273.872 209.212 273.904C209.289 273.975 209.362 274.064 209.431 274.17L209.778 274.712H209.446L209.182 274.297C209.105 274.178 209.042 274.086 208.992 274.023C208.942 273.959 208.897 273.915 208.858 273.889C208.819 273.864 208.778 273.846 208.738 273.836C208.708 273.83 208.659 273.827 208.591 273.827H208.285V274.712H208.021V274.712ZM208.285 273.598H208.852C208.973 273.598 209.067 273.586 209.135 273.561C209.203 273.536 209.255 273.496 209.29 273.441C209.325 273.387 209.343 273.327 209.343 273.263C209.343 273.168 209.309 273.091 209.24 273.03C209.172 272.969 209.064 272.939 208.916 272.939H208.285L208.285 273.598Z" fill="white"/>
<path d="M210.485 274.712V272.954H209.828V272.719H211.408V272.954H210.749V274.712H210.485Z" fill="white"/>
</g>
<rect x="460" y="137" width="65.8521" height="65.8521" rx="32.926" fill="white"/>
<rect x="460.514" y="137.514" width="64.8232" height="64.8232" rx="32.4116" stroke="#0E0E0F" stroke-opacity="0.08" stroke-width="1.02894"/>
<g filter="url(#filter3_i_6610_10541)">
<rect x="464.116" y="141.116" width="57.6206" height="57.6206" rx="28.8103" fill="#EEEEF0"/>
</g>
<path d="M495.087 165.07C494.918 165.07 494.755 165.002 494.636 164.883C494.516 164.763 494.449 164.601 494.449 164.432V158.052C494.449 156.868 493.978 155.732 493.141 154.895C492.303 154.057 491.168 153.587 489.983 153.587C488.799 153.587 487.663 154.057 486.826 154.895C485.988 155.732 485.518 156.868 485.518 158.052V164.432C485.518 164.601 485.45 164.763 485.331 164.883C485.211 165.002 485.049 165.07 484.88 165.07C484.711 165.07 484.548 165.002 484.429 164.883C484.309 164.763 484.242 164.601 484.242 164.432V158.052C484.242 156.53 484.847 155.069 485.923 153.992C487 152.916 488.461 152.311 489.983 152.311C491.506 152.311 492.966 152.916 494.043 153.992C495.12 155.069 495.725 156.53 495.725 158.052V164.432C495.725 164.601 495.658 164.763 495.538 164.883C495.418 165.002 495.256 165.07 495.087 165.07Z" fill="#DADCDE"/>
<path d="M496.363 187.398H474.673L475.949 161.88H495.087L496.363 187.398Z" fill="#EB423F"/>
<path d="M501.466 187.398H496.363L495.087 161.88H500.19L501.466 187.398Z" fill="#D13330"/>
<path d="M498.952 184.207C498.939 184.208 498.926 184.208 498.914 184.208C498.751 184.208 498.595 184.146 498.476 184.034C498.358 183.922 498.287 183.77 498.277 183.607L497.001 161.917C497.001 161.905 497.001 161.893 497.001 161.88H498.278L499.552 183.532C499.562 183.701 499.504 183.867 499.391 183.994C499.279 184.12 499.121 184.197 498.952 184.207Z" fill="#A82A27"/>
<path d="M511.673 187.398H506.57L506.49 186.366V186.366L505.294 170.811H510.397L511.574 186.097V186.098L511.673 187.398Z" fill="#EBA72E"/>
<path d="M509.185 184.205C509.164 184.207 509.142 184.208 509.121 184.208C508.963 184.208 508.81 184.149 508.693 184.043C508.576 183.937 508.503 183.791 508.487 183.634L508.464 183.406L507.211 170.875C507.209 170.854 507.208 170.832 507.208 170.811H508.487L509.74 183.347L509.756 183.506C509.765 183.589 509.757 183.674 509.732 183.754C509.708 183.834 509.669 183.909 509.616 183.974C509.563 184.038 509.497 184.092 509.423 184.132C509.35 184.172 509.269 184.196 509.185 184.205Z" fill="#E09F2C"/>
<path d="M511.673 187.397H510.906L509.122 184.72L507.337 187.397H506.57L506.49 186.366V186.366L508.464 183.406L508.59 183.216C508.649 183.128 508.728 183.057 508.82 183.007C508.913 182.958 509.017 182.932 509.122 182.932C509.227 182.932 509.33 182.958 509.423 183.007C509.515 183.057 509.594 183.128 509.653 183.216L509.74 183.347L511.574 186.097V186.098L511.673 187.397Z" fill="#E09F2C"/>
<path d="M506.57 187.398H489.983L491.259 170.811H505.294L506.57 187.398Z" fill="#F7B030"/>
<path d="M498.915 182.932H497.639C496.793 182.931 495.982 182.595 495.384 181.997C494.786 181.399 494.45 180.588 494.449 179.742V174.639C494.449 174.469 494.516 174.307 494.636 174.188C494.755 174.068 494.918 174.001 495.087 174.001C495.256 174.001 495.418 174.068 495.538 174.188C495.658 174.307 495.725 174.469 495.725 174.639V179.742C495.725 180.25 495.927 180.736 496.286 181.095C496.645 181.454 497.131 181.655 497.639 181.656H498.915C499.422 181.655 499.908 181.454 500.267 181.095C500.626 180.736 500.828 180.25 500.828 179.742V174.639C500.828 174.469 500.896 174.307 501.015 174.188C501.135 174.068 501.297 174.001 501.466 174.001C501.636 174.001 501.798 174.068 501.917 174.188C502.037 174.307 502.104 174.469 502.104 174.639V179.742C502.103 180.588 501.767 181.399 501.169 181.997C500.571 182.595 499.76 182.931 498.915 182.932Z" fill="#E9EEF2"/>
<path d="M480.414 164.431H481.69V168.259H480.414V164.431Z" fill="#DADCDE"/>
<path d="M481.052 165.07C480.883 165.07 480.721 165.002 480.601 164.883C480.481 164.763 480.414 164.601 480.414 164.432V158.052C480.414 156.53 481.019 155.069 482.096 153.992C483.173 152.916 484.633 152.311 486.156 152.311C487.678 152.311 489.139 152.916 490.216 153.992C491.292 155.069 491.897 156.53 491.897 158.052V164.432C491.897 164.601 491.83 164.763 491.71 164.883C491.591 165.002 491.428 165.07 491.259 165.07C491.09 165.07 490.928 165.002 490.808 164.883C490.689 164.763 490.621 164.601 490.621 164.432V158.052C490.621 156.868 490.151 155.732 489.313 154.895C488.476 154.057 487.34 153.587 486.156 153.587C484.971 153.587 483.836 154.057 482.998 154.895C482.161 155.732 481.69 156.868 481.69 158.052V164.432C481.69 164.601 481.623 164.763 481.503 164.883C481.384 165.002 481.221 165.07 481.052 165.07Z" fill="#E9EEF2"/>
<path d="M482.966 173.363H479.138V168.259L481.052 166.983L482.966 168.259V173.363Z" fill="#F7B030"/>
<rect x="166" y="451" width="65.8521" height="65.8521" rx="32.926" fill="white"/>
<rect x="166.514" y="451.514" width="64.8232" height="64.8232" rx="32.4116" stroke="#0E0E0F" stroke-opacity="0.08" stroke-width="1.02894"/>
<g filter="url(#filter4_i_6610_10541)">
<rect x="170.116" y="455.116" width="57.6206" height="57.6206" rx="28.8103" fill="#EEEEF0"/>
</g>
<path fill-rule="evenodd" clip-rule="evenodd" d="M189.376 474.527H208.938V477.845H189.376V474.527Z" fill="#FFE5C2"/>
<path fill-rule="evenodd" clip-rule="evenodd" d="M189.376 474.527H208.938V475.757H189.376V474.527Z" fill="#F0CEA1"/>
<path fill-rule="evenodd" clip-rule="evenodd" d="M184.772 480.703H213.622V501.051H184.772V480.703Z" fill="#FFE5C2"/>
<path fill-rule="evenodd" clip-rule="evenodd" d="M184.772 480.703H213.622V484.101C213.479 484.117 213.336 484.125 213.193 484.125H213.01C212.01 484.125 211.049 483.736 210.319 483.053C209.597 483.744 208.636 484.125 207.628 484.125H207.445C206.445 484.125 205.484 483.736 204.754 483.053C204.032 483.744 203.071 484.125 202.063 484.125H201.88C200.88 484.125 199.919 483.736 199.189 483.053C198.466 483.744 197.506 484.125 196.498 484.125H196.315C195.315 484.125 194.354 483.736 193.624 483.053C192.901 483.744 191.941 484.125 190.932 484.125H190.758C189.75 484.125 188.797 483.736 188.067 483.053C187.336 483.744 186.383 484.125 185.375 484.125H185.193C185.05 484.125 184.907 484.117 184.764 484.101L184.772 480.703Z" fill="#F0CEA1"/>
<path d="M212.764 474.948H185.55C185.328 474.948 185.137 474.765 185.137 474.535V467.493C185.137 467.271 185.32 467.088 185.55 467.088H212.764C212.986 467.088 213.169 467.271 213.169 467.493V474.535C213.177 474.765 212.986 474.948 212.764 474.948Z" fill="#6C3429"/>
<path d="M185.955 467.898H212.351V474.122H185.955V467.898Z" fill="#A44F3E"/>
<path d="M210.208 498.859C210.208 499.082 210.025 499.264 209.803 499.264C209.581 499.264 202.539 499.264 202.317 499.264C202.094 499.264 201.912 499.082 201.912 498.859V489.738C201.912 487.451 203.777 485.586 206.064 485.586C208.35 485.586 210.216 487.451 210.216 489.738L210.208 498.859Z" fill="#A44F3E"/>
<path d="M188.924 485.213H198.824C199.101 485.213 199.348 485.324 199.53 485.506C199.713 485.689 199.824 485.935 199.824 486.213V495.962C199.824 496.24 199.713 496.486 199.53 496.668C199.522 496.676 199.514 496.684 199.498 496.692C199.316 496.859 199.078 496.962 198.816 496.962H188.924C188.646 496.962 188.4 496.851 188.217 496.668C188.035 496.486 187.924 496.24 187.924 495.962V486.213C187.924 485.935 188.035 485.689 188.217 485.506C188.4 485.324 188.646 485.213 188.924 485.213Z" fill="#A44F3E"/>
<path fill-rule="evenodd" clip-rule="evenodd" d="M188.805 486.07C188.797 486.078 188.797 486.078 188.789 486.086C188.757 486.118 188.733 486.165 188.733 486.213V495.962C188.733 496.001 188.749 496.041 188.773 496.081C188.781 496.081 188.781 496.089 188.789 496.097C188.821 496.128 188.868 496.152 188.916 496.152H198.816C198.863 496.152 198.903 496.136 198.943 496.105C198.951 496.097 198.951 496.097 198.959 496.089C198.99 496.057 199.006 496.009 199.006 495.97V486.213C199.006 486.165 198.982 486.118 198.951 486.086C198.919 486.054 198.871 486.03 198.824 486.03H188.924C188.876 486.03 188.836 486.046 188.805 486.07Z" fill="#C8EFFE"/>
<path fill-rule="evenodd" clip-rule="evenodd" d="M209.39 498.447V489.738C209.39 487.904 207.89 486.404 206.056 486.404C204.222 486.404 202.721 487.904 202.721 489.738V498.455C204.936 498.447 207.167 498.447 209.39 498.447Z" fill="#C8EFFE"/>
<path fill-rule="evenodd" clip-rule="evenodd" d="M195.846 488.476C196.029 488.293 196.323 488.293 196.505 488.476C196.688 488.658 196.688 488.952 196.505 489.135L191.893 493.771C191.71 493.954 191.417 493.954 191.234 493.771C191.051 493.588 191.051 493.295 191.234 493.112L195.846 488.476Z" fill="white"/>
<path fill-rule="evenodd" clip-rule="evenodd" d="M192.726 488.404C192.917 488.229 193.21 488.237 193.385 488.42C193.56 488.602 193.552 488.904 193.369 489.079L191.996 490.389C191.805 490.563 191.512 490.555 191.337 490.373C191.162 490.19 191.17 489.889 191.353 489.714L192.726 488.404Z" fill="white"/>
<path d="M183.692 477.115H188.066C188.289 477.115 188.479 477.298 188.479 477.52V480.211C188.479 481.061 188.13 481.839 187.574 482.402C187.011 482.966 186.241 483.308 185.391 483.308H185.201C184.351 483.308 183.573 482.958 183.017 482.402C182.454 481.839 182.104 481.069 182.104 480.211V478.711C182.104 478.274 182.287 477.869 182.573 477.584C182.859 477.29 183.256 477.115 183.692 477.115Z" fill="#F6A96C"/>
<path d="M188.074 477.115H193.64C193.862 477.115 194.044 477.298 194.044 477.52V480.211C194.044 481.061 193.695 481.839 193.139 482.402C192.576 482.966 191.806 483.308 190.948 483.308H190.758C189.908 483.308 189.13 482.958 188.567 482.402C188.003 481.839 187.662 481.069 187.662 480.211V477.52C187.662 477.298 187.844 477.115 188.074 477.115Z" fill="#A44F3E"/>
<path d="M193.632 477.115H199.197C199.419 477.115 199.602 477.298 199.602 477.52V480.211C199.602 481.061 199.252 481.839 198.697 482.402C198.133 482.966 197.363 483.308 196.505 483.308H196.323C195.473 483.308 194.695 482.958 194.132 482.402C193.568 481.839 193.227 481.069 193.227 480.211V477.52C193.227 477.298 193.409 477.115 193.632 477.115Z" fill="#F6A96C"/>
<path d="M199.197 477.115H204.762C204.984 477.115 205.167 477.298 205.167 477.52V480.211C205.167 481.061 204.817 481.839 204.254 482.402C203.69 482.966 202.92 483.308 202.071 483.308H201.888C201.039 483.308 200.261 482.958 199.697 482.402C199.133 481.839 198.792 481.069 198.792 480.211V477.52C198.784 477.298 198.967 477.115 199.197 477.115Z" fill="#A44F3E"/>
<path d="M204.754 477.115H210.319C210.541 477.115 210.724 477.298 210.724 477.52V480.211C210.724 481.061 210.375 481.839 209.811 482.402C209.247 482.966 208.477 483.308 207.628 483.308H207.445C206.596 483.308 205.818 482.958 205.262 482.402C204.698 481.839 204.349 481.069 204.349 480.211V477.52C204.349 477.298 204.532 477.115 204.754 477.115Z" fill="#F6A96C"/>
<path d="M210.319 477.115H214.693C215.13 477.115 215.535 477.298 215.821 477.584C216.106 477.869 216.289 478.274 216.289 478.711V480.211C216.289 481.061 215.94 481.839 215.376 482.402C214.812 482.966 214.042 483.308 213.193 483.308H213.01C212.161 483.308 211.383 482.958 210.827 482.402C210.263 481.839 209.914 481.069 209.914 480.211V477.52C209.906 477.298 210.089 477.115 210.319 477.115Z" fill="#A44F3E"/>
<path d="M207.517 491.032C207.517 490.81 207.699 490.627 207.922 490.627C208.144 490.627 208.326 490.81 208.326 491.032V493.81C208.326 494.033 208.144 494.215 207.922 494.215C207.699 494.215 207.517 494.033 207.517 493.81V491.032Z" fill="#783A2D"/>
<path fill-rule="evenodd" clip-rule="evenodd" d="M195.219 471.86C195.37 471.693 195.624 471.677 195.791 471.828C195.958 471.979 195.974 472.233 195.823 472.399C195.608 472.638 195.354 472.82 195.069 472.947C194.783 473.074 194.473 473.146 194.156 473.146C193.536 473.146 192.973 472.892 192.56 472.487C192.155 472.082 191.901 471.518 191.901 470.891C191.901 470.264 192.155 469.708 192.56 469.295C192.965 468.891 193.528 468.636 194.156 468.636C194.433 468.636 194.703 468.684 194.957 468.787C195.211 468.883 195.45 469.025 195.656 469.208C195.823 469.359 195.839 469.613 195.688 469.788C195.537 469.954 195.283 469.97 195.108 469.819C194.973 469.7 194.822 469.613 194.664 469.549C194.505 469.486 194.33 469.454 194.156 469.454C193.759 469.454 193.401 469.613 193.139 469.875C192.877 470.137 192.719 470.494 192.719 470.891C192.719 471.288 192.877 471.645 193.139 471.907C193.401 472.169 193.759 472.328 194.156 472.328C194.362 472.328 194.56 472.288 194.743 472.209C194.918 472.13 195.084 472.01 195.219 471.86Z" fill="#FFE5C2"/>
<path fill-rule="evenodd" clip-rule="evenodd" d="M197.339 473.011C197.26 473.225 197.029 473.328 196.815 473.257C196.601 473.178 196.498 472.947 196.569 472.733L197.982 468.93C198.061 468.716 198.292 468.613 198.506 468.684C198.625 468.724 198.712 468.819 198.752 468.93L200.157 472.733C200.237 472.947 200.126 473.178 199.911 473.257C199.697 473.336 199.467 473.225 199.387 473.011L198.363 470.24L197.339 473.011Z" fill="#FFE5C2"/>
<path fill-rule="evenodd" clip-rule="evenodd" d="M197.474 471.876C197.252 471.876 197.069 471.693 197.069 471.463C197.069 471.241 197.252 471.05 197.474 471.05H199.244C199.467 471.05 199.649 471.233 199.649 471.463C199.649 471.685 199.467 471.876 199.244 471.876H197.474Z" fill="#FFE5C2"/>
<path fill-rule="evenodd" clip-rule="evenodd" d="M200.793 469.065C200.793 468.843 200.975 468.652 201.197 468.652C201.42 468.652 201.602 468.835 201.602 469.065V472.979C201.602 473.201 201.42 473.392 201.197 473.392C200.975 473.392 200.793 473.209 200.793 472.979V469.065Z" fill="#FFE5C2"/>
<path fill-rule="evenodd" clip-rule="evenodd" d="M201.197 469.478C200.975 469.478 200.793 469.295 200.793 469.065C200.793 468.843 200.975 468.652 201.197 468.652H202.888C203.111 468.652 203.293 468.835 203.293 469.065C203.293 469.287 203.111 469.478 202.888 469.478H201.197Z" fill="#FFE5C2"/>
<path fill-rule="evenodd" clip-rule="evenodd" d="M201.197 471.24C200.975 471.24 200.793 471.058 200.793 470.827C200.793 470.605 200.975 470.415 201.197 470.415H202.888C203.111 470.415 203.293 470.597 203.293 470.827C203.293 471.05 203.111 471.24 202.888 471.24H201.197Z" fill="#FFE5C2"/>
<path fill-rule="evenodd" clip-rule="evenodd" d="M203.904 469.065C203.904 468.843 204.087 468.652 204.309 468.652C204.532 468.652 204.714 468.835 204.714 469.065V472.979C204.714 473.201 204.532 473.392 204.309 473.392C204.087 473.392 203.904 473.209 203.904 472.979V469.065Z" fill="#FFE5C2"/>
<path fill-rule="evenodd" clip-rule="evenodd" d="M204.317 469.478C204.095 469.478 203.913 469.295 203.913 469.065C203.913 468.843 204.095 468.652 204.317 468.652H206C206.223 468.652 206.405 468.835 206.405 469.065C206.405 469.287 206.223 469.478 206 469.478H204.317Z" fill="#FFE5C2"/>
<path fill-rule="evenodd" clip-rule="evenodd" d="M204.317 473.392C204.095 473.392 203.913 473.209 203.913 472.979C203.913 472.757 204.095 472.566 204.317 472.566H206C206.223 472.566 206.405 472.749 206.405 472.979C206.405 473.201 206.223 473.392 206 473.392H204.317Z" fill="#FFE5C2"/>
<path fill-rule="evenodd" clip-rule="evenodd" d="M204.317 471.431C204.095 471.431 203.913 471.249 203.913 471.018C203.913 470.796 204.095 470.605 204.317 470.605H206C206.223 470.605 206.405 470.788 206.405 471.018C206.405 471.241 206.223 471.431 206 471.431H204.317Z" fill="#FFE5C2"/>
<path d="M214.288 501.376C214.725 501.376 215.13 501.202 215.44 500.9C215.749 500.59 215.916 500.185 215.916 499.749C215.916 499.312 215.741 498.907 215.44 498.598C215.13 498.288 214.725 498.121 214.288 498.121H184.105C183.668 498.121 183.263 498.296 182.954 498.598C182.644 498.907 182.478 499.312 182.478 499.749C182.478 500.185 182.652 500.59 182.954 500.9C183.256 501.21 183.668 501.376 184.105 501.376H214.288Z" fill="#F6A96C"/>
<rect x="51" y="128" width="65.8521" height="65.8521" rx="32.926" fill="white"/>
<rect x="51.5145" y="128.514" width="64.8232" height="64.8232" rx="32.4116" stroke="#0E0E0F" stroke-opacity="0.08" stroke-width="1.02894"/>
<g filter="url(#filter5_i_6610_10541)">
<rect x="55.1157" y="132.116" width="57.6206" height="57.6206" rx="28.8103" fill="#EEEEF0"/>
</g>
<path d="M80.3922 142.673L72.1952 165.664C72.1497 165.66 72.1057 165.65 72.0596 165.647C70.3052 165.532 68.6822 166.62 68.0205 168.355L65.9776 173.711C65.7305 174.35 65.6313 175.036 65.6873 175.718C65.7434 176.4 65.9533 177.061 66.3012 177.65C67.0057 178.844 68.1693 179.578 69.4923 179.665C71.2467 179.78 72.8699 178.692 73.5315 176.957L75.5746 171.601C75.8217 170.962 75.9209 170.276 75.8649 169.594C75.8088 168.912 75.5989 168.251 75.2509 167.662C75.1014 167.411 74.927 167.176 74.7306 166.96C75.3354 165.937 76.2205 165.109 77.2812 164.573L80.4558 154.539C81.68 150.675 81.6578 146.524 80.3922 142.673ZM73.3343 170.638L71.2913 175.994C71.022 176.7 70.3616 177.142 69.6481 177.096C69.3807 177.077 69.1222 176.992 68.8956 176.849C68.669 176.706 68.4813 176.509 68.3495 176.276C68.2081 176.036 68.1228 175.767 68.1 175.49C68.0773 175.212 68.1177 174.933 68.2181 174.674L70.2612 169.318C70.5304 168.612 71.1908 168.17 71.9043 168.216C72.1717 168.235 72.4302 168.319 72.6568 168.463C72.8834 168.606 73.071 168.803 73.2029 169.036C73.3444 169.276 73.4297 169.545 73.4525 169.822C73.4753 170.1 73.4348 170.379 73.3343 170.638Z" fill="#F7A116"/>
<path d="M86.0597 174.774C85.8005 172.463 83.7551 170.768 81.4091 170.84L75.0504 153.003L71.3671 142.673C70.1017 146.524 70.0794 150.675 71.3033 154.539L72.5999 158.636L74.4779 164.573C75.1396 164.907 75.7368 165.355 76.2418 165.897C76.7423 166.434 77.142 167.057 77.422 167.736L79.0073 171.592C78.3526 172.017 77.8232 172.608 77.4737 173.306C77.1243 174.003 76.9674 174.782 77.0193 175.56C77.1947 177.989 79.4777 179.881 81.9673 179.655C84.3285 179.44 86.0868 177.509 86.0868 175.259C86.0868 175.097 86.0778 174.935 86.0597 174.774ZM81.7592 177.137C80.6906 177.251 79.7305 176.499 79.6141 175.46C79.4977 174.42 80.268 173.484 81.3357 173.371C82.4035 173.258 83.3644 174.008 83.4816 175.048C83.5988 176.088 82.8269 177.023 81.7592 177.137Z" fill="#FFB531"/>
<path d="M86.0868 175.26C86.0868 177.509 84.3285 179.441 81.9673 179.655C79.4777 179.881 77.1947 177.989 77.0193 175.56C76.9674 174.782 77.1243 174.004 77.4737 173.306C77.8232 172.608 78.3526 172.017 79.0073 171.592L77.422 167.736C77.142 167.057 76.7423 166.434 76.2418 165.897C75.7368 165.355 75.1396 164.907 74.4779 164.573L72.5999 158.636C73.4372 156.897 74.2538 155.026 75.0504 153.003L81.4091 170.84C83.7551 170.769 85.8005 172.463 86.0597 174.774C86.0778 174.935 86.0868 175.097 86.0868 175.26Z" fill="#FFA912"/>
<path d="M75.2418 161.173H76.5177V162.449H75.2418V161.173Z" fill="#FFCB73"/>
<path d="M99.5511 162.501L92.4662 161.173V155.431H88.6386H84.8109V161.173L77.7261 162.501C76.8486 162.666 76.0563 163.132 75.4861 163.819C74.916 164.506 74.6039 165.371 74.6039 166.263V176.483H102.673V166.263C102.673 165.37 102.361 164.506 101.791 163.819C101.221 163.132 100.429 162.666 99.5511 162.501Z" fill="#FEC9A3"/>
<path d="M92.4662 159.897V155.431H84.8109V159.897C85.9575 160.618 87.2843 161 88.6386 161C89.9929 161 91.3196 160.618 92.4662 159.897Z" fill="#FEB784"/>
<path d="M102.673 166.263V177.121C102.673 177.798 102.404 178.447 101.926 178.926C101.447 179.404 100.798 179.673 100.122 179.673H77.1556C77.004 179.673 76.8527 179.66 76.7035 179.633H76.7027C76.114 179.527 75.5814 179.217 75.1978 178.758C74.8142 178.299 74.604 177.72 74.6039 177.121V166.264C74.6038 165.371 74.9158 164.506 75.4859 163.819C76.056 163.132 76.8483 162.666 77.7258 162.501L83.535 161.412L84.8109 161.173L88.6386 162.486L92.4662 161.173L96.2939 161.891L99.5514 162.501C99.6399 162.518 99.7268 162.537 99.8121 162.56C100.632 162.773 101.357 163.253 101.875 163.923C102.392 164.593 102.673 165.416 102.673 166.263Z" fill="#E0E0DE"/>
<path d="M86.0868 173.294V161.611L84.8109 161.173L83.535 161.412V173.294H86.0868Z" fill="#D6D6D4"/>
<path d="M102.673 166.263V177.121C102.673 177.798 102.404 178.447 101.926 178.926C101.447 179.404 100.798 179.673 100.122 179.673H77.1556C77.004 179.673 76.8527 179.66 76.7035 179.633C84.4011 178.176 96.2596 174.057 99.8121 162.56C100.632 162.773 101.357 163.253 101.875 163.923C102.392 164.593 102.673 165.416 102.673 166.263Z" fill="#D6D6D4"/>
<path d="M87.3627 162.486H89.9145V179.673H87.3627V162.486Z" fill="#3D4D63"/>
<path d="M87.3627 163.087V164.745L88.6386 163.724L89.9145 164.745V163.087L88.6386 162.486L87.3627 163.087Z" fill="#374559"/>
<path d="M98.8457 170.104L95.018 172.018L74.6039 173.294V177.122C74.6039 177.798 74.8727 178.447 75.3513 178.926C75.8298 179.405 76.4789 179.673 77.1556 179.673H80.3453L95.6431 176.394L99.4836 175.846H102.673V170.104H98.8457Z" fill="#FEB784"/>
<path d="M82.2592 172.018L78.4315 170.104H74.6039V175.846H77.7936L81.6341 176.394L82.2592 176.484L96.9318 179.673H100.122C100.798 179.673 101.447 179.405 101.926 178.926C102.404 178.447 102.673 177.798 102.673 177.122V173.294L82.2592 172.018Z" fill="#FEC9A3"/>
<path d="M94.6352 179.673H92.849C92.7475 179.673 92.6501 179.633 92.5783 179.561C92.5066 179.49 92.4662 179.392 92.4662 179.291V159.259C93.143 159.259 93.7921 159.528 94.2706 160.007C94.7492 160.485 95.018 161.134 95.018 161.811V179.291C95.018 179.392 94.9777 179.49 94.9059 179.561C94.8341 179.633 94.7368 179.673 94.6352 179.673Z" fill="#FFB531"/>
<path d="M92.4662 168.19V179.291C92.4662 179.392 92.5066 179.49 92.5783 179.561C92.6501 179.633 92.7475 179.673 92.849 179.673H94.6352C94.7368 179.673 94.8341 179.633 94.9059 179.561C94.9777 179.49 95.018 179.392 95.018 179.291V165.639L92.4662 168.19Z" fill="#FFA912"/>
<path d="M92.4662 178.397H95.018V179.29C95.018 179.392 94.9777 179.489 94.9059 179.561C94.8341 179.633 94.7368 179.673 94.6352 179.673H92.849C92.7475 179.673 92.6501 179.633 92.5783 179.561C92.5066 179.489 92.4662 179.392 92.4662 179.29V178.397Z" fill="#E0E0DE"/>
<path d="M84.8109 159.259V174.187C84.8109 174.237 84.801 174.287 84.7818 174.334C84.7626 174.38 84.7344 174.422 84.6988 174.458C84.6633 174.493 84.6211 174.522 84.5746 174.541C84.5282 174.56 84.4784 174.57 84.4282 174.57H82.6419C82.5917 174.57 82.5419 174.56 82.4955 174.541C82.449 174.522 82.4068 174.493 82.3713 174.458C82.3357 174.422 82.3075 174.38 82.2883 174.334C82.2691 174.287 82.2592 174.237 82.2592 174.187V161.811C82.2592 161.134 82.528 160.485 83.0066 160.007C83.4851 159.528 84.1342 159.259 84.8109 159.259Z" fill="#FFB531"/>
<path d="M82.2592 172.018V174.187C82.2592 174.237 82.2691 174.287 82.2883 174.334C82.3075 174.38 82.3357 174.422 82.3713 174.458C82.4068 174.493 82.449 174.521 82.4955 174.541C82.5419 174.56 82.5917 174.57 82.6419 174.57H84.4282C84.4784 174.57 84.5282 174.56 84.5746 174.541C84.6211 174.521 84.6633 174.493 84.6988 174.458C84.7344 174.422 84.7626 174.38 84.7818 174.334C84.801 174.287 84.8109 174.237 84.8109 174.187V169.466L82.2592 172.018Z" fill="#FFA912"/>
<path d="M82.2592 173.294H84.8109V174.187C84.8109 174.237 84.801 174.287 84.7818 174.333C84.7626 174.38 84.7344 174.422 84.6988 174.457C84.6633 174.493 84.6211 174.521 84.5746 174.54C84.5282 174.56 84.4784 174.57 84.4282 174.57H82.6419C82.5917 174.57 82.5419 174.56 82.4955 174.54C82.449 174.521 82.4068 174.493 82.3713 174.457C82.3357 174.422 82.3075 174.38 82.2883 174.333C82.2691 174.287 82.2592 174.237 82.2592 174.187V173.294Z" fill="#E0E0DE"/>
<path d="M82.8971 174.57H84.4282C84.4784 174.57 84.5282 174.56 84.5746 174.54C84.6211 174.521 84.6633 174.493 84.6988 174.457C84.7344 174.422 84.7626 174.38 84.7818 174.333C84.801 174.287 84.8109 174.237 84.8109 174.187V173.294H84.173L82.8971 174.57Z" fill="#D6D6D4"/>
<path d="M93.1042 179.673H94.6352C94.7368 179.673 94.8341 179.633 94.9059 179.561C94.9777 179.489 95.018 179.392 95.018 179.29V178.397H94.3801L93.1042 179.673Z" fill="#D6D6D4"/>
<path d="M83.535 174.57V175.413C83.535 175.528 83.5806 175.638 83.6618 175.719C83.7429 175.8 83.8529 175.845 83.9677 175.845H85.6542C85.7689 175.845 85.879 175.8 85.9601 175.719C86.0412 175.638 86.0868 175.528 86.0868 175.413V172.257L84.8109 172.177V174.187C84.8109 174.237 84.801 174.287 84.7818 174.333C84.7626 174.38 84.7344 174.422 84.6988 174.457C84.6633 174.493 84.6211 174.521 84.5746 174.54C84.5282 174.56 84.4784 174.57 84.4282 174.57H83.535Z" fill="#FEC093"/>
<path d="M95.0181 172.815V179.257L96.294 179.535V172.895L95.0181 172.815Z" fill="#FEC093"/>
<path d="M96.2939 161.891V170.742H95.018V161.651L96.2939 161.891Z" fill="#D6D6D4"/>
<path d="M88.5198 142.673L90.9131 145.862H92.4952L90.1019 142.673H88.5198Z" fill="#82462A"/>
<path d="M84.6392 142.673L87.1153 145.862H88.7177L86.2416 142.673H84.6392Z" fill="#82462A"/>
<path d="M94.3801 148.414V152.88C94.3801 154.402 93.7752 155.863 92.6984 156.94C91.6217 158.016 90.1613 158.621 88.6386 158.621C87.1159 158.621 85.6555 158.016 84.5788 156.94C83.502 155.863 82.8971 154.402 82.8971 152.88V148.414C82.8972 146.891 83.5022 145.431 84.5789 144.354C85.6556 143.278 87.1159 142.673 88.6386 142.673C88.7096 142.673 88.7813 142.674 88.8515 142.677C90.3363 142.732 91.7419 143.36 92.7729 144.43C93.8039 145.5 94.38 146.928 94.3801 148.414Z" fill="#FEC9A3"/>
<path d="M94.3801 148.414V152.88C94.3798 154.212 93.9162 155.504 93.0686 156.532C92.221 157.56 91.0423 158.262 89.7343 158.517C90.3984 157.865 90.9258 157.087 91.2854 156.228C91.6449 155.37 91.8295 154.448 91.8283 153.518V148.414C91.8275 147.289 91.5568 146.181 91.0388 145.183C90.5208 144.185 89.7707 143.325 88.8515 142.677C90.3363 142.732 91.7419 143.361 92.7729 144.431C93.8039 145.5 94.38 146.928 94.3801 148.414Z" fill="#FEC093"/>
<path d="M94.3801 149.052V154.384C94.3801 155.075 94.2399 155.759 93.9678 156.394L92.963 158.737C92.8156 159.081 92.5703 159.375 92.2576 159.581C91.9449 159.787 91.5785 159.897 91.2039 159.897H86.0733C85.6986 159.897 85.3322 159.787 85.0195 159.581C84.7068 159.375 84.4615 159.081 84.3141 158.737L83.3094 156.394C83.0373 155.759 82.8971 155.075 82.8971 154.384V149.052L85.2655 153.196C85.3212 153.294 85.4017 153.375 85.4989 153.431C85.5961 153.488 85.7065 153.518 85.8189 153.518H91.4583C91.5911 153.518 91.7206 153.476 91.8283 153.398C91.9037 153.345 91.9663 153.276 92.0117 153.196L94.3801 149.052Z" fill="#82462A"/>
<path d="M94.3801 149.052V154.384C94.3801 155.075 94.2399 155.759 93.9678 156.394L92.963 158.737C92.8156 159.081 92.5703 159.375 92.2576 159.581C91.9449 159.787 91.5785 159.897 91.2039 159.897H87.7375C88.9585 159.337 89.993 158.438 90.7181 157.307C91.4433 156.176 91.8286 154.861 91.8283 153.518V153.398C91.9037 153.345 91.9663 153.276 92.0117 153.196L94.3801 149.052Z" fill="#743B20"/>
<path d="M85.7678 150.966C86.2963 150.966 86.7248 150.537 86.7248 150.009C86.7248 149.48 86.2963 149.052 85.7678 149.052C85.2394 149.052 84.8109 149.48 84.8109 150.009C84.8109 150.537 85.2394 150.966 85.7678 150.966Z" fill="#7A432A"/>
<path d="M91.5093 150.966C92.0378 150.966 92.4662 150.537 92.4662 150.009C92.4662 149.48 92.0378 149.052 91.5093 149.052C90.9808 149.052 90.5524 149.48 90.5524 150.009C90.5524 150.537 90.9808 150.966 91.5093 150.966Z" fill="#7A432A"/>
<path d="M86.7732 151.996L88.0477 148.805L89.2332 149.278L87.9586 152.47L86.7732 151.996Z" fill="#F7A468"/>
<path d="M82.8971 150.328V147.776C82.8971 145.662 84.3252 143.948 86.0868 143.948L85.9746 144.353C85.3492 146.604 84.2956 148.65 82.8971 150.328Z" fill="#82462A"/>
<path d="M94.3801 150.328V145.941C94.3801 145.629 94.3089 145.321 94.1721 145.04C94.0352 144.76 93.8362 144.514 93.5902 144.322C93.3443 144.13 93.0577 143.997 92.7524 143.932C92.4471 143.867 92.1311 143.873 91.8283 143.949V145.862C91.8283 145.862 92.9816 148.65 94.3801 150.328Z" fill="#743B20"/>
<path d="M94.3801 145.417V145.862H86.0868C85.2409 145.862 84.4295 145.526 83.8314 144.928C83.2332 144.33 82.8971 143.519 82.8971 142.673H91.6353C91.9958 142.673 92.3527 142.744 92.6858 142.881C93.0188 143.019 93.3214 143.222 93.5763 143.476C93.8312 143.731 94.0333 144.034 94.1712 144.367C94.3092 144.7 94.3801 145.057 94.3801 145.417Z" fill="#82462A"/>
<path d="M94.3801 145.417V145.862H91.3498C90.8457 144.577 89.9747 143.467 88.8451 142.673H91.6353C91.9958 142.673 92.3527 142.744 92.6857 142.881C93.0188 143.019 93.3214 143.222 93.5763 143.476C93.8311 143.731 94.0333 144.034 94.1712 144.367C94.3092 144.7 94.3801 145.057 94.3801 145.417Z" fill="#743B20"/>
<path d="M87.9276 156.07H86.7248V154.794H87.9276C88.8123 154.794 89.6688 154.593 90.2765 154.243L90.9278 155.344C90.1162 155.812 89.0509 156.07 87.9276 156.07Z" fill="#FEC9A3"/>
<path d="M95.0057 149.052H94.3801V152.88H95.0057C95.257 152.881 95.5062 152.833 95.739 152.739C95.9718 152.644 96.1837 152.504 96.3626 152.328C96.5414 152.151 96.6838 151.941 96.7814 151.71C96.8791 151.478 96.9302 151.23 96.9318 150.978V150.954C96.9302 150.702 96.8791 150.454 96.7815 150.222C96.6838 149.991 96.5415 149.78 96.3626 149.604C96.1837 149.427 95.9718 149.288 95.739 149.193C95.5062 149.098 95.257 149.05 95.0057 149.052Z" fill="#FEB784"/>
<path d="M82.2661 149.052H82.2346C81.727 149.052 81.2402 149.254 80.8813 149.613C80.5224 149.971 80.3208 150.458 80.3208 150.966C80.3208 151.473 80.5224 151.96 80.8813 152.319C81.2402 152.678 81.727 152.88 82.2346 152.88H82.8971V149.052L82.2661 149.052Z" fill="#FEB784"/>
<path d="M92.4662 161.173L88.6386 162.486L91.5299 164.868L92.4662 161.173Z" fill="#EBEBE9"/>
<path d="M88.6386 162.486L84.8109 161.173L85.7472 164.868L88.6386 162.486Z" fill="#EBEBE9"/>
<rect x="275" y="66" width="65.8521" height="65.8521" rx="32.926" fill="white"/>
<rect x="275.514" y="66.5145" width="64.8232" height="64.8232" rx="32.4116" stroke="#0E0E0F" stroke-opacity="0.08" stroke-width="1.02894"/>
<g filter="url(#filter6_i_6610_10541)">
<rect x="279.116" y="70.116" width="57.6206" height="57.6206" rx="28.8103" fill="#EEEEF0"/>
</g>
<g clip-path="url(#clip3_6610_10541)">
<path d="M305.957 91.6268C305.768 91.3107 305.416 91.1292 305.048 91.1571L297.151 91.7672C296.351 91.829 295.639 92.2481 295.196 92.9171L291.882 97.9301C291.547 98.4374 291.493 99.0723 291.739 99.6285C291.985 100.185 292.491 100.572 293.092 100.665L299.496 101.657C299.546 101.665 299.595 101.669 299.645 101.669C299.973 101.669 300.283 101.502 300.464 101.22L305.942 92.6495C306.141 92.339 306.146 91.943 305.957 91.6268Z" fill="#E45A6E"/>
<path d="M315.719 101.389C315.403 101.2 315.007 101.205 314.697 101.404L306.126 106.882C305.801 107.09 305.63 107.469 305.689 107.85L306.681 114.254C306.774 114.855 307.162 115.361 307.718 115.607C307.949 115.709 308.194 115.759 308.438 115.759C308.78 115.759 309.12 115.66 309.416 115.464L314.429 112.15C315.098 111.707 315.517 110.995 315.579 110.195L316.189 102.298C316.217 101.93 316.036 101.578 315.719 101.389Z" fill="#D82E44"/>
<path d="M304.083 109.298C304.469 109.685 305.019 109.866 305.559 109.776C313.47 108.453 319.731 101.902 322.114 97.2941C324.761 92.1773 324.859 86.7702 324.721 84.2343C324.673 83.3653 323.981 82.6726 323.112 82.6252C320.576 82.4869 315.169 82.585 310.052 85.2316C305.444 87.615 298.893 93.8757 297.57 101.787C297.48 102.327 297.661 102.876 298.048 103.263L304.083 109.298Z" fill="#F1F1FB"/>
<path d="M324.224 83.1216L301.065 106.281L304.083 109.298C304.469 109.685 305.019 109.866 305.559 109.776C313.47 108.453 319.731 101.902 322.114 97.294C324.761 92.1773 324.859 86.7701 324.721 84.2342C324.697 83.7997 324.512 83.4093 324.224 83.1216Z" fill="#D7D6FB"/>
<path d="M314.311 97.8925C313.066 97.8926 311.822 97.4189 310.875 96.4715C309.957 95.5538 309.451 94.3334 309.451 93.0355C309.451 91.7375 309.957 90.5172 310.875 89.5994C312.769 87.7048 315.852 87.7048 317.747 89.5994C318.664 90.5172 319.17 91.7375 319.17 93.0355C319.17 94.3334 318.664 95.5538 317.747 96.4715C316.799 97.4187 315.555 97.8924 314.311 97.8925Z" fill="#466288"/>
<path d="M297.57 101.787C297.48 102.327 297.661 102.876 298.048 103.263L304.083 109.298C304.469 109.685 305.019 109.866 305.559 109.776C307.28 109.488 308.923 108.952 310.466 108.243L299.103 96.8804C298.394 98.4226 297.858 100.066 297.57 101.787Z" fill="#466288"/>
<path d="M292.578 109.924C292.827 109.924 293.076 109.829 293.265 109.639L296.438 106.466C296.818 106.087 296.818 105.472 296.438 105.092C296.059 104.712 295.443 104.712 295.064 105.092L291.891 108.265C291.511 108.645 291.511 109.26 291.891 109.639C292.081 109.829 292.329 109.924 292.578 109.924Z" fill="#FDB43A"/>
<path d="M299.346 108C298.967 107.62 298.351 107.62 297.972 108L291.871 114.1C291.492 114.48 291.492 115.095 291.871 115.475C292.061 115.664 292.31 115.759 292.559 115.759C292.807 115.759 293.056 115.664 293.246 115.475L299.346 109.374C299.726 108.995 299.726 108.379 299.346 108Z" fill="#FDB43A"/>
<path d="M302.254 110.908C301.875 110.528 301.259 110.528 300.88 110.908L297.707 114.081C297.327 114.46 297.327 115.076 297.707 115.455C297.896 115.645 298.145 115.74 298.394 115.74C298.642 115.74 298.891 115.645 299.081 115.455L302.254 112.282C302.634 111.903 302.634 111.287 302.254 110.908Z" fill="#F57A21"/>
<path d="M291.871 115.475C292.061 115.664 292.31 115.759 292.559 115.759C292.807 115.759 293.056 115.664 293.246 115.474L299.346 109.374C299.726 108.995 299.726 108.379 299.346 108L291.871 115.475Z" fill="#F57A21"/>
<path d="M301.065 106.281L304.083 109.298C304.469 109.685 305.019 109.866 305.559 109.776C307.28 109.488 308.923 108.952 310.466 108.243L304.784 102.562L301.065 106.281Z" fill="#354A67"/>
<path d="M310.874 96.4717C311.822 97.4191 313.066 97.8928 314.311 97.8927C315.555 97.8925 316.799 97.4189 317.746 96.4717C318.664 95.5539 319.17 94.3336 319.17 93.0356C319.17 91.7377 318.664 90.5174 317.746 89.5996L310.874 96.4717Z" fill="#354A67"/>
<path d="M314.311 90.1213C313.564 90.1213 312.817 90.4055 312.249 90.9739C311.698 91.5246 311.395 92.2567 311.395 93.0355C311.395 93.8143 311.698 94.5464 312.249 95.0971C313.386 96.2339 315.236 96.2339 316.372 95.0971C316.923 94.5464 317.226 93.8142 317.226 93.0354C317.226 92.2567 316.923 91.5245 316.372 90.9739C315.804 90.4055 315.057 90.1213 314.311 90.1213Z" fill="#4BBEFD"/>
<path d="M316.372 90.9739L312.249 95.0971C313.386 96.2339 315.235 96.2339 316.372 95.0971C316.923 94.5464 317.226 93.8142 317.226 93.0355C317.226 92.2567 316.923 91.5245 316.372 90.9739Z" fill="#0590FB"/>
</g>
<rect x="418" y="472" width="65.8521" height="65.8521" rx="32.926" fill="white"/>
<rect x="418.514" y="472.514" width="64.8232" height="64.8232" rx="32.4116" stroke="#0E0E0F" stroke-opacity="0.08" stroke-width="1.02894"/>
<g filter="url(#filter7_i_6610_10541)">
<rect x="422.116" y="476.116" width="57.6206" height="57.6206" rx="28.8103" fill="#EEEEF0"/>
</g>
<g clip-path="url(#clip4_6610_10541)">
<path d="M451.173 522.285C461.536 522.285 469.936 513.885 469.936 503.522C469.936 493.159 461.536 484.759 451.173 484.759C440.81 484.759 432.41 493.159 432.41 503.522C432.41 513.885 440.81 522.285 451.173 522.285Z" fill="#F7B239"/>
<path d="M451.173 515.872C457.994 515.872 463.523 510.343 463.523 503.522C463.523 496.701 457.994 491.172 451.173 491.172C444.352 491.172 438.823 496.701 438.823 503.522C438.823 510.343 444.352 515.872 451.173 515.872Z" fill="#E09B2D"/>
<path d="M468.055 523.497C468.093 523.641 468.112 523.785 468.112 523.927C468.112 524.661 467.622 525.331 466.881 525.53C465.996 525.767 465.085 525.241 464.848 524.356L462.059 513.947C461.822 513.062 462.348 512.152 463.233 511.914C464.119 511.677 465.028 512.203 465.266 513.089L468.055 523.497Z" fill="#F24C8F"/>
<path d="M437.035 514.15L438.462 514.532L442.226 500.481L440.8 500.099L437.035 514.15Z" fill="#CCCCCC"/>
<path d="M460.473 504.457L462.521 512.102L463.947 511.72L461.9 504.075L460.473 504.457Z" fill="#CCCCCC"/>
<path d="M444.192 490.299C446.551 490.931 447.625 494.572 446.592 498.429C445.558 502.287 443.224 503.349 440.864 502.717C438.505 502.085 437.015 499.998 438.048 496.14C439.082 492.282 441.833 489.667 444.192 490.299Z" fill="#E6E6E6"/>
<path d="M438.4 511.914C439.286 512.152 439.811 513.062 439.573 513.947L436.785 524.356C436.586 525.098 435.916 525.587 435.183 525.587C435.041 525.587 434.896 525.568 434.752 525.53C433.866 525.293 433.341 524.382 433.578 523.497L436.367 513.089C436.604 512.203 437.515 511.677 438.4 511.914Z" fill="#F24C8F"/>
<path d="M464.1 500.126L461.74 491.318C461.647 490.971 461.286 490.767 460.938 490.871C460.602 490.971 460.42 491.336 460.511 491.675L462.392 498.696C462.533 499.221 462.221 499.76 461.696 499.901L461.696 499.901C461.17 500.042 460.63 499.731 460.49 499.205L458.601 492.159C458.508 491.811 458.147 491.607 457.799 491.711C457.463 491.812 457.282 492.177 457.372 492.516L459.254 499.537C459.394 500.062 459.083 500.602 458.558 500.743C458.033 500.883 457.493 500.572 457.352 500.047L455.464 492.999C455.371 492.652 455.009 492.448 454.662 492.552C454.326 492.653 454.144 493.018 454.234 493.357L456.587 502.138C456.856 503.141 457.499 503.98 458.399 504.5C458.998 504.846 459.663 505.022 460.337 505.022C460.675 505.022 461.015 504.978 461.35 504.888C463.048 504.433 464.233 502.89 464.233 501.134C464.233 500.793 464.188 500.453 464.1 500.126Z" fill="#E6E6E6"/>
</g>
</g>
<defs>
<filter id="filter0_i_6610_10541" x="526.116" y="322.116" width="57.6206" height="57.6206" filterUnits="userSpaceOnUse" color-interpolation-filters="sRGB">
<feFlood flood-opacity="0" result="BackgroundImageFix"/>
<feBlend mode="normal" in="SourceGraphic" in2="BackgroundImageFix" result="shape"/>
<feColorMatrix in="SourceAlpha" type="matrix" values="0 0 0 0 0 0 0 0 0 0 0 0 0 0 0 0 0 0 127 0" result="hardAlpha"/>
<feMorphology radius="1.02894" operator="erode" in="SourceAlpha" result="effect1_innerShadow_6610_10541"/>
<feOffset/>
<feComposite in2="hardAlpha" operator="arithmetic" k2="-1" k3="1"/>
<feColorMatrix type="matrix" values="0 0 0 0 0 0 0 0 0 0 0 0 0 0 0 0 0 0 0.05 0"/>
<feBlend mode="normal" in2="shape" result="effect1_innerShadow_6610_10541"/>
</filter>
<filter id="filter1_i_6610_10541" x="362.116" y="344.116" width="57.6206" height="57.6206" filterUnits="userSpaceOnUse" color-interpolation-filters="sRGB">
<feFlood flood-opacity="0" result="BackgroundImageFix"/>
<feBlend mode="normal" in="SourceGraphic" in2="BackgroundImageFix" result="shape"/>
<feColorMatrix in="SourceAlpha" type="matrix" values="0 0 0 0 0 0 0 0 0 0 0 0 0 0 0 0 0 0 127 0" result="hardAlpha"/>
<feMorphology radius="1.02894" operator="erode" in="SourceAlpha" result="effect1_innerShadow_6610_10541"/>
<feOffset/>
<feComposite in2="hardAlpha" operator="arithmetic" k2="-1" k3="1"/>
<feColorMatrix type="matrix" values="0 0 0 0 0 0 0 0 0 0 0 0 0 0 0 0 0 0 0.05 0"/>
<feBlend mode="normal" in2="shape" result="effect1_innerShadow_6610_10541"/>
</filter>
<filter id="filter2_i_6610_10541" x="182.116" y="232.116" width="57.6206" height="57.6206" filterUnits="userSpaceOnUse" color-interpolation-filters="sRGB">
<feFlood flood-opacity="0" result="BackgroundImageFix"/>
<feBlend mode="normal" in="SourceGraphic" in2="BackgroundImageFix" result="shape"/>
<feColorMatrix in="SourceAlpha" type="matrix" values="0 0 0 0 0 0 0 0 0 0 0 0 0 0 0 0 0 0 127 0" result="hardAlpha"/>
<feMorphology radius="1.02894" operator="erode" in="SourceAlpha" result="effect1_innerShadow_6610_10541"/>
<feOffset/>
<feComposite in2="hardAlpha" operator="arithmetic" k2="-1" k3="1"/>
<feColorMatrix type="matrix" values="0 0 0 0 0 0 0 0 0 0 0 0 0 0 0 0 0 0 0.05 0"/>
<feBlend mode="normal" in2="shape" result="effect1_innerShadow_6610_10541"/>
</filter>
<filter id="filter3_i_6610_10541" x="464.116" y="141.116" width="57.6206" height="57.6206" filterUnits="userSpaceOnUse" color-interpolation-filters="sRGB">
<feFlood flood-opacity="0" result="BackgroundImageFix"/>
<feBlend mode="normal" in="SourceGraphic" in2="BackgroundImageFix" result="shape"/>
<feColorMatrix in="SourceAlpha" type="matrix" values="0 0 0 0 0 0 0 0 0 0 0 0 0 0 0 0 0 0 127 0" result="hardAlpha"/>
<feMorphology radius="1.02894" operator="erode" in="SourceAlpha" result="effect1_innerShadow_6610_10541"/>
<feOffset/>
<feComposite in2="hardAlpha" operator="arithmetic" k2="-1" k3="1"/>
<feColorMatrix type="matrix" values="0 0 0 0 0 0 0 0 0 0 0 0 0 0 0 0 0 0 0.05 0"/>
<feBlend mode="normal" in2="shape" result="effect1_innerShadow_6610_10541"/>
</filter>
<filter id="filter4_i_6610_10541" x="170.116" y="455.116" width="57.6206" height="57.6206" filterUnits="userSpaceOnUse" color-interpolation-filters="sRGB">
<feFlood flood-opacity="0" result="BackgroundImageFix"/>
<feBlend mode="normal" in="SourceGraphic" in2="BackgroundImageFix" result="shape"/>
<feColorMatrix in="SourceAlpha" type="matrix" values="0 0 0 0 0 0 0 0 0 0 0 0 0 0 0 0 0 0 127 0" result="hardAlpha"/>
<feMorphology radius="1.02894" operator="erode" in="SourceAlpha" result="effect1_innerShadow_6610_10541"/>
<feOffset/>
<feComposite in2="hardAlpha" operator="arithmetic" k2="-1" k3="1"/>
<feColorMatrix type="matrix" values="0 0 0 0 0 0 0 0 0 0 0 0 0 0 0 0 0 0 0.05 0"/>
<feBlend mode="normal" in2="shape" result="effect1_innerShadow_6610_10541"/>
</filter>
<filter id="filter5_i_6610_10541" x="55.1157" y="132.116" width="57.6206" height="57.6206" filterUnits="userSpaceOnUse" color-interpolation-filters="sRGB">
<feFlood flood-opacity="0" result="BackgroundImageFix"/>
<feBlend mode="normal" in="SourceGraphic" in2="BackgroundImageFix" result="shape"/>
<feColorMatrix in="SourceAlpha" type="matrix" values="0 0 0 0 0 0 0 0 0 0 0 0 0 0 0 0 0 0 127 0" result="hardAlpha"/>
<feMorphology radius="1.02894" operator="erode" in="SourceAlpha" result="effect1_innerShadow_6610_10541"/>
<feOffset/>
<feComposite in2="hardAlpha" operator="arithmetic" k2="-1" k3="1"/>
<feColorMatrix type="matrix" values="0 0 0 0 0 0 0 0 0 0 0 0 0 0 0 0 0 0 0.05 0"/>
<feBlend mode="normal" in2="shape" result="effect1_innerShadow_6610_10541"/>
</filter>
<filter id="filter6_i_6610_10541" x="279.116" y="70.116" width="57.6206" height="57.6206" filterUnits="userSpaceOnUse" color-interpolation-filters="sRGB">
<feFlood flood-opacity="0" result="BackgroundImageFix"/>
<feBlend mode="normal" in="SourceGraphic" in2="BackgroundImageFix" result="shape"/>
<feColorMatrix in="SourceAlpha" type="matrix" values="0 0 0 0 0 0 0 0 0 0 0 0 0 0 0 0 0 0 127 0" result="hardAlpha"/>
<feMorphology radius="1.02894" operator="erode" in="SourceAlpha" result="effect1_innerShadow_6610_10541"/>
<feOffset/>
<feComposite in2="hardAlpha" operator="arithmetic" k2="-1" k3="1"/>
<feColorMatrix type="matrix" values="0 0 0 0 0 0 0 0 0 0 0 0 0 0 0 0 0 0 0.05 0"/>
<feBlend mode="normal" in2="shape" result="effect1_innerShadow_6610_10541"/>
</filter>
<filter id="filter7_i_6610_10541" x="422.116" y="476.116" width="57.6206" height="57.6206" filterUnits="userSpaceOnUse" color-interpolation-filters="sRGB">
<feFlood flood-opacity="0" result="BackgroundImageFix"/>
<feBlend mode="normal" in="SourceGraphic" in2="BackgroundImageFix" result="shape"/>
<feColorMatrix in="SourceAlpha" type="matrix" values="0 0 0 0 0 0 0 0 0 0 0 0 0 0 0 0 0 0 127 0" result="hardAlpha"/>
<feMorphology radius="1.02894" operator="erode" in="SourceAlpha" result="effect1_innerShadow_6610_10541"/>
<feOffset/>
<feComposite in2="hardAlpha" operator="arithmetic" k2="-1" k3="1"/>
<feColorMatrix type="matrix" values="0 0 0 0 0 0 0 0 0 0 0 0 0 0 0 0 0 0 0.05 0"/>
<feBlend mode="normal" in2="shape" result="effect1_innerShadow_6610_10541"/>
</filter>
<clipPath id="clip0_6610_10541">
<rect width="643.548" height="643.548" fill="white" transform="translate(0.580643 0.677368)"/>
</clipPath>
<clipPath id="clip1_6610_10541">
<rect width="40.8283" height="40.8283" fill="white" transform="translate(370.759 352.759)"/>
</clipPath>
<clipPath id="clip2_6610_10541">
<rect width="40.8283" height="40.8283" fill="white" transform="translate(190.759 240.759)"/>
</clipPath>
<clipPath id="clip3_6610_10541">
<rect width="33.173" height="33.173" fill="white" transform="translate(291.587 82.5864)"/>
</clipPath>
<clipPath id="clip4_6610_10541">
<rect width="40.8283" height="40.8283" fill="white" transform="translate(430.759 484.759)"/>
</clipPath>
</defs>
</svg>
