<svg width="49" height="48" viewBox="0 0 49 48" fill="none" xmlns="http://www.w3.org/2000/svg">
<path d="M35.9354 16.2191C35.9628 22.3877 30.9565 27.6429 24.5105 27.6513C18.2219 27.6586 13.0602 22.5891 13.0651 16.2073C13.07 9.74225 18.3346 4.76042 24.5213 4.77365C30.8555 4.78688 35.9662 9.95785 35.9354 16.2191ZM24.952 11.7027C24.9319 13.5481 26.4789 15.0436 28.2919 15.0431C30.025 15.0431 31.6288 13.6436 31.6327 11.6978C31.6366 9.73392 30.0323 8.34428 28.3085 8.34085C26.5269 8.33742 24.9309 9.82212 24.952 11.7027Z" fill="#DB353A"/>
<path d="M46.6531 38.6036C46.6153 38.5909 46.6041 38.5992 46.5923 38.6188C46.3115 39.0951 45.871 39.3538 45.3502 39.4558C44.4285 39.6385 43.57 39.4616 42.8115 38.8972C42.1862 38.4317 41.8354 37.7893 41.7335 37.0239C41.6205 36.2498 41.742 35.4596 42.0823 34.7552C42.5787 33.7262 43.4019 33.1063 44.5118 32.8662C44.9615 32.7628 45.426 32.7396 45.8838 32.7976C47.026 32.9539 47.8031 33.5713 48.225 34.6371C48.3726 34.9976 48.4492 35.3833 48.4504 35.7729C48.4421 36.92 48.4911 38.0656 48.5112 39.2122C48.5207 39.6648 48.4435 40.1151 48.2838 40.5387C47.9163 41.5108 47.2396 42.1733 46.2552 42.5016C45.4622 42.7691 44.607 42.7913 43.8013 42.5653C43.5036 42.4873 43.2225 42.3559 42.9717 42.1777C42.5478 41.8729 42.3092 41.4736 42.3347 40.936C42.3435 40.7469 42.3347 40.5568 42.3371 40.3672C42.3371 40.3299 42.3455 40.2907 42.3837 40.2785C42.4017 40.2746 42.4205 40.2759 42.4378 40.2822C42.4552 40.2886 42.4704 40.2997 42.4817 40.3142C42.653 40.4756 42.8495 40.608 43.0633 40.7062C43.3583 40.8432 43.6705 40.9393 43.9914 40.9919C44.3186 41.0468 44.6509 41.0652 44.9822 41.0468C45.2534 41.038 45.5211 40.9826 45.7735 40.8831C46.2557 40.6871 46.5438 40.328 46.6447 39.8228C46.6989 39.5651 46.7118 39.3005 46.683 39.0388C46.6673 38.8932 46.6629 38.7438 46.6531 38.6036ZM46.6183 36.1536C46.6183 35.7097 46.5693 35.4333 46.4473 35.1629C46.2062 34.6204 45.7441 34.37 45.1664 34.3994C44.5887 34.4288 44.1374 34.716 43.8552 35.2271C43.6998 35.4981 43.6068 35.8004 43.5829 36.1118C43.559 36.4233 43.6048 36.7362 43.717 37.0278C43.9507 37.6648 44.55 38.1097 45.4109 37.9304C45.9499 37.8177 46.2929 37.4668 46.4855 36.9617C46.5796 36.7034 46.6247 36.4299 46.6183 36.1551V36.1536Z" fill="#686767"/>
<path d="M6.79837 33.3357C6.73075 33.3298 6.70037 33.2794 6.66264 33.2436C6.16578 32.7849 5.56945 32.5576 4.90697 32.4762C4.51231 32.4278 4.11317 32.4286 3.71872 32.4787C3.44847 32.5043 3.18488 32.5774 2.94011 32.6948C2.5388 32.9006 2.34378 33.2269 2.35701 33.6807C2.35834 33.7848 2.3822 33.8874 2.42694 33.9815C2.47168 34.0756 2.53625 34.1588 2.61622 34.2255C2.74078 34.3304 2.88055 34.4156 3.03076 34.4784C3.37163 34.6224 3.72491 34.7351 4.08622 34.815C4.39296 34.8885 4.70264 34.9522 5.00693 35.036C5.41839 35.145 5.8067 35.3276 6.15304 35.575C6.65088 35.9366 6.98604 36.4134 7.05954 37.0269C7.22467 38.3842 6.6842 39.6871 5.19117 40.233C4.51889 40.478 3.81917 40.5368 3.10965 40.4809C2.75792 40.4611 2.40991 40.3986 2.0733 40.2947C1.84069 40.2223 1.61935 40.1177 1.41571 39.984C0.948744 39.6665 0.705704 39.226 0.693944 38.661C0.688554 38.4082 0.693944 38.1554 0.693944 37.9025C0.693944 37.8462 0.740004 37.8222 0.783614 37.8535C0.841434 37.8966 0.895824 37.9447 0.952664 37.9888C1.81605 38.6591 2.79164 38.9198 3.87454 38.7933C4.10871 38.772 4.33859 38.717 4.55711 38.6302C4.79819 38.5282 4.99517 38.3754 5.10542 38.1323C5.23821 37.8383 5.24115 37.536 5.16765 37.2312C5.13041 37.0774 5.02065 36.9642 4.89619 36.8696C4.75653 36.7694 4.60345 36.6894 4.44147 36.6319C4.02633 36.4815 3.60046 36.3626 3.16747 36.2762C2.84003 36.2109 2.51787 36.1215 2.20364 36.0087C1.85444 35.8838 1.52915 35.7001 1.24176 35.4657C0.679244 34.9924 0.441104 34.3789 0.498924 33.663C0.603784 32.4032 1.30399 31.5722 2.43786 31.0797C2.83724 30.9084 3.26523 30.8135 3.69961 30.8C4.22391 30.7799 4.74674 30.7892 5.26075 30.9141C5.54304 30.9773 5.81393 31.0835 6.06386 31.2292C6.32456 31.3775 6.53768 31.5969 6.67832 31.8618C6.75843 32.0042 6.80549 32.1628 6.81601 32.3258C6.82434 32.6414 6.82679 32.9574 6.82924 33.2735C6.82924 33.2931 6.81111 33.3156 6.79837 33.3357Z" fill="#686767"/>
<path d="M16.1608 37.4227C15.8271 37.4227 15.4929 37.4227 15.1588 37.4227C15.0568 37.4227 15.0299 37.458 15.0515 37.5565C15.1047 37.8048 15.2181 38.0361 15.3817 38.2303C15.6787 38.5835 16.0648 38.7825 16.5087 38.8819C16.8752 38.9643 17.2437 38.9501 17.6141 38.9192C17.8933 38.8967 18.169 38.8425 18.4359 38.7575C18.7558 38.6586 19.0533 38.4979 19.3115 38.2846C19.3674 38.2356 19.4227 38.2621 19.4227 38.3312C19.4227 38.5929 19.4384 38.854 19.3953 39.1152C19.3684 39.2988 19.3034 39.4748 19.2046 39.6319C19.1058 39.789 18.9753 39.9238 18.8215 40.0276C18.5591 40.2058 18.2618 40.3262 17.9493 40.3809C17.3981 40.4887 16.8434 40.5342 16.2804 40.4602C14.9343 40.2843 13.6579 39.3131 13.2585 37.8245C13.1347 37.3617 13.0922 36.8809 13.1331 36.4035C13.1606 35.98 13.2414 35.5617 13.3737 35.1584C13.6417 34.3833 14.095 33.7477 14.7947 33.3038C15.2607 33.0098 15.7722 32.8525 16.3196 32.7908C16.8862 32.7186 17.4618 32.8007 17.9856 33.0284C18.8607 33.4145 19.4213 34.0716 19.6276 35.0124C19.7051 35.3384 19.7162 35.6767 19.6604 36.0071C19.5884 36.3991 19.3953 36.7117 19.0587 36.9313C18.8127 37.0838 18.5418 37.1921 18.2585 37.2512C17.8267 37.348 17.3863 37.4019 16.9438 37.412C16.6822 37.4198 16.4205 37.412 16.1598 37.412L16.1608 37.4227ZM15.9413 36.1203C16.3068 36.1164 16.7032 36.1203 17.0972 36.064C17.2851 36.0423 17.4692 35.9953 17.6445 35.9243C17.7424 35.8868 17.8261 35.8197 17.8841 35.7324C17.9422 35.6452 17.9716 35.542 17.9684 35.4373C17.9743 35.0183 17.8077 34.6493 17.3804 34.4573C16.9986 34.2855 16.5691 34.2509 16.1647 34.3593C15.6772 34.4857 15.3582 34.814 15.1602 35.2677C15.0647 35.4858 15.0372 35.7185 15.0167 35.9537C15.0039 36.0953 15.0191 36.1159 15.1544 36.1174C15.4062 36.1223 15.6586 36.1203 15.9413 36.1203Z" fill="#686767"/>
<path d="M40.5603 37.9004C40.5603 38.5864 40.5603 39.2724 40.5603 39.9584C40.5603 40.0128 40.5603 40.0672 40.5603 40.1211C40.5559 40.3254 40.5524 40.3298 40.3442 40.3318C40.1276 40.3318 39.9105 40.3396 39.6974 40.2892C39.2309 40.1789 38.9021 39.9168 38.763 39.4459C38.7213 39.3052 38.7267 39.1597 38.7267 39.0152C38.7267 38.1028 38.7267 37.1906 38.7267 36.2785C38.73 35.9982 38.6994 35.7185 38.6356 35.4455C38.5994 35.2961 38.5424 35.1526 38.466 35.0192C38.3324 34.7799 38.1168 34.597 37.8589 34.5042C37.5441 34.3836 37.1997 34.3635 36.873 34.4469C36.5895 34.5171 36.3431 34.6922 36.1836 34.9369C36.0431 35.1483 35.9534 35.3892 35.9214 35.641C35.8942 35.8378 35.8805 36.0362 35.8803 36.2349C35.8826 37.4998 35.8826 38.7643 35.8803 40.0285C35.8803 40.3597 35.9018 40.3318 35.5696 40.3318C35.3892 40.3386 35.2086 40.3268 35.0306 40.2965C34.4725 40.1828 34.1217 39.8065 34.0619 39.245C34.0522 39.1461 34.0476 39.0468 34.0482 38.9475C34.0482 37.9806 34.0482 37.0142 34.0482 36.0482C34.0482 35.6562 34.0849 35.272 34.2074 34.8992C34.5249 33.9334 35.1585 33.2728 36.1292 32.9578C36.8588 32.7211 37.5992 32.6873 38.343 32.9009C39.5107 33.2376 40.205 34.0206 40.4726 35.1956C40.5348 35.4973 40.564 35.8049 40.5598 36.1129C40.5627 36.7077 40.5603 37.3041 40.5603 37.9004Z" fill="#676767"/>
<path d="M8.32614 35.4564C8.32614 34.7062 8.32614 33.9565 8.32614 33.2068C8.32292 33.0624 8.33078 32.9179 8.34966 32.7746C8.44325 32.1724 8.79899 31.7427 9.28066 31.4056C9.51684 31.2409 9.79124 31.2444 10.0647 31.2664C10.0876 31.2678 10.1091 31.2782 10.1244 31.2954C10.1398 31.3125 10.1477 31.3351 10.1465 31.358C10.1499 31.4213 10.1499 31.4845 10.1499 31.5477C10.1499 31.9088 10.1499 32.2704 10.1499 32.6316C10.1499 32.6948 10.1499 32.758 10.1499 32.8212C10.1481 32.8347 10.1494 32.8485 10.1536 32.8615C10.1578 32.8745 10.1649 32.8865 10.1742 32.8964C10.1836 32.9063 10.1951 32.9141 10.2078 32.919C10.2206 32.924 10.2343 32.9261 10.2479 32.9251C10.3204 32.9251 10.3925 32.928 10.4645 32.928H12.3618C12.4162 32.928 12.4701 32.928 12.5245 32.928C12.7004 32.9319 12.7043 32.9349 12.7072 33.1137C12.7072 33.2676 12.7072 33.4209 12.7072 33.5743C12.7038 34.0966 12.3877 34.4646 11.8703 34.5396C11.7359 34.557 11.6006 34.5654 11.4651 34.5646C11.1309 34.568 10.7967 34.5646 10.4625 34.5646C10.3993 34.5646 10.3361 34.5646 10.2729 34.5646C10.1852 34.5695 10.1568 34.5955 10.1514 34.6753C10.1475 34.7292 10.1484 34.7836 10.1484 34.838C10.1484 35.6958 10.1484 36.554 10.1484 37.4125C10.1415 37.6203 10.1634 37.8281 10.2136 38.0299C10.34 38.4709 10.611 38.7159 11.0843 38.759C11.5905 38.8021 12.0957 38.7757 12.5695 38.5522C12.67 38.5032 12.7043 38.5262 12.7058 38.6316C12.7058 38.8276 12.7131 39.0295 12.7058 39.2274C12.6827 39.7047 12.4529 40.0447 12.0139 40.2412C11.8491 40.3161 11.6731 40.3635 11.493 40.3814C10.9863 40.4304 10.4821 40.4108 9.99067 40.2608C9.17041 40.0114 8.65542 39.4656 8.43688 38.6394C8.35937 38.3419 8.32115 38.0355 8.3232 37.728C8.3232 36.9695 8.3232 36.2108 8.3232 35.452L8.32614 35.4564Z" fill="#686868"/>
<path d="M25.7795 34.5121C25.7795 33.2479 25.7795 31.9841 25.7795 30.7205C25.7795 30.4608 25.7712 30.4711 26.0323 30.4721C26.1681 30.4721 26.3033 30.4721 26.4385 30.475C26.5923 30.4791 26.7442 30.5093 26.8879 30.5642C27.2578 30.6975 27.4793 30.9626 27.5739 31.3404C27.6088 31.4991 27.6242 31.6615 27.6199 31.824C27.6199 33.7918 27.6199 35.7597 27.6199 37.7275C27.6199 37.8539 27.6199 37.9809 27.6282 38.1063C27.6591 38.4865 27.8571 38.7242 28.2216 38.8217C28.3787 38.8639 28.5407 38.885 28.7033 38.8844C28.8841 38.8844 29.0644 38.8844 29.2452 38.8874C29.3055 38.8874 29.3526 38.9109 29.3545 38.9785C29.3614 39.2235 29.3717 39.4685 29.3055 39.7047C29.2727 39.8415 29.2057 39.9678 29.1108 40.0717C29.016 40.1756 28.8963 40.2538 28.7631 40.299C28.6369 40.3459 28.5051 40.3757 28.3711 40.3877C27.9655 40.4249 27.5565 40.3825 27.1672 40.2628C26.4248 40.0276 26.0024 39.5101 25.8442 38.7595C25.7998 38.5288 25.7798 38.2941 25.7844 38.0592C25.7814 36.877 25.7798 35.6947 25.7795 34.5121Z" fill="#686868"/>
<path d="M22.6166 37.9748C22.6166 38.6801 22.6166 39.3849 22.6166 40.0892C22.6166 40.3342 22.6136 40.3342 22.3809 40.3342C22.1481 40.3342 21.9109 40.3391 21.6797 40.2852C21.2637 40.1921 20.9525 39.9736 20.8202 39.5502C20.7779 39.4117 20.757 39.2677 20.758 39.1229C20.758 37.9846 20.7526 36.8464 20.7614 35.7081C20.7573 35.2275 20.8577 34.7517 21.0554 34.3136C21.4273 33.5149 22.0531 33.0543 22.9174 32.9107C23.2738 32.8446 23.6395 32.8461 23.9954 32.9151C24.1642 32.9478 24.3259 33.0098 24.4732 33.0984C24.6387 33.1935 24.7765 33.3303 24.8729 33.4952C24.9692 33.6601 25.0208 33.8472 25.0225 34.0382C25.0293 34.2185 25.0259 34.3993 25.0225 34.5801C25.0225 34.7114 24.9872 34.732 24.8534 34.6899C24.7931 34.6713 24.7343 34.6473 24.6741 34.6281C24.3284 34.5185 23.9629 34.4864 23.6034 34.5341C23.1908 34.5889 22.9061 34.8114 22.7533 35.198C22.6843 35.3655 22.6442 35.5434 22.6347 35.7243C22.6259 35.9315 22.6185 36.1393 22.618 36.3471C22.6151 36.8895 22.6166 37.4314 22.6166 37.9748Z" fill="#686868"/>
<path d="M30.0656 35.8298C30.0656 34.9981 30.0656 34.1669 30.0656 33.3362C30.0656 33.0956 30.0656 33.0951 30.2993 33.0912C30.516 33.082 30.7331 33.095 30.9471 33.1299C31.4322 33.2279 31.7311 33.515 31.8482 33.9918C31.8888 34.1685 31.9077 34.3495 31.9046 34.5308C31.9023 35.615 31.9023 36.6992 31.9046 37.7834C31.9046 37.9005 31.9017 38.0186 31.9129 38.1352C31.9477 38.4905 32.106 38.759 32.5367 38.8467C32.7326 38.8789 32.9312 38.8917 33.1296 38.8849C33.3712 38.8849 33.3702 38.8825 33.3687 39.123C33.3758 39.3217 33.3611 39.5205 33.3251 39.7159C33.2477 40.0589 33.0473 40.2731 32.7018 40.3529C32.5877 40.3797 32.4711 40.3948 32.3539 40.398C32.0647 40.4074 31.7756 40.3744 31.4959 40.3C30.8099 40.1119 30.3768 39.6669 30.1798 38.9898C30.1005 38.7113 30.0619 38.4228 30.0651 38.1332C30.0651 37.3654 30.0651 36.5976 30.0651 35.8303L30.0656 35.8298Z" fill="#686868"/>
<path d="M29.9027 31.3286C29.9034 31.0463 30.0158 30.7756 30.2154 30.5759C30.415 30.3762 30.6856 30.2637 30.968 30.2629C31.5619 30.2629 32.0715 30.7632 32.0528 31.3453C32.049 31.6286 31.9344 31.8992 31.7336 32.0991C31.5327 32.2991 31.2616 32.4124 30.9783 32.415C30.8358 32.416 30.6946 32.3885 30.563 32.3341C30.4313 32.2797 30.3119 32.1996 30.2117 32.0983C30.1115 31.9971 30.0325 31.8769 29.9794 31.7447C29.9264 31.6125 29.9003 31.471 29.9027 31.3286Z" fill="#686868"/>
<path d="M29.8661 42.8789C29.9191 42.8299 29.9641 42.7878 30.0131 42.7515C30.3263 42.5178 30.827 42.6437 30.8951 43.0843C30.9084 43.1461 30.9171 43.2088 30.9211 43.2719C30.9241 43.5336 30.9211 43.7957 30.9211 44.0559C30.9211 44.1103 30.9211 44.1711 30.8496 44.1823C30.818 44.1874 30.7857 44.1829 30.7568 44.1693C30.7279 44.1558 30.7037 44.1339 30.6874 44.1064C30.6615 44.0583 30.6508 44.0034 30.6565 43.9491C30.6565 43.7507 30.6565 43.5517 30.6565 43.3528C30.6595 43.2532 30.6419 43.1541 30.6046 43.0617C30.5502 42.9358 30.4546 42.8834 30.2973 42.8907C30.1503 42.8976 30.0465 42.9667 30.0156 43.0985C29.9951 43.1951 29.9847 43.2937 29.9847 43.3925C29.9803 43.6095 29.9847 43.8261 29.9847 44.0432C29.9847 44.0961 29.9906 44.1574 29.9264 44.1809C29.8866 44.1904 29.8446 44.1844 29.809 44.1641C29.7734 44.1438 29.7469 44.1108 29.7348 44.0716C29.7226 44.0098 29.7166 43.9469 29.7172 43.8839C29.7147 43.7213 29.7172 43.5586 29.7147 43.3939C29.714 43.3038 29.7038 43.2139 29.6844 43.1259C29.6693 43.0543 29.6288 42.9907 29.5702 42.9469C29.5117 42.9031 29.4392 42.882 29.3663 42.8878C29.213 42.8907 29.1253 42.9618 29.0723 43.12C29.0466 43.2158 29.0361 43.315 29.0415 43.414C29.0415 43.6399 29.0415 43.8658 29.0376 44.0917C29.0378 44.1073 29.0339 44.1226 29.0264 44.1363C29.0188 44.1499 29.0079 44.1614 28.9946 44.1695C28.9813 44.1776 28.9661 44.1821 28.9505 44.1825C28.9349 44.183 28.9195 44.1794 28.9057 44.1721C28.8038 44.1348 28.7764 44.053 28.7759 43.9574C28.7759 43.7222 28.7705 43.4875 28.7793 43.2528C28.7842 43.1627 28.805 43.0741 28.8406 42.9912C28.9018 42.8483 29.0162 42.7348 29.1597 42.6749C29.3031 42.615 29.4642 42.6133 29.6089 42.6702C29.7138 42.7168 29.7838 42.8001 29.8661 42.8789Z" fill="#706E6E"/>
<path d="M35.6438 43.1783C35.657 43.2273 35.7016 43.241 35.7359 43.266C36.0299 43.4777 35.9363 43.8898 35.7109 44.0633C35.6613 44.1023 35.6052 44.1323 35.5453 44.152C35.3106 44.2212 35.0616 44.2258 34.8245 44.1652C34.6696 44.1289 34.5839 44.0118 34.5653 43.8521C34.5609 43.8071 34.5593 43.762 34.5604 43.7168C34.5604 43.3194 34.5604 42.9221 34.5604 42.5247C34.5604 42.311 34.5628 42.3091 34.7804 42.2669C34.9939 42.2264 35.2128 42.2222 35.4277 42.2547C35.6908 42.2929 35.902 42.4776 35.8755 42.8005C35.8715 42.9007 35.8293 42.9956 35.7574 43.0656C35.7212 43.1024 35.6624 43.12 35.6438 43.1783ZM34.824 43.5703C34.824 43.6154 34.824 43.66 34.824 43.7051C34.823 43.723 34.823 43.741 34.824 43.759C34.8358 43.8702 34.8789 43.9334 34.9793 43.9515C35.138 43.9875 35.3035 43.9788 35.4576 43.9266C35.6046 43.8702 35.6629 43.759 35.6482 43.5796C35.6359 43.4326 35.5712 43.3503 35.4208 43.3214C35.3149 43.3023 35.2075 43.2925 35.0999 43.292C34.8113 43.2886 34.8225 43.2788 34.824 43.5713V43.5703ZM35.1268 43.0803C35.2253 43.0755 35.3235 43.0652 35.4208 43.0495C35.5443 43.0235 35.6104 42.927 35.6168 42.7932C35.6217 42.6516 35.5678 42.5624 35.4512 42.5149C35.3412 42.4765 35.2243 42.4616 35.1082 42.4713C34.8407 42.4796 34.8235 42.4962 34.824 42.7653C34.8211 43.0945 34.798 43.071 35.1268 43.0793V43.0803Z" fill="#737070"/>
<path d="M17.1377 43.2641C17.1304 43.3904 17.107 43.5152 17.0682 43.6355C16.9324 44.0104 16.635 44.2235 16.2469 44.2157C16.0651 44.215 15.8885 44.1546 15.7444 44.0437C15.6003 43.9329 15.4966 43.7777 15.4492 43.6022C15.3688 43.3416 15.3753 43.062 15.4678 42.8055C15.6065 42.411 15.9088 42.2145 16.3444 42.2346C16.7085 42.2513 16.9951 42.4889 17.0946 42.8643C17.13 42.9944 17.1446 43.1294 17.1377 43.2641ZM15.656 43.1965C15.652 43.3138 15.6686 43.4308 15.705 43.5424C15.7819 43.8193 15.9955 43.9746 16.2842 43.9736C16.5537 43.9736 16.7565 43.8149 16.8354 43.5444C16.8942 43.3361 16.8942 43.1156 16.8354 42.9074C16.7609 42.6242 16.5625 42.4718 16.265 42.4664C15.9843 42.4664 15.7829 42.6085 15.7015 42.878C15.6666 42.9804 15.6511 43.0884 15.656 43.1965Z" fill="#706E6E"/>
<path d="M20.2895 43.8457C20.336 44.0025 20.2689 44.0873 20.1547 44.1466C19.775 44.3426 19.2845 44.1603 19.1439 43.7595C19.0942 43.6276 19.076 43.486 19.0908 43.3458C19.1056 43.2057 19.153 43.071 19.2291 42.9524C19.3158 42.8072 19.456 42.7019 19.6196 42.6591C19.7832 42.6163 19.9571 42.6394 20.1038 42.7236C20.1956 42.7739 20.2697 42.8511 20.3163 42.9449C20.3628 43.0386 20.3794 43.1444 20.364 43.2479C20.36 43.2977 20.3425 43.3454 20.3134 43.386C20.2843 43.4266 20.2447 43.4585 20.1988 43.4782C20.0992 43.5224 19.9912 43.5445 19.8823 43.5429C19.7382 43.5429 19.5937 43.5429 19.4491 43.5488C19.4381 43.5495 19.4273 43.5527 19.4177 43.5582C19.4081 43.5637 19.3999 43.5714 19.3938 43.5806C19.3876 43.5897 19.3837 43.6002 19.3822 43.6112C19.3808 43.6222 19.3819 43.6333 19.3854 43.6438C19.4344 43.8315 19.5898 43.9545 19.8019 43.9711C19.9401 43.9819 20.0337 43.9584 20.2895 43.8457ZM19.7284 43.3292C19.7715 43.3263 19.8803 43.3248 19.9862 43.3087C20.0788 43.2944 20.1175 43.2234 20.1052 43.1293C20.1017 43.0794 20.0834 43.0316 20.0526 42.9921C20.0218 42.9527 19.9799 42.9233 19.9323 42.9078C19.7162 42.8353 19.456 42.9029 19.3795 43.1857C19.3541 43.2798 19.382 43.3248 19.4751 43.3288C19.5378 43.3317 19.6 43.3292 19.7284 43.3292Z" fill="#737070"/>
<path d="M32.4808 43.8265C32.5033 44.0382 32.4102 44.1308 32.2716 44.1724C31.7585 44.3248 31.366 44.0681 31.2793 43.6178C31.2329 43.3937 31.2745 43.1603 31.3954 42.9661C31.5689 42.6828 31.9011 42.5638 32.1932 42.6809C32.2833 42.7126 32.3634 42.7679 32.4249 42.8411C32.4864 42.9143 32.5272 43.0026 32.543 43.0969C32.5724 43.2571 32.5268 43.4561 32.2892 43.509C32.2191 43.5252 32.1478 43.5359 32.076 43.5408C31.9678 43.5467 31.859 43.5408 31.7512 43.5462C31.6909 43.5462 31.6115 43.5203 31.5777 43.5825C31.5341 43.6638 31.5875 43.7383 31.6395 43.8015C31.7605 43.9485 31.9222 43.9862 32.1025 43.9676C32.2373 43.9484 32.3663 43.9002 32.4808 43.8265ZM31.5498 43.3154C31.7451 43.3401 31.9428 43.3391 32.1378 43.3125C32.2779 43.2949 32.3269 43.1831 32.2632 43.0538C32.2461 43.0172 32.2214 42.9845 32.1909 42.958C32.1603 42.9315 32.1245 42.9117 32.0858 42.8999C31.8012 42.8093 31.5596 42.9915 31.5522 43.3159L31.5498 43.3154Z" fill="#737070"/>
<path d="M36.3008 43.0328C36.264 42.9255 36.3101 42.8446 36.388 42.7745C36.5913 42.5923 37.0103 42.5874 37.221 42.7647C37.2676 42.801 37.3061 42.8466 37.334 42.8987C37.3618 42.9508 37.3784 43.0081 37.3827 43.0671C37.393 43.3121 37.3969 43.5541 37.3827 43.7967C37.3795 43.8789 37.351 43.9581 37.3012 44.0236C37.2514 44.089 37.1827 44.1376 37.1044 44.1627C36.918 44.2376 36.7096 44.2362 36.5242 44.1588C36.3429 44.0833 36.2268 43.9549 36.2302 43.7482C36.2278 43.657 36.2544 43.5675 36.3062 43.4924C36.358 43.4174 36.4322 43.3608 36.5183 43.3307C36.5938 43.3017 36.6724 43.2816 36.7525 43.2709C36.8324 43.2587 36.9142 43.2601 36.9975 43.2542C37.1058 43.2464 37.1416 43.1999 37.12 43.0994C37.1125 43.0451 37.0864 42.9952 37.0462 42.9579C37.006 42.9207 36.9542 42.8985 36.8995 42.8951C36.7472 42.8677 36.5902 42.8913 36.4527 42.9622C36.4037 42.9872 36.3698 43.0367 36.3008 43.0328ZM36.9304 43.4826C36.7535 43.4826 36.6761 43.4992 36.5957 43.5541C36.5698 43.5717 36.548 43.5947 36.5321 43.6217C36.5161 43.6486 36.5062 43.6787 36.5032 43.7099C36.5002 43.7411 36.5042 43.7725 36.5147 43.802C36.5253 43.8315 36.5423 43.8583 36.5644 43.8805C36.6825 43.9853 36.8216 43.9951 36.9667 43.9491C37.1019 43.9059 37.1284 43.7952 37.1303 43.6717C37.1303 43.6453 37.1303 43.6183 37.1303 43.5914C37.1254 43.5105 37.1014 43.488 37.0118 43.4831C36.9843 43.4816 36.9574 43.4826 36.9304 43.4826Z" fill="#737070"/>
<path d="M39.671 43.245C39.769 43.2342 39.7911 43.1803 39.8269 43.1426C39.9381 43.025 40.0479 42.905 40.1586 42.7869C40.2046 42.7329 40.2661 42.6945 40.3349 42.6769C40.4036 42.6594 40.476 42.6635 40.5423 42.6889C40.5423 42.7516 40.4933 42.7702 40.4648 42.8006C40.333 42.9363 40.1968 43.0681 40.0679 43.2063C39.9023 43.3837 39.9023 43.3533 40.0616 43.5572C40.2056 43.7419 40.3487 43.9276 40.5491 44.0579C40.5869 44.0824 40.5712 44.1505 40.5276 44.1687C40.4827 44.1909 40.4322 44.1989 40.3827 44.1919C40.3332 44.1848 40.287 44.1629 40.2502 44.129C40.1774 44.0619 40.109 43.9903 40.0454 43.9144C39.9513 43.8051 39.8621 43.6914 39.771 43.5797C39.764 43.5686 39.7535 43.5602 39.7411 43.556C39.7286 43.5518 39.7152 43.5521 39.7029 43.5567C39.6676 43.5689 39.6735 43.5998 39.673 43.6243C39.6696 43.7865 39.6701 43.9487 39.6652 44.1109C39.664 44.1242 39.6596 44.1371 39.6523 44.1483C39.6451 44.1596 39.6352 44.1689 39.6235 44.1755C39.6118 44.1821 39.5987 44.1857 39.5853 44.186C39.5719 44.1864 39.5586 44.1834 39.5466 44.1775C39.5203 44.1708 39.4962 44.1572 39.4771 44.1379C39.4579 44.1187 39.4443 44.0946 39.4378 44.0682C39.4269 44.0153 39.4212 43.9615 39.4207 43.9075C39.4207 43.376 39.4207 42.844 39.4207 42.3116C39.4207 42.2939 39.4207 42.2758 39.4207 42.2577C39.4236 42.2023 39.427 42.145 39.5 42.1406C39.5317 42.1363 39.5639 42.1429 39.5912 42.1594C39.6186 42.1759 39.6395 42.2012 39.6505 42.2312C39.6656 42.2829 39.6723 42.3367 39.6701 42.3905C39.6701 42.5889 39.6701 42.7874 39.6701 42.9858L39.671 43.245Z" fill="#706E6E"/>
<path d="M11.7938 43.4288C11.797 43.5416 11.778 43.654 11.7379 43.7596C11.6448 44.0188 11.4714 44.1824 11.1857 44.2089C10.9 44.2353 10.633 44.1084 10.509 43.8551C10.4356 43.714 10.3999 43.5564 10.4055 43.3974C10.4111 43.2385 10.4577 43.0837 10.5409 42.9481C10.6693 42.7247 10.8839 42.6291 11.1343 42.6394C11.2578 42.6394 11.3785 42.6756 11.4816 42.7437C11.5846 42.8117 11.6654 42.9085 11.7139 43.0221C11.7725 43.1494 11.7999 43.2888 11.7938 43.4288ZM11.5268 43.442C11.5351 43.3204 11.5086 43.1988 11.4503 43.0917C11.3107 42.8388 10.9309 42.8178 10.7702 43.0525C10.6296 43.2568 10.6433 43.6248 10.8006 43.8149C10.8459 43.8714 10.9055 43.9148 10.9732 43.9406C11.0409 43.9664 11.1142 43.9738 11.1857 43.9619C11.343 43.9418 11.44 43.8424 11.4915 43.6929C11.5176 43.6119 11.5295 43.5271 11.5268 43.442Z" fill="#706E6E"/>
<path d="M28.4324 43.4141C28.4346 43.5381 28.4123 43.6613 28.3667 43.7767C28.2736 44.0256 28.1007 44.18 27.8277 44.2059C27.5548 44.2319 27.3309 44.1373 27.1756 43.9061C26.9869 43.6238 27.008 43.1515 27.2167 42.8839C27.5058 42.5135 28.1173 42.5703 28.3359 42.9878C28.4002 43.1207 28.4332 43.2665 28.4324 43.4141ZM28.1663 43.4479C28.1716 43.317 28.1404 43.1872 28.0762 43.0731C27.9292 42.8374 27.569 42.8222 27.4108 43.0456C27.2667 43.249 27.2765 43.6174 27.4323 43.8085C27.6151 44.032 28.0105 44.0393 28.1257 43.6988C28.1539 43.6189 28.1677 43.5346 28.1663 43.4499V43.4479Z" fill="#706E6E"/>
<path d="M12.1419 43.1615C12.1419 43.0351 12.1419 42.9092 12.1419 42.7828C12.1419 42.7338 12.1522 42.6897 12.2041 42.6764C12.2261 42.6707 12.2491 42.6701 12.2713 42.6746C12.2936 42.6791 12.3145 42.6886 12.3325 42.7024C12.3507 42.7157 12.3659 42.7327 12.377 42.7523C12.3882 42.7719 12.3951 42.7936 12.3972 42.8161C12.4036 42.8788 12.407 42.9415 12.4075 43.0047C12.4075 43.1488 12.4046 43.2933 12.4099 43.4374C12.4107 43.5273 12.4222 43.6168 12.4442 43.704C12.4559 43.7501 12.477 43.7934 12.5061 43.8311C12.5352 43.8688 12.5718 43.9001 12.6135 43.9231C12.6552 43.9461 12.7012 43.9602 12.7486 43.9647C12.7961 43.9691 12.8439 43.9638 12.8892 43.949C12.9381 43.9378 12.983 43.9138 13.0194 43.8793C13.0558 43.8448 13.0822 43.8012 13.0959 43.753C13.1231 43.6574 13.1356 43.5583 13.1332 43.459C13.1332 43.2336 13.1332 43.0082 13.1332 42.7828C13.1332 42.7377 13.1332 42.6887 13.1915 42.6764C13.2134 42.6703 13.2364 42.6696 13.2587 42.6742C13.2809 42.6788 13.3017 42.6886 13.3194 42.7029C13.3459 42.7267 13.3661 42.7566 13.3782 42.7901C13.3921 42.8328 13.3992 42.8775 13.3993 42.9224C13.3993 43.139 13.3993 43.3551 13.3993 43.5717C13.3978 43.6076 13.3938 43.6435 13.3875 43.679C13.3213 44.1092 12.9269 44.3356 12.5212 44.1739C12.4363 44.1416 12.3606 44.089 12.3008 44.0206C12.241 43.9523 12.1989 43.8703 12.1782 43.7819C12.155 43.6854 12.1414 43.587 12.1375 43.4879C12.1306 43.3801 12.1375 43.2718 12.1375 43.1635L12.1419 43.1615Z" fill="#737070"/>
<path d="M22.7234 42.6423C22.6651 42.6423 22.6332 42.5903 22.5881 42.5653C22.4965 42.5112 22.3933 42.4795 22.2871 42.4729C22.1809 42.4663 22.0746 42.4849 21.977 42.5273C21.8793 42.5696 21.7931 42.6345 21.7253 42.7166C21.6575 42.7986 21.6102 42.8956 21.5871 42.9995C21.5415 43.1947 21.5631 43.3996 21.6483 43.5811C21.7855 43.8942 22.13 44.0383 22.4632 43.9373C22.5396 43.9102 22.6123 43.8733 22.6793 43.8276C22.6862 43.824 22.694 43.8221 22.7018 43.8221C22.7097 43.8221 22.7174 43.824 22.7244 43.8276C22.73 43.8344 22.7341 43.8422 22.7367 43.8506C22.7392 43.859 22.74 43.8678 22.7391 43.8766C22.7341 43.9263 22.7175 43.9741 22.6906 44.0162C22.6637 44.0582 22.6273 44.0933 22.5842 44.1186C22.5234 44.1578 22.4555 44.1846 22.3843 44.1975C22.2104 44.2336 22.0297 44.2158 21.8661 44.1467C21.7025 44.0775 21.5638 43.9603 21.4685 43.8104C21.2421 43.4424 21.2328 43.0593 21.442 42.679C21.6091 42.3757 21.9433 42.1763 22.3867 42.2424C22.4638 42.2503 22.5372 42.2797 22.5983 42.3273C22.6595 42.3748 22.7061 42.4387 22.7327 42.5114C22.7426 42.5322 22.7469 42.5551 22.7453 42.5781C22.7437 42.601 22.7361 42.6231 22.7234 42.6423Z" fill="#737070"/>
<path d="M39.0309 43.6623C39.0309 43.7975 39.0309 43.9328 39.0309 44.068C39.0309 44.1224 39.0275 44.1797 38.9525 44.1856C38.9211 44.1918 38.8885 44.1871 38.8601 44.1723C38.8317 44.1575 38.8092 44.1335 38.7962 44.1043C38.7783 44.0535 38.7697 43.9998 38.7707 43.946C38.7673 43.7657 38.7707 43.5853 38.7678 43.407C38.7678 43.3168 38.7601 43.2268 38.7448 43.138C38.7154 42.991 38.6154 42.9116 38.4596 42.893C38.2773 42.8739 38.1597 42.9268 38.0921 43.0576C38.0522 43.1389 38.0334 43.2288 38.0372 43.3193C38.0372 43.5359 38.0372 43.7524 38.0372 43.969C38.0382 44.0231 38.0353 44.0771 38.0284 44.1307C38.0215 44.1704 37.9858 44.1836 37.947 44.1846C37.9152 44.1864 37.8837 44.1778 37.8572 44.1602C37.8307 44.1425 37.8106 44.1167 37.8 44.0866C37.7847 44.0446 37.777 44.0001 37.7775 43.9553C37.7755 43.7299 37.7755 43.5045 37.7775 43.2791C37.7811 43.1697 37.8116 43.0629 37.8663 42.9682C37.9211 42.8734 37.9983 42.7936 38.0913 42.7359C38.1843 42.6782 38.2901 42.6443 38.3993 42.6372C38.5085 42.6302 38.6177 42.6502 38.7173 42.6955C38.7999 42.7333 38.8708 42.7927 38.9226 42.8673C38.9743 42.942 39.005 43.0292 39.0113 43.1198C39.0314 43.2982 39.0314 43.4795 39.0402 43.6588L39.0309 43.6623Z" fill="#706E6E"/>
<path d="M23.0174 43.1853C23.0174 43.0412 23.0174 42.8972 23.0174 42.7531C23.0174 42.6933 23.0698 42.6634 23.1301 42.6752C23.1662 42.6807 23.1993 42.6982 23.2242 42.7249C23.2491 42.7515 23.2643 42.7858 23.2673 42.8222C23.275 42.8936 23.2783 42.9655 23.2771 43.0373C23.2805 43.2264 23.2746 43.4161 23.2869 43.6047C23.2972 43.7699 23.378 43.8953 23.5456 43.9477C23.5881 43.9635 23.6334 43.9702 23.6786 43.9673C23.7238 43.9644 23.7678 43.952 23.8079 43.931C23.8481 43.91 23.8833 43.8808 23.9114 43.8452C23.9395 43.8097 23.9597 43.7687 23.9709 43.7248C23.9896 43.646 23.998 43.5651 23.9959 43.4842C23.9994 43.2593 23.9959 43.0339 23.9989 42.8085C23.9989 42.7565 23.9915 42.6953 24.0626 42.6781C24.0978 42.6699 24.1349 42.6743 24.1672 42.6906C24.1995 42.7069 24.2251 42.7341 24.2395 42.7673C24.2512 42.7916 24.2582 42.8178 24.26 42.8447C24.26 43.1152 24.2742 43.3837 24.2556 43.6552C24.2306 44.009 24.0013 44.2089 23.6495 44.2162C23.3109 44.2231 23.0615 44.0153 23.0243 43.6714C23.0138 43.5095 23.0126 43.3472 23.0208 43.1853H23.0174Z" fill="#737070"/>
<path d="M18.7338 43.6326C18.7338 43.7953 18.7368 43.9575 18.7338 44.1196C18.7338 44.175 18.6848 44.1912 18.6358 44.1853C18.5491 44.175 18.4981 44.1334 18.4854 44.0555C18.4781 44.0019 18.475 43.9478 18.4761 43.8938C18.4761 43.7316 18.4761 43.5689 18.4761 43.4062C18.4776 43.3431 18.476 43.28 18.4712 43.2171C18.4423 42.9422 18.1796 42.8011 17.9322 42.9275C17.8875 42.9498 17.849 42.9829 17.8203 43.0238C17.7915 43.0647 17.7734 43.1121 17.7676 43.1617C17.757 43.2429 17.7524 43.3248 17.7538 43.4067C17.7538 43.6233 17.7538 43.8399 17.7538 44.0564C17.7538 44.1098 17.7538 44.1696 17.6857 44.1853C17.6502 44.1931 17.6131 44.188 17.5809 44.1711C17.5487 44.1541 17.5235 44.1264 17.5098 44.0927C17.4983 44.0587 17.492 44.0232 17.4912 43.9873C17.4912 43.7423 17.4824 43.4974 17.4912 43.2563C17.5172 42.6795 18.0493 42.5463 18.4011 42.6869C18.6187 42.7736 18.7128 42.9554 18.7324 43.1769C18.7456 43.3288 18.7348 43.4831 18.7348 43.6365L18.7338 43.6326Z" fill="#747373"/>
<path d="M24.6472 43.8251C24.7508 43.8819 24.8611 43.9257 24.9755 43.9554C25.0814 43.9802 25.1923 43.9727 25.294 43.9338C25.3284 43.9223 25.3583 43.9004 25.3797 43.871C25.401 43.8417 25.4127 43.8065 25.413 43.7702C25.4193 43.7341 25.413 43.6969 25.3951 43.6649C25.3773 43.6329 25.349 43.608 25.315 43.5943C25.2234 43.5585 25.1279 43.532 25.0338 43.5022C24.955 43.4835 24.8777 43.4591 24.8025 43.4291C24.629 43.3449 24.5693 43.1841 24.63 42.9979C24.6514 42.9288 24.6888 42.8656 24.7393 42.8137C24.9186 42.6309 25.2695 42.578 25.4934 42.7039C25.5395 42.7318 25.5805 42.7675 25.6144 42.8093C25.6634 42.8661 25.6664 42.9612 25.6306 42.9818C25.5816 43.0107 25.5463 42.971 25.5086 42.9534C25.3845 42.8972 25.2469 42.8778 25.1122 42.8975C25.0487 42.9042 24.9889 42.9306 24.9412 42.973C24.9221 42.9882 24.9071 43.008 24.8976 43.0305C24.8881 43.053 24.8843 43.0775 24.8866 43.1018C24.889 43.1261 24.8973 43.1495 24.911 43.1698C24.9246 43.19 24.9431 43.2066 24.9647 43.218C25.0221 43.2433 25.0814 43.2641 25.1421 43.2802C25.2445 43.3135 25.3503 43.339 25.4498 43.3782C25.7786 43.512 25.7232 43.9211 25.5404 44.074C25.3577 44.2269 24.9789 44.2612 24.7746 44.1298C24.744 44.1109 24.7168 44.0869 24.6942 44.0588C24.6722 44.0297 24.6567 43.9963 24.6486 43.9608C24.6441 43.9157 24.6436 43.8703 24.6472 43.8251Z" fill="#737070"/>
<path d="M10.2224 42.3694C10.2087 42.4481 10.1794 42.5232 10.1361 42.5904C10.0195 42.8136 9.8844 43.0266 9.73236 43.2274C9.65314 43.3257 9.6141 43.4503 9.62309 43.5763C9.62995 43.7385 9.62309 43.9007 9.62309 44.0633C9.62309 44.1177 9.6177 44.176 9.54518 44.1834C9.50926 44.1896 9.47229 44.1833 9.44051 44.1655C9.40872 44.1476 9.38408 44.1193 9.37074 44.0854C9.36026 44.0417 9.35516 43.997 9.35555 43.9521C9.35555 43.8169 9.34967 43.6816 9.35555 43.5464C9.35989 43.4384 9.32664 43.3322 9.26147 43.246C9.08477 42.9954 8.93436 42.7273 8.81263 42.4458C8.79254 42.4056 8.77725 42.3632 8.76706 42.3194C8.76527 42.3106 8.7655 42.3015 8.76774 42.2929C8.76997 42.2842 8.77414 42.2761 8.77995 42.2693C8.78575 42.2624 8.79303 42.257 8.80123 42.2534C8.80944 42.2497 8.81836 42.248 8.82733 42.2484C8.87229 42.241 8.91844 42.248 8.95912 42.2686C8.99981 42.2891 9.03293 42.322 9.05371 42.3625C9.10271 42.4493 9.13799 42.5419 9.1865 42.6281C9.2698 42.7776 9.35702 42.9251 9.44669 43.0691C9.48442 43.1304 9.52901 43.1274 9.57213 43.0657C9.70397 42.8718 9.82061 42.668 9.92101 42.4561C9.94657 42.3987 9.97503 42.3426 10.0063 42.2881C10.0411 42.2337 10.0979 42.2391 10.1533 42.2567C10.1759 42.2648 10.1951 42.2804 10.2077 42.3009C10.2203 42.3214 10.2254 42.3455 10.2224 42.3694Z" fill="#747373"/>
<path d="M26.3009 42.3815C26.3602 42.4668 26.2685 42.602 26.3744 42.652C26.4494 42.6878 26.5508 42.6667 26.6405 42.6706C26.6674 42.6706 26.6944 42.6706 26.7213 42.6706C26.7762 42.6706 26.8369 42.6706 26.8389 42.7471C26.8433 42.7793 26.8358 42.812 26.8178 42.8391C26.7997 42.8662 26.7724 42.8857 26.7409 42.8941C26.6795 42.9073 26.6173 42.9161 26.5547 42.9205C26.5101 42.9249 26.4645 42.9205 26.4195 42.9264C26.3744 42.9323 26.3322 42.9563 26.3318 43.0082C26.3318 43.2532 26.3229 43.4953 26.3352 43.7378C26.342 43.8848 26.4386 43.9613 26.5866 43.9662C26.6314 43.9644 26.676 43.96 26.7203 43.9529C26.7972 43.9461 26.8335 43.9921 26.8139 44.0637C26.8061 44.0944 26.7905 44.1225 26.7684 44.1453C26.7464 44.1681 26.7189 44.1847 26.6885 44.1935C26.4004 44.2915 26.1313 44.1387 26.073 43.8427C26.0648 43.7984 26.0607 43.7535 26.0608 43.7084C26.0608 43.3841 26.0608 43.0597 26.0608 42.7348C26.054 42.6349 26.0838 42.536 26.1446 42.4565C26.1848 42.4075 26.2298 42.3604 26.3009 42.3815Z" fill="#737070"/>
<path d="M32.9081 43.5968C32.9081 43.4797 32.9027 43.3626 32.9081 43.246C32.9115 43.1284 32.9421 43.0132 32.9972 42.9094C33.05 42.8137 33.1344 42.7395 33.2361 42.6994C33.3377 42.6594 33.4501 42.656 33.5539 42.6898C33.5976 42.7026 33.6354 42.7304 33.6606 42.7683C33.6858 42.8063 33.6968 42.8519 33.6916 42.8971C33.6916 42.9324 33.6759 42.9677 33.6249 42.9569C33.5728 42.9431 33.5198 42.9333 33.4662 42.9275C33.3079 42.9182 33.2275 42.9765 33.1972 43.1289C33.1817 43.2174 33.1739 43.3071 33.1741 43.3969C33.1712 43.6223 33.1741 43.8472 33.1741 44.0726C33.1741 44.1177 33.1702 44.1647 33.1197 44.1843C33.0891 44.1922 33.0569 44.1911 33.0269 44.1811C32.9969 44.1711 32.9704 44.1527 32.9507 44.128C32.9202 44.0829 32.9045 44.0295 32.9056 43.9751C32.9056 43.8487 32.9056 43.7228 32.9056 43.5968H32.9081Z" fill="#747373"/>
<path d="M13.8044 43.5925C13.8044 43.4754 13.8044 43.3583 13.8044 43.2416C13.8049 43.1146 13.8412 42.9902 13.9093 42.883C13.9621 42.798 14.0412 42.7326 14.1346 42.6967C14.228 42.6608 14.3306 42.6563 14.4267 42.684C14.4579 42.6899 14.4871 42.7033 14.5119 42.723C14.5368 42.7428 14.5565 42.7682 14.5693 42.7972C14.5809 42.8167 14.5879 42.8385 14.5899 42.861C14.592 42.8836 14.5889 42.9063 14.5811 42.9275C14.5531 42.9824 14.5051 42.9525 14.464 42.9432C14.4377 42.9362 14.411 42.9312 14.3841 42.928C14.1905 42.9133 14.0994 42.9854 14.0778 43.1823C14.0666 43.2897 14.071 43.3984 14.07 43.5062C14.07 43.7022 14.07 43.9022 14.0651 44.1001C14.0651 44.1702 14.0097 44.2025 13.9294 44.1815C13.8936 44.174 13.8616 44.1542 13.8389 44.1256C13.8163 44.0969 13.8044 44.0612 13.8054 44.0247C13.801 43.8806 13.8054 43.7365 13.8054 43.5925H13.8044Z" fill="#747373"/>
<path d="M24.9519 11.7028C24.9308 9.82216 26.5267 8.33746 28.3084 8.34089C30.0322 8.34432 31.6364 9.73396 31.6325 11.6979C31.6286 13.6437 30.0248 15.0431 28.2917 15.0431C26.4787 15.0431 24.9318 13.5481 24.9519 11.7028Z" fill="#FFFEFE"/>
<path d="M15.9412 36.1204C15.6584 36.1204 15.4061 36.1204 15.1537 36.1204C15.0185 36.1204 15.0033 36.0984 15.016 35.9567C15.0366 35.723 15.065 35.4903 15.1596 35.2707C15.3556 34.817 15.6766 34.4867 16.1641 34.3623C16.5685 34.2539 16.998 34.2885 17.3798 34.4603C17.8076 34.6504 17.9742 35.0194 17.9678 35.4403C17.971 35.545 17.9416 35.6482 17.8835 35.7355C17.8255 35.8227 17.7418 35.8898 17.6439 35.9273C17.4686 35.9973 17.2847 36.0433 17.0971 36.0641C16.7031 36.1219 16.3067 36.1165 15.9412 36.1204Z" fill="#FCFCFC"/>
<path d="M34.8239 43.5712C34.8239 43.2772 34.8112 43.2885 35.1017 43.2929C35.2094 43.2934 35.3168 43.3032 35.4227 43.3223C35.5731 43.3512 35.6378 43.4326 35.65 43.5805C35.6647 43.7599 35.6055 43.8711 35.4594 43.9275C35.3054 43.9797 35.1399 43.9884 34.9812 43.9525C34.8832 43.9343 34.8376 43.8711 34.8259 43.7599C34.8249 43.7419 34.8249 43.7239 34.8259 43.706C34.8234 43.6589 34.8239 43.6163 34.8239 43.5712Z" fill="#F7F8F8"/>
<path d="M35.1269 43.0794C34.7981 43.0715 34.8211 43.0946 34.8211 42.7663C34.8211 42.4953 34.8378 42.4786 35.1053 42.4723C35.2214 42.4626 35.3383 42.4775 35.4483 42.5159C35.5669 42.5649 35.6188 42.6526 35.6139 42.7942C35.6085 42.928 35.5424 43.0245 35.4179 43.0505C35.3215 43.0654 35.2244 43.0751 35.1269 43.0794Z" fill="#F7F8F8"/>
<path d="M15.6562 43.1965C15.6524 43.0882 15.669 42.9802 15.7052 42.878C15.7865 42.6085 15.9879 42.464 16.2687 42.4664C16.5661 42.4693 16.7645 42.6217 16.839 42.9074C16.8978 43.1157 16.8978 43.3361 16.839 43.5444C16.7601 43.8149 16.5573 43.9722 16.2878 43.9737C15.9992 43.9737 15.7855 43.8193 15.7086 43.5424C15.6711 43.4311 15.6533 43.314 15.6562 43.1965Z" fill="#F7F8F8"/>
<path d="M19.7285 43.3293C19.6011 43.3293 19.5379 43.3317 19.4752 43.3293C19.3821 43.3254 19.3542 43.2803 19.3797 43.1862C19.4561 42.9035 19.7163 42.8359 19.9324 42.9084C19.98 42.9239 20.0219 42.9532 20.0527 42.9927C20.0835 43.0321 20.1018 43.0799 20.1053 43.1299C20.1176 43.2239 20.0789 43.295 19.9863 43.3092C19.8804 43.3249 19.7717 43.3263 19.7285 43.3293Z" fill="#F7F8F8"/>
<path d="M31.5521 43.3161C31.5595 42.9922 31.7971 42.8099 32.0867 42.9005C32.1254 42.9124 32.1612 42.9321 32.1917 42.9587C32.2223 42.9852 32.2469 43.0178 32.2641 43.0544C32.3278 43.1838 32.2788 43.2955 32.1387 43.3131C31.9441 43.3396 31.7469 43.3406 31.5521 43.3161Z" fill="#F7F8F8"/>
<path d="M36.9304 43.4826C36.9573 43.4826 36.9843 43.4826 37.0107 43.4826C37.1004 43.4875 37.1244 43.51 37.1293 43.5909C37.1293 43.6178 37.1293 43.6448 37.1293 43.6713C37.1293 43.7947 37.1009 43.9055 36.9657 43.9486C36.8187 43.9947 36.6815 43.9849 36.5634 43.88C36.5413 43.8578 36.5243 43.8311 36.5137 43.8016C36.5032 43.7721 36.4992 43.7406 36.5022 43.7094C36.5052 43.6783 36.5151 43.6481 36.5311 43.6212C36.5471 43.5943 36.5688 43.5712 36.5947 43.5537C36.6761 43.4993 36.7535 43.4826 36.9304 43.4826Z" fill="#F7F8F8"/>
<path d="M11.5269 43.442C11.5299 43.5277 11.518 43.6132 11.4916 43.6948C11.4402 43.8418 11.3446 43.9437 11.1859 43.9638C11.1144 43.9757 11.0411 43.9684 10.9734 43.9425C10.9057 43.9167 10.8461 43.8733 10.8007 43.8168C10.6434 43.6267 10.6297 43.2587 10.7704 43.0544C10.9311 42.8197 11.3094 42.8407 11.4505 43.0936C11.5084 43.2001 11.5349 43.3209 11.5269 43.442Z" fill="#F7F8F8"/>
<path d="M28.1664 43.4498C28.168 43.5352 28.1542 43.6202 28.1257 43.7007C28.0105 44.0413 27.6151 44.0339 27.4323 43.8105C27.2765 43.6194 27.2667 43.2509 27.4108 43.0476C27.5691 42.8241 27.9282 42.8393 28.0762 43.075C28.1404 43.1892 28.1716 43.319 28.1664 43.4498Z" fill="#F7F8F8"/>
</svg>
