<svg width="14" height="15" viewBox="0 0 14 15" fill="none" xmlns="http://www.w3.org/2000/svg">
<path d="M3.1505 3.41375C4.14292 2.535 5.44813 2.00154 6.87794 2.00154C9.98452 2.00154 12.5029 4.51994 12.5029 7.62651C12.5029 8.82183 12.1301 9.93001 11.4944 10.8412L9.97169 7.62651H11.3779C11.3779 5.14126 9.36323 3.12654 6.87794 3.12654C5.61551 3.12654 4.47451 3.64638 3.6573 4.48368L3.1505 3.41375ZM10.6053 11.8393C9.61293 12.7181 8.30776 13.2515 6.87794 13.2515C3.77133 13.2515 1.25293 10.7331 1.25293 7.62651C1.25293 6.43126 1.62575 5.32305 2.26144 4.41186L3.78418 7.62651H2.37793C2.37793 10.1118 4.39265 12.1265 6.87794 12.1265C8.14036 12.1265 9.28133 11.6067 10.0985 10.7694L10.6053 11.8393ZM7.67343 9.21754L6.08245 7.62651L4.49144 9.21754L3.69595 8.42206L6.08245 6.03555L7.67343 7.62651L9.2644 6.03555L10.0599 6.83103L7.67343 9.21754Z" fill="#9DA0AE"/>
</svg>
