<svg width="49" height="48" viewBox="0 0 49 48" fill="none" xmlns="http://www.w3.org/2000/svg">
<path d="M27.342 27.0332C27.3626 26.9955 27.3792 26.9558 27.3974 26.9171L33.9776 12.616C34.0315 12.4993 34.0859 12.3832 34.1388 12.2661C34.1574 12.2259 34.176 12.1906 34.2299 12.1911C34.351 12.1911 34.4725 12.1911 34.6107 12.1911C34.5803 12.2646 34.5617 12.319 34.5362 12.3715C32.1901 17.4864 29.8441 22.6012 27.4983 27.7158C27.4047 27.9196 27.3082 28.123 27.218 28.3283C27.1386 28.5096 27.1504 28.686 27.2817 28.8399C27.3388 28.9117 27.4154 28.9656 27.5023 28.9951C27.5891 29.0246 27.6827 29.0286 27.7717 29.0065C27.9677 28.9668 28.0657 28.831 28.1422 28.6635C30.4834 23.5684 32.8238 18.4744 35.1634 13.3813C35.3868 12.8953 35.6044 12.4077 35.8347 11.9236C35.9611 11.6551 35.8587 11.2773 35.5059 11.2043V11.1719H33.7389C33.7407 11.1769 33.7413 11.1822 33.7408 11.1874C33.7403 11.1927 33.7386 11.1978 33.736 11.2023C33.5439 11.2445 33.442 11.3802 33.3631 11.5453C33.1018 12.1144 32.8404 12.6833 32.5791 13.252C30.721 17.3072 28.861 21.3615 26.999 25.4148C26.9725 25.4731 26.9446 25.5304 26.9127 25.598C26.8392 25.549 26.8383 25.4677 26.7986 25.4104C26.6624 25.2144 26.6957 25.0335 26.7942 24.8194C28.711 20.6502 30.622 16.4785 32.5272 12.3043C32.587 12.173 32.6487 12.0422 32.708 11.9123C32.8481 11.6007 32.6987 11.289 32.3679 11.1994C32.3663 11.19 32.3626 11.1812 32.3571 11.1734H30.625C30.6277 11.1835 30.6263 11.1942 30.6211 11.2033C30.43 11.242 30.3168 11.3684 30.2394 11.5375C29.9408 12.1892 29.6417 12.8405 29.3422 13.4916L25.405 22.0666C25.3869 22.1053 25.3683 22.1435 25.3438 22.1935C25.2644 22.1092 25.2458 22.0014 25.1919 21.9157C25.0909 21.7559 25.1071 21.6133 25.187 21.4404C26.6289 18.3178 28.0662 15.1932 29.499 12.0667C29.5602 11.9334 29.6063 11.8006 29.5725 11.6492C29.5535 11.5514 29.5045 11.462 29.4321 11.3936C29.3598 11.3251 29.2679 11.281 29.1692 11.2675C29.1107 11.2605 29.0517 11.2578 28.9928 11.2592C28.543 11.2592 28.0932 11.2675 27.6438 11.2557C27.3528 11.2479 27.1729 11.3723 27.0558 11.6311C26.2666 13.3572 25.4743 15.0825 24.6788 16.8069C24.3976 17.4194 24.1163 18.0319 23.8351 18.6444C23.8155 18.688 23.7919 18.7297 23.7596 18.7939C23.6812 18.6224 23.6126 18.4685 23.5396 18.3142C23.5126 18.2549 23.5543 18.2113 23.5754 18.1672C23.8076 17.6556 24.041 17.1447 24.2756 16.6345C24.9838 15.088 25.6918 13.5414 26.3997 11.9946C26.4977 11.782 26.4688 11.5708 26.3228 11.413C26.2826 11.366 26.2328 11.3281 26.1768 11.3019C26.1208 11.2757 26.0598 11.2618 25.9979 11.2611C25.4677 11.2611 24.9376 11.2567 24.4074 11.2611C24.1795 11.2611 24.032 11.3959 23.9399 11.5963L23.4107 12.7483C23.0295 13.5793 22.6478 14.4095 22.2656 15.2389C22.2465 15.2811 22.2381 15.332 22.1847 15.3629L21.7883 14.5039C21.3576 13.5661 20.9235 12.6292 20.4991 11.6884C20.4011 11.4674 20.2855 11.2734 20.0537 11.1734H19.8288C19.7881 11.2263 19.72 11.2351 19.6691 11.2714C19.503 11.391 19.4197 11.5473 19.4447 11.7541C19.4595 11.8275 19.4854 11.8982 19.5216 11.9638C20.2076 13.4619 20.8936 14.9595 21.5796 16.4566C21.6025 16.4978 21.615 16.544 21.6159 16.5912C21.6169 16.6383 21.6062 16.685 21.585 16.7271C20.7516 18.5332 19.9209 20.3402 19.0928 22.1479C19.0803 22.1885 19.0579 22.2254 19.0277 22.2552C18.9871 22.2019 18.9553 22.1423 18.9336 22.0788C17.3372 18.6038 15.7409 15.1284 14.1448 11.6526C14.12 11.5935 14.0905 11.5365 14.0566 11.4821C13.9096 11.2626 13.6431 11.1881 13.424 11.3057C13.1692 11.4409 13.0742 11.6977 13.1844 11.9574C13.2035 12.002 13.2246 12.0451 13.2442 12.0892L18.5107 23.5846C18.5315 23.6348 18.5549 23.6839 18.5808 23.7316C18.7802 24.0746 19.2276 24.0834 19.4407 23.7517C19.4787 23.6872 19.5122 23.6203 19.5412 23.5513L22.1063 17.9829C22.1261 17.9252 22.1552 17.871 22.1926 17.8227C22.2675 17.93 22.3009 18.0555 22.3646 18.1657C22.4165 18.2549 22.4043 18.3318 22.3621 18.4215C22.1397 18.8963 21.9211 19.3736 21.7045 19.8498C20.9205 21.556 20.1365 23.2622 19.3525 24.9684C19.3186 25.0354 19.3006 25.1093 19.3002 25.1844C19.2998 25.2595 19.3169 25.3337 19.3501 25.401C19.3917 25.4883 19.4314 25.576 19.4711 25.6637C19.6803 26.1267 19.8906 26.5893 20.0973 27.0533C20.1669 27.2091 20.2718 27.3214 20.4403 27.3645C20.7113 27.4336 20.9357 27.3267 21.0582 27.0641C21.313 26.5158 21.5644 25.9665 21.8172 25.4172C22.4379 24.0661 23.0595 22.7154 23.6822 21.3649C23.7023 21.3213 23.7091 21.2669 23.7674 21.2385C23.8199 21.3527 23.862 21.4634 23.9193 21.5653C23.9767 21.6672 23.9654 21.7481 23.9193 21.8495C22.9344 23.9915 21.9508 26.1347 20.9686 28.2793C20.9441 28.3327 20.9171 28.3856 20.898 28.441C20.8739 28.5053 20.8639 28.5741 20.8687 28.6426C20.8735 28.7111 20.8929 28.7778 20.9256 28.8382C20.9584 28.8986 21.0037 28.9512 21.0585 28.9926C21.1133 29.034 21.1764 29.0631 21.2434 29.078C21.4811 29.1393 21.7031 29.029 21.8167 28.784C22.0781 28.2205 22.3371 27.6567 22.5939 27.0925C23.2106 25.7512 23.8277 24.4101 24.4451 23.0691C24.4676 23.0201 24.4745 22.9569 24.5402 22.928C24.5789 23.0108 24.6151 23.0882 24.6509 23.1657C24.7249 23.3259 24.794 23.4891 24.8743 23.6459C24.9137 23.7289 24.9755 23.7992 25.0529 23.8488C25.1303 23.8983 25.22 23.9252 25.3119 23.9261C25.5133 23.9335 25.6549 23.8281 25.7578 23.6611C25.7866 23.6097 25.8126 23.5569 25.8357 23.5028L30.6544 13.0339C30.7684 12.786 30.8827 12.5382 30.9974 12.2906C31.0199 12.2416 31.0351 12.1882 31.1057 12.1926C31.2223 12.198 31.3399 12.1823 31.459 12.2029C31.4639 12.2877 31.4149 12.3499 31.385 12.4151C29.8608 15.7412 28.3355 19.0667 26.8094 22.3915C26.4255 23.2277 26.0415 24.0638 25.6574 24.8998C25.6256 24.9589 25.6074 25.0244 25.6042 25.0915C25.601 25.1585 25.6128 25.2255 25.6387 25.2874C25.9001 25.8685 26.1624 26.4485 26.4257 27.0274C26.5154 27.2234 26.679 27.3091 26.8907 27.3106C26.9848 27.3136 27.0777 27.2889 27.1579 27.2396C27.2382 27.1903 27.3021 27.1186 27.342 27.0332ZM22.7948 16.4796C22.999 16.0327 23.2044 15.586 23.4112 15.1395C23.8321 14.2266 24.255 13.3147 24.6705 12.3994C24.7195 12.2886 24.7803 12.2445 24.8984 12.2583C24.9933 12.2633 25.0885 12.2633 25.1835 12.2583L22.9717 17.0799C22.8913 16.9059 22.8281 16.7663 22.7629 16.6281C22.736 16.5703 22.7757 16.5262 22.7967 16.4796H22.7948ZM23.151 20.1291C22.857 20.771 22.563 21.4123 22.269 22.0529C21.746 23.1943 21.2227 24.3366 20.6991 25.4799C20.6706 25.5422 20.6412 25.6034 20.6035 25.6843C20.5929 25.6731 20.583 25.6611 20.5741 25.6485C20.506 25.4976 20.3977 25.3511 20.382 25.1948C20.3673 25.0478 20.4884 24.9101 20.5525 24.7699C21.3281 23.0716 22.1049 21.3746 22.883 19.6788C22.903 19.6165 22.9365 19.5593 22.981 19.5112C23.0545 19.672 23.128 19.8253 23.1946 19.9797C23.2181 20.0365 23.177 20.0821 23.153 20.1291H23.151ZM24.5387 20.4937C24.4603 20.3242 24.399 20.1879 24.3339 20.0527C24.2996 19.9816 24.3402 19.9277 24.3662 19.8714C24.6181 19.3216 24.8709 18.7725 25.1247 18.224C26.0146 16.2902 26.9043 14.3561 27.7938 12.4219C27.8094 12.3881 27.8271 12.3548 27.8428 12.32C27.8497 12.3002 27.8632 12.2833 27.881 12.2722C27.8988 12.2611 27.9199 12.2563 27.9408 12.2588C28.0579 12.2588 28.1745 12.2588 28.3156 12.2588L24.5387 20.4937Z" fill="#990D81"/>
<path d="M8.11397 33.3318L6.77235 36.9892L6.34948 38.1113C6.34409 38.1264 5.5008 38.1573 5.5008 38.1573C5.49764 38.1365 5.49272 38.116 5.4861 38.0961C5.0954 37.1298 4.70406 36.1637 4.31206 35.1977C4.30079 35.1698 4.29589 35.1365 4.25914 35.1281C4.2532 35.1373 4.2478 35.1468 4.24297 35.1566L3.02728 38.1573H2.19428C2.20555 38.0946 2.1688 38.0436 2.1492 37.9897C1.92739 37.3919 1.70542 36.7956 1.48329 36.2007C1.18047 35.3841 0.877483 34.5684 0.574336 33.7537L0.570416 33.7429L0.441056 33.3984L0.419006 33.3387C0.773766 33.3387 1.12951 33.3387 1.48427 33.3298C1.57786 33.3298 1.59942 33.3788 1.62539 33.4484C1.86843 34.0877 2.11261 34.7268 2.35794 35.3658C2.45006 35.6039 2.54169 35.8421 2.64606 36.113C2.67595 36.0454 2.69506 36.0052 2.71123 35.966C3.04867 35.1373 3.38628 34.3095 3.72406 33.4827C3.7956 33.3083 3.75787 33.3357 3.95387 33.3323C4.19887 33.3323 4.44387 33.3323 4.6923 33.3323C4.83391 33.3323 4.8344 33.3323 4.8883 33.4656C5.21072 34.2917 5.53297 35.1182 5.85507 35.945C5.87369 35.994 5.89574 36.043 5.92759 36.1174C5.95552 36.0518 5.97659 36.0116 5.99031 35.9704L6.97913 33.4817C7.03842 33.3318 7.03891 33.3318 7.19277 33.3318H8.11397Z" fill="#990D81"/>
<path d="M19.2947 36.3934C19.2947 35.4039 19.2947 34.4143 19.2947 33.4245C19.2947 33.2824 19.2947 33.2814 19.1555 33.2809C18.8615 33.2809 18.5675 33.2882 18.2735 33.277C18.1339 33.2716 18.056 33.3137 17.9844 33.4387C17.5351 34.2227 17.0765 35.0013 16.6198 35.7809C16.5919 35.8299 16.5742 35.8857 16.5139 35.9195C16.4821 35.8651 16.4542 35.8215 16.4287 35.7725C15.9877 34.9827 15.5496 34.1938 15.115 33.4014C15.0984 33.3603 15.0687 33.3258 15.0305 33.3031C14.9924 33.2804 14.9479 33.2709 14.9038 33.276C14.5829 33.2838 14.2619 33.276 13.941 33.2794C13.7352 33.2794 13.7543 33.2549 13.7543 33.4695C13.7543 34.9301 13.7543 36.3906 13.7543 37.8511C13.7543 37.9525 13.7567 38.0545 13.7582 38.1559H14.7872V35.2918C14.8391 35.3026 14.8465 35.3364 14.8607 35.3624C15.3624 36.2571 15.8639 37.152 16.365 38.0471C16.3767 38.0708 16.3869 38.0952 16.3954 38.1201C16.4419 38.1481 16.461 38.1157 16.4811 38.0819L16.8001 37.5429C17.2248 36.8242 17.6503 36.107 18.0766 35.3913C18.0992 35.3346 18.1376 35.2856 18.1873 35.2502V35.3805C18.1873 36.2469 18.1873 37.1125 18.1873 37.9775C18.1873 38.0363 18.1902 38.0951 18.1917 38.1539H19.2844C19.2986 38.0968 19.3025 38.0375 19.2957 37.979C19.2953 37.4518 19.295 36.9232 19.2947 36.3934Z" fill="#990D81"/>
<path d="M12.8586 37.191C11.8688 37.191 10.8789 37.191 9.88872 37.191C9.7378 37.191 9.73682 37.191 9.73633 37.0475C9.73633 36.7907 9.73633 36.5335 9.73633 36.2767C9.73633 36.1375 9.73633 36.1371 9.87598 36.1356H9.95585C10.5821 36.1356 11.2083 36.1356 11.8345 36.1356C11.958 36.1356 11.96 36.1356 11.9604 36.0146C11.9604 35.7847 11.9604 35.5544 11.9604 35.3241C11.9604 35.1737 11.9604 35.1869 11.8169 35.186C11.4425 35.1835 11.0677 35.186 10.6933 35.186C10.415 35.186 10.1367 35.186 9.8603 35.186C9.74074 35.186 9.73878 35.183 9.7378 35.06C9.7378 34.8459 9.7378 34.6318 9.7378 34.4176C9.7378 34.3069 9.74074 34.3045 9.8554 34.3045C10.219 34.3045 10.5831 34.3045 10.9471 34.3045C11.5838 34.3045 12.2208 34.3045 12.8581 34.3045C12.9801 34.3045 12.9816 34.3045 12.9826 34.1805C12.9826 33.9556 12.9826 33.7307 12.9826 33.5062C12.9826 33.3254 13.0041 33.3347 12.8086 33.3347C11.4814 33.3347 10.1543 33.3347 8.82738 33.3347C8.58777 33.3347 8.62011 33.3083 8.62011 33.5356C8.62011 35.0765 8.62011 36.6177 8.62011 38.1593H13.0536C13.0536 37.9025 13.0595 37.6458 13.0595 37.389C13.0566 37.1626 13.0801 37.1935 12.8586 37.191Z" fill="#990D81"/>
<path d="M46.3593 35.1747C47.1002 34.5524 47.8408 33.9296 48.581 33.3063V33.2745C48.14 33.2745 47.7034 33.2823 47.2648 33.2774C47.1482 33.2731 47.0342 33.3132 46.9459 33.3896C46.2739 33.9374 45.5995 34.482 44.9226 35.0233C44.8844 35.0537 44.8555 35.1095 44.7845 35.0929V34.963C44.7845 34.4436 44.7845 33.9244 44.7845 33.4053C44.7845 33.2833 44.782 33.2813 44.6595 33.2808C44.3704 33.2808 44.0815 33.2808 43.7927 33.2808C43.6692 33.2808 43.6692 33.2808 43.6663 33.4038C43.6663 33.4357 43.6663 33.468 43.6663 33.5018V37.6286C43.6663 37.757 43.6697 37.8859 43.6663 38.0138C43.6634 38.0956 43.6898 38.1265 43.7751 38.1255C44.075 38.1211 44.3743 38.1216 44.6742 38.1255C44.7541 38.1255 44.7972 38.1059 44.7869 38.0182C44.7849 37.9855 44.7849 37.9528 44.7869 37.9202C44.7869 37.4756 44.7869 37.0313 44.7869 36.5874C44.7869 36.5384 44.7742 36.4801 44.8276 36.4404C45.0079 36.3068 45.1876 36.172 45.3666 36.0361C45.3732 36.0295 45.3813 36.0246 45.3902 36.0218C45.3991 36.0189 45.4085 36.0182 45.4177 36.0197C45.427 36.0212 45.4357 36.0248 45.4432 36.0303C45.4508 36.0358 45.4569 36.043 45.4612 36.0513C45.4808 36.0768 45.5013 36.1003 45.5219 36.1263C46.0416 36.759 46.561 37.3919 47.0801 38.025C47.1026 38.0571 47.1329 38.0829 47.1682 38.1C47.2034 38.1172 47.2424 38.1251 47.2815 38.123C47.6564 38.1176 48.0312 38.123 48.4056 38.1196C48.4389 38.1196 48.4805 38.1402 48.5036 38.0971C48.4827 38.0477 48.4516 38.0033 48.4124 37.9667C47.7205 37.1089 47.0282 36.2511 46.3353 35.3932C46.2398 35.2751 46.2162 35.2947 46.3593 35.1747Z" fill="#990D81"/>
<path d="M24.8042 37.5467C24.1623 36.1953 23.5219 34.8435 22.8829 33.4915C22.8232 33.3641 22.7551 33.32 22.6183 33.3288C22.4261 33.3405 22.2333 33.3405 22.0411 33.3288C21.9118 33.3214 21.8451 33.3631 21.7893 33.4851C21.2713 34.617 20.7451 35.745 20.2213 36.8749C20.0253 37.3012 19.8293 37.7295 19.6357 38.1568H20.6956C20.8735 37.7971 21.0528 37.4389 21.2263 37.0788C21.264 37.0008 21.3164 36.9876 21.3924 36.9881C21.8525 36.9881 22.3131 36.9881 22.7737 36.9881C22.9236 36.9881 23.0736 36.9881 23.2235 36.9881C23.2497 36.9851 23.2762 36.9907 23.299 37.0042C23.3217 37.0176 23.3394 37.0381 23.3494 37.0626C23.5219 37.4129 23.6978 37.7613 23.8718 38.1112C23.876 38.1271 23.8775 38.1437 23.8762 38.1602H25.0649C25.0884 38.1112 25.0532 38.0793 25.036 38.0426C24.9605 37.877 24.8821 37.7109 24.8042 37.5467ZM21.6481 36.1257L22.3052 34.839C22.5301 35.2863 22.7369 35.6994 22.9525 36.1286L21.6481 36.1257Z" fill="#990D81"/>
<path d="M31.3913 35.6866C31.3394 35.6518 31.2752 35.6327 31.236 35.5813C31.2399 35.5724 31.2409 35.567 31.2443 35.5641C31.2654 35.5474 31.2865 35.5313 31.308 35.5151C31.5805 35.3191 31.7412 35.0574 31.7637 34.7213C31.8127 34.026 31.4697 33.5105 30.7989 33.3459C30.59 33.2988 30.3761 33.2769 30.1619 33.2807C29.1983 33.2807 28.2346 33.2807 27.2709 33.2807C27.1298 33.2807 27.1279 33.2807 27.1279 33.4194C27.1279 34.9397 27.1279 36.4601 27.1279 37.9808C27.1279 38.1204 27.1279 38.1204 27.2685 38.1219H27.3327C28.2323 38.1219 29.1318 38.1219 30.0311 38.1219C30.2238 38.1231 30.4163 38.1129 30.6078 38.0915C31.3786 38.0028 31.9548 37.479 31.9147 36.6122C31.9112 36.4266 31.8615 36.2448 31.7702 36.0832C31.6788 35.9215 31.5486 35.7853 31.3913 35.6866ZM28.2455 34.3808C28.2455 34.2636 28.2485 34.2597 28.3573 34.2597C28.9296 34.2597 29.5022 34.2605 30.0752 34.2622C30.1824 34.2608 30.2891 34.2758 30.3917 34.3068C30.5755 34.3656 30.6559 34.4876 30.6529 34.6988C30.65 34.8982 30.5647 35.0173 30.3873 35.0721C30.2578 35.1063 30.1239 35.1212 29.9899 35.1162C29.7489 35.1187 29.5083 35.1162 29.2672 35.1162C28.9678 35.1162 28.6679 35.1162 28.368 35.1162C28.248 35.1162 28.2465 35.1133 28.2455 34.9898C28.2442 34.7873 28.2442 34.5843 28.2455 34.3808ZM30.5216 37.0508C30.332 37.1385 30.1267 37.1419 29.9238 37.1488C29.7043 37.1546 29.4828 37.1488 29.2652 37.1488C28.9712 37.1488 28.6772 37.1488 28.3832 37.1488C28.2485 37.1488 28.2465 37.1488 28.246 37.0204C28.246 36.747 28.246 36.474 28.246 36.2011C28.246 36.1247 28.271 36.0992 28.3475 36.0997C28.9355 36.1031 29.5235 36.0997 30.1115 36.1065C30.2404 36.1077 30.368 36.1314 30.4888 36.1766C30.6808 36.2486 30.773 36.3932 30.7828 36.5951C30.7926 36.7969 30.7156 36.9616 30.5216 37.0508Z" fill="#990D81"/>
<path d="M42.8647 33.2788C42.6128 33.2832 42.3614 33.2788 42.1096 33.2788C41.9253 33.2788 41.9386 33.2636 41.9386 33.4542C41.9386 34.3104 41.9386 35.1668 41.9386 36.0233C41.9386 36.0767 41.9567 36.1365 41.9043 36.1997C41.8587 36.1477 41.8215 36.1017 41.7803 36.06C40.9065 35.1695 40.0331 34.279 39.1603 33.3885C39.1279 33.3506 39.0872 33.3206 39.0412 33.3012C38.9953 33.2817 38.9455 33.2732 38.8957 33.2763C38.6869 33.2842 38.4782 33.2763 38.2695 33.2788C38.0735 33.2788 38.0837 33.2577 38.0837 33.4562V37.9362C38.0837 37.9686 38.0837 38.0004 38.0837 38.0342C38.0803 38.093 38.1029 38.1224 38.1661 38.1219C38.4552 38.1219 38.7443 38.1219 39.0334 38.1219C39.0931 38.1219 39.124 38.1019 39.122 38.0396C39.122 37.9965 39.122 37.9539 39.122 37.9108C39.122 37.0493 39.122 36.1876 39.122 35.3255C39.1146 35.2676 39.1188 35.2088 39.1343 35.1525C39.1892 35.1579 39.2098 35.2015 39.2382 35.2285C39.4308 35.4216 39.6219 35.6166 39.8139 35.8106C40.5431 36.5495 41.2722 37.2889 42.0013 38.0288C42.0288 38.0606 42.0633 38.0856 42.1021 38.1019C42.1408 38.1182 42.1828 38.1254 42.2247 38.1229C42.4207 38.1166 42.6211 38.1229 42.8191 38.1229C42.9754 38.1229 42.9754 38.1229 42.9769 37.9651V33.4836C42.9769 33.4513 42.9744 33.4189 42.9769 33.3856C42.9847 33.3033 42.9475 33.2773 42.8647 33.2788Z" fill="#990D81"/>
<path d="M36.5986 36.0395C36.1811 35.1605 35.7643 34.2814 35.3481 33.4023C35.3065 33.3137 35.2585 33.274 35.1565 33.2779C34.9375 33.2857 34.7155 33.2867 34.499 33.2779C34.3917 33.2735 34.3392 33.3088 34.2941 33.4068C33.5918 34.931 32.8874 36.4542 32.1808 37.9765C32.1617 38.0182 32.1249 38.0569 32.147 38.1235C32.4635 38.1235 32.784 38.1235 33.103 38.1235C33.1818 38.1235 33.201 38.0701 33.225 38.0186C33.3852 37.6982 33.5489 37.3816 33.7037 37.0563C33.7181 37.0172 33.7453 36.9842 33.7809 36.9625C33.8165 36.9409 33.8584 36.932 33.8997 36.9372C34.4828 36.9416 35.0659 36.9426 35.649 36.9372C35.7607 36.9372 35.8195 36.9686 35.868 37.0725C36.018 37.3914 36.1811 37.7045 36.3394 38.0196C36.3654 38.072 36.383 38.1245 36.4614 38.124C36.825 38.1206 37.1886 38.124 37.5644 38.124C37.5607 38.0689 37.5439 38.0155 37.5154 37.9682C37.2093 37.3243 36.9037 36.6814 36.5986 36.0395ZM34.1667 36.0885C34.179 35.9807 34.6567 35.0238 34.8037 34.8145L35.4442 36.0885H34.1667Z" fill="#990D81"/>
</svg>
