<svg width="1440" height="2688" viewBox="0 0 1440 2688" fill="none" xmlns="http://www.w3.org/2000/svg">
<path d="M-492 807.026C-492 807.026 -371.803 1522.9 448.364 1747.39C1268.53 1971.87 1388.73 2687.75 1388.73 2687.75M-479.627 792.885C-479.627 792.885 -359.43 1508.76 460.737 1733.25C1280.9 1957.73 1401.1 2673.61 1401.1 2673.61M-467.254 778.744C-467.254 778.744 -347.057 1494.62 473.11 1719.11C1293.28 1943.59 1413.47 2659.47 1413.47 2659.47M-454.88 764.604C-454.88 764.604 -334.684 1480.48 485.483 1704.97C1305.65 1929.45 1425.85 2645.33 1425.85 2645.33M-442.507 750.463C-442.507 750.463 -322.31 1466.34 497.856 1690.83C1318.02 1915.31 1438.22 2631.19 1438.22 2631.19M-430.134 736.322C-430.134 736.322 -309.937 1452.2 510.23 1676.69C1330.4 1901.17 1450.59 2617.05 1450.59 2617.05M-417.761 722.181C-417.761 722.181 -297.564 1438.06 522.603 1662.54C1342.77 1887.03 1462.97 2602.91 1462.97 2602.91M-405.388 708.04C-405.388 708.04 -285.191 1423.92 534.976 1648.4C1355.14 1872.89 1475.34 2588.77 1475.34 2588.77M-393.014 693.899C-393.014 693.899 -272.818 1409.78 547.349 1634.26C1367.52 1858.75 1487.71 2574.63 1487.71 2574.63M-380.641 679.759C-380.641 679.759 -260.444 1395.64 559.722 1620.12C1379.89 1844.61 1500.09 2560.49 1500.09 2560.49M-368.268 665.618C-368.268 665.618 -248.071 1381.5 572.096 1605.98C1392.26 1830.47 1512.46 2546.35 1512.46 2546.35M-355.895 651.477C-355.895 651.477 -235.698 1367.36 584.469 1591.84C1404.64 1816.33 1524.83 2532.2 1524.83 2532.2M-343.522 637.336C-343.522 637.336 -223.325 1353.21 596.842 1577.7C1417.01 1802.19 1537.21 2518.06 1537.21 2518.06M-331.148 623.195C-331.148 623.195 -210.951 1339.07 609.215 1563.56C1429.38 1788.04 1549.58 2503.92 1549.58 2503.92M-318.775 609.055C-318.775 609.055 -198.578 1324.93 621.589 1549.42C1441.76 1773.9 1561.95 2489.78 1561.95 2489.78M-306.402 594.914C-306.402 594.914 -186.205 1310.79 633.962 1535.28C1454.13 1759.76 1574.33 2475.64 1574.33 2475.64M-294.029 580.773C-294.029 580.773 -173.832 1296.65 646.335 1521.14C1466.5 1745.62 1586.7 2461.5 1586.7 2461.5M-281.656 566.632C-281.656 566.632 -161.459 1282.51 658.708 1507C1478.87 1731.48 1599.07 2447.36 1599.07 2447.36M-269.282 552.491C-269.282 552.491 -149.085 1268.37 671.081 1492.86C1491.25 1717.34 1611.44 2433.22 1611.44 2433.22M-256.909 538.351C-256.909 538.351 -136.712 1254.23 683.454 1478.71C1503.62 1703.2 1623.82 2419.08 1623.82 2419.08M-244.536 524.21C-244.536 524.21 -124.339 1240.09 695.828 1464.57C1515.99 1689.06 1636.19 2404.94 1636.19 2404.94M-232.163 510.069C-232.163 510.069 -111.966 1225.95 708.201 1450.43C1528.37 1674.92 1648.56 2390.8 1648.56 2390.8M-219.789 495.928C-219.789 495.928 -99.5927 1211.81 720.574 1436.29C1540.74 1660.78 1660.94 2376.66 1660.94 2376.66M-207.416 481.787C-207.416 481.787 -87.2194 1197.67 732.947 1422.15C1553.11 1646.64 1673.31 2362.51 1673.31 2362.51M-195.043 467.647C-195.043 467.647 -74.8462 1183.52 745.321 1408.01C1565.49 1632.5 1685.68 2348.37 1685.68 2348.37M-182.67 453.506C-182.67 453.506 -62.473 1169.38 757.694 1393.87C1577.86 1618.35 1698.06 2334.23 1698.06 2334.23M-170.297 439.365C-170.297 439.365 -50.0999 1155.24 770.067 1379.73C1590.23 1604.21 1710.43 2320.09 1710.43 2320.09M-157.923 425.224C-157.923 425.224 -37.7266 1141.1 782.44 1365.59C1602.61 1590.07 1722.8 2305.95 1722.8 2305.95M-145.55 411.083C-145.55 411.083 -25.3534 1126.96 794.813 1351.45C1614.98 1575.93 1735.18 2291.81 1735.18 2291.81M-133.177 396.943C-133.177 396.943 -12.9802 1112.82 807.187 1337.31C1627.35 1561.79 1747.55 2277.67 1747.55 2277.67M-120.804 382.802C-120.804 382.802 -0.606934 1098.68 819.56 1323.17C1639.73 1547.65 1759.92 2263.53 1759.92 2263.53M-108.431 368.661C-108.431 368.661 11.7662 1084.54 831.933 1309.02C1652.1 1533.51 1772.3 2249.39 1772.3 2249.39M-96.0574 354.52C-96.0574 354.52 24.1394 1070.4 844.306 1294.88C1664.47 1519.37 1784.67 2235.25 1784.67 2235.25M-83.6842 340.379C-83.6842 340.379 36.5127 1056.26 856.679 1280.74C1676.85 1505.23 1797.04 2221.11 1797.04 2221.11M-71.311 326.239C-71.311 326.239 48.8859 1042.12 869.053 1266.6C1689.22 1491.09 1809.42 2206.97 1809.42 2206.97M-58.9378 312.098C-58.9378 312.098 61.259 1027.98 881.426 1252.46C1701.59 1476.95 1821.79 2192.82 1821.79 2192.82M-46.5646 297.957C-46.5646 297.957 73.6322 1013.84 893.799 1238.32C1713.97 1462.81 1834.16 2178.68 1834.16 2178.68M-34.1914 283.816C-34.1914 283.816 86.0055 999.694 906.172 1224.18C1726.34 1448.66 1846.54 2164.54 1846.54 2164.54M-21.8182 269.675C-21.8182 269.675 98.3787 985.554 918.545 1210.04C1738.71 1434.52 1858.91 2150.4 1858.91 2150.4M-9.44498 255.535C-9.44498 255.535 110.752 971.413 930.919 1195.9C1751.09 1420.38 1871.28 2136.26 1871.28 2136.26M2.92822 241.394C2.92822 241.394 123.125 957.272 943.292 1181.76C1763.46 1406.24 1883.66 2122.12 1883.66 2122.12M15.3014 227.253C15.3014 227.253 135.498 943.131 955.665 1167.62C1775.83 1392.1 1896.03 2107.98 1896.03 2107.98M27.6746 213.112C27.6746 213.112 147.871 928.99 968.038 1153.48C1788.2 1377.96 1908.4 2093.84 1908.4 2093.84M40.0479 198.971C40.0479 198.971 160.245 914.85 980.411 1139.33C1800.58 1363.82 1920.78 2079.7 1920.78 2079.7M52.421 184.83C52.421 184.83 172.618 900.709 992.785 1125.19C1812.95 1349.68 1933.15 2065.56 1933.15 2065.56M64.7943 170.69C64.7943 170.69 184.991 886.568 1005.16 1111.05C1825.32 1335.54 1945.52 2051.42 1945.52 2051.42M77.1674 156.549C77.1674 156.549 197.364 872.427 1017.53 1096.91C1837.7 1321.4 1957.89 2037.28 1957.89 2037.28M89.5406 142.408C89.5406 142.408 209.738 858.286 1029.9 1082.77C1850.07 1307.26 1970.27 2023.14 1970.27 2023.14M101.914 128.267C101.914 128.267 222.111 844.146 1042.28 1068.63C1862.44 1293.12 1982.64 2008.99 1982.64 2008.99M114.287 114.126C114.287 114.126 234.484 830.005 1054.65 1054.49C1874.82 1278.98 1995.01 1994.85 1995.01 1994.85M126.66 99.9856C126.66 99.9856 246.857 815.864 1067.02 1040.35C1887.19 1264.83 2007.39 1980.71 2007.39 1980.71M139.033 85.8448C139.033 85.8448 259.23 801.723 1079.4 1026.21C1899.56 1250.69 2019.76 1966.57 2019.76 1966.57M151.407 71.704C151.407 71.704 271.604 787.582 1091.77 1012.07C1911.94 1236.55 2032.13 1952.43 2032.13 1952.43M163.78 57.5632C163.78 57.5632 283.977 773.442 1104.14 997.927C1924.31 1222.41 2044.51 1938.29 2044.51 1938.29M176.153 43.4224C176.153 43.4224 296.35 759.301 1116.52 983.786C1936.68 1208.27 2056.88 1924.15 2056.88 1924.15M188.526 29.2816C188.526 29.2816 308.723 745.16 1128.89 969.645C1949.06 1194.13 2069.25 1910.01 2069.25 1910.01M200.899 15.1408C200.899 15.1408 321.096 731.019 1141.26 955.504C1961.43 1179.99 2081.63 1895.87 2081.63 1895.87M213.273 1C213.273 1 333.47 716.878 1153.64 941.364C1973.8 1165.85 2094 1881.73 2094 1881.73" stroke="white" stroke-opacity="0.05" stroke-width="0.35352"/>
</svg>
