<svg width="39" height="42" viewBox="0 0 39 42" fill="none" xmlns="http://www.w3.org/2000/svg">
<g clip-path="url(#clip0_6603_37689)">
<path fill-rule="evenodd" clip-rule="evenodd" d="M4.02619 11.3327L4.09424 11.0612L4.16228 10.7219L7.15615 0L39.0001 0.0678604L3.82207 28.6371L19.8801 9.29687H7.83658L7.15615 9.36473C5.72726 9.43259 4.43445 10.3148 4.02619 11.3327Z" fill="#808285"/>
<path fill-rule="evenodd" clip-rule="evenodd" d="M37.2991 19.6116C37.2991 19.4759 36.2785 25.6512 34.5774 32.0301L1.30456 32.2337L37.231 3.25726L21.105 22.7332H33.2165L33.897 22.6653C35.3259 22.5975 36.8228 20.6295 37.2991 19.6116Z" fill="#ED1C24"/>
<path fill-rule="evenodd" clip-rule="evenodd" d="M5.72723 41.1235H0.0796967L3.95812 35.8304H1.37251L1.57663 34.3375H6.952L3.07357 39.6306H5.93136L5.72723 41.1235ZM6.81591 41.1235L7.70047 34.3375H11.5789L11.3748 35.8304H9.1974L9.06132 36.984H11.1026L10.9665 38.4769H8.85719L8.7211 39.6306H10.8985L10.6943 41.1235H6.81591ZM11.8511 41.1235L12.7356 34.3375H14.4367L16.4099 37.8662L16.546 38.2734L16.8182 39.0198C16.8222 38.5893 16.8449 38.1591 16.8862 37.7305L17.2945 34.3375H18.9955L18.111 41.1235H16.478L14.5047 37.6626L14.3006 37.1876L14.0284 36.4411C14.0249 36.8943 14.0022 37.3471 13.9604 37.7983L13.5521 41.1235H11.8511ZM19.5399 41.1235L20.4244 34.3375H22.1935L21.309 41.1235H19.5399ZM23.6224 41.1235L24.3029 35.9661H22.874L23.0781 34.3375H27.705L27.5009 35.9661H26.072L25.3915 41.1235H23.6224ZM27.6369 41.1235L28.5215 34.3375H30.2906L29.9504 36.984H32.2638L32.6041 34.3375H34.3732L33.4886 41.1235H31.7195L32.0597 38.3412H29.7463L29.406 41.1235H27.6369Z" fill="#808285"/>
</g>
<defs>
<clipPath id="clip0_6603_37689">
<rect width="38.9204" height="41.1234" fill="white" transform="translate(0.0796432)"/>
</clipPath>
</defs>
</svg>
