<svg width="213" height="45" viewBox="0 0 213 45" fill="none" xmlns="http://www.w3.org/2000/svg">
<g clip-path="url(#clip0_4622_11824)">
<path d="M73.6177 23.1799H68.1019V34.6983H63.9667V3.12598H73.6177C80.1996 3.12598 84.4705 7.48311 84.4705 13.1776C84.4705 18.8721 80.1996 23.1861 73.6177 23.1861M73.6177 6.99625H68.1019V19.3589H73.6177C77.9748 19.3589 80.3784 16.6904 80.3784 13.1776C80.3784 9.66476 77.9748 6.99625 73.6177 6.99625Z" fill="#A51D21"/>
<path d="M87.0461 23.5806C87.0461 17.2205 91.7176 12.019 97.9421 12.019C101.319 12.019 104.302 13.7508 105.769 15.8893V12.4628H109.596V34.6983H105.769V31.2718C104.302 33.4041 101.319 35.1421 97.9421 35.1421C91.7176 35.1421 87.0461 29.9406 87.0461 23.5806ZM106.077 23.5806C106.077 19.0878 102.965 15.5319 98.5152 15.5319C94.0656 15.5319 90.9103 19.0878 90.9103 23.5806C90.9103 28.0733 94.0225 31.6292 98.5152 31.6292C103.008 31.6292 106.077 28.0733 106.077 23.5806Z" fill="#A51D21"/>
<path d="M118.44 43.9921L123.284 33.5399L113.546 12.4629H117.774L125.422 29.3614L133.027 12.4629H137.292L122.71 43.9921H118.44Z" fill="#A51D21"/>
<path d="M142.986 15.976H138.272V12.4632H142.986V7.97045C142.986 3.34215 145.877 1.07422 149.79 1.07422C151.171 1.07422 152.237 1.29608 153.26 1.65353V5.03077C152.545 4.71647 151.392 4.58705 150.505 4.58705C148.015 4.58705 146.813 5.51764 146.813 8.36488V12.457H153.26V15.9698H146.813V34.6926H142.992V15.9698L142.986 15.976ZM156.637 3.79204C156.637 2.32528 157.839 1.08038 159.392 1.08038C160.945 1.08038 162.06 2.32528 162.06 3.79204C162.06 5.34508 160.951 6.50369 159.392 6.50369C157.833 6.50369 156.637 5.34508 156.637 3.79204ZM157.438 12.4632H161.265V34.6988H157.438V12.4632Z" fill="#000001"/>
<path d="M176.648 26.2923L169.887 34.6985H165.13L174.244 23.4451L165.888 12.4629H170.51L176.648 20.5116L182.737 12.4629H187.408L179.002 23.4451L188.123 34.6985H183.409L176.648 26.2923Z" fill="#000001"/>
<path d="M193.676 43.9921L198.526 33.5399L188.789 12.4629H193.011L200.659 29.3614L208.264 12.4629H212.535L197.947 43.9921H193.676Z" fill="#000001"/>
<path d="M14.0167 32.8866H13.8996C12.0878 32.8866 10.621 31.4199 10.621 29.608C10.6087 29.2567 10.6087 27.5496 11.4222 25.7069C12.2233 23.8888 13.5977 22.5022 15.391 21.6949C16.6606 21.1217 18.1458 20.8321 19.8098 20.8321H32.7271C37.565 20.8321 41.651 16.8755 41.5708 12.0315C41.4907 7.32926 37.6451 3.53294 32.9244 3.53294H0.285889C0.285889 1.65943 1.80195 0.137207 3.68162 0.137207H32.6963C39.2783 0.137207 44.8125 5.32017 44.9666 11.8959C45.1268 18.6689 39.6604 24.234 32.9244 24.234H19.8098C18.6265 24.234 17.6097 24.425 16.7838 24.7948C15.7547 25.257 14.9966 26.0274 14.5282 27.075C13.9859 28.3014 14.0167 29.4909 14.0167 29.5032V29.571V32.8805V32.8866Z" fill="#000001"/>
<path d="M30.6007 10.4849H26.071C26.0217 10.4849 25.9785 10.4849 25.9539 10.4849H12.3155C5.6904 10.4849 0.297904 15.865 0.26709 22.4778C0.26709 22.4963 0.26709 22.5148 0.26709 22.5332V22.7428V32.8745C0.26709 39.5304 5.67191 44.9352 12.3155 44.9352H12.5373C18.4044 44.8243 23.3778 40.461 24.2344 34.6556L24.2714 33.0717V32.819C24.2468 31.9008 23.4887 31.1736 22.5705 31.1736H22.552C21.6214 31.1736 20.8757 31.9316 20.8757 32.8622V34.1132C20.2717 38.3471 16.611 41.5333 12.3155 41.5333H12.2415C7.50228 41.4963 3.66282 37.6322 3.66282 32.8868V22.4346C3.71829 17.7139 7.57624 13.8868 12.3093 13.8868H26.0401H26.0463H30.5945V13.8621C31.2786 13.7882 31.8949 13.5047 32.394 13.0856C33.1398 12.4631 33.6143 11.5325 33.6143 10.4849H30.5945H30.6007Z" fill="#A51D21"/>
</g>
<defs>
<clipPath id="clip0_4622_11824">
<rect width="212.267" height="44.7978" fill="white" transform="translate(0.26709 0.137207)"/>
</clipPath>
</defs>
</svg>
