<svg width="213" height="45" viewBox="0 0 213 45" fill="none" xmlns="http://www.w3.org/2000/svg">
<g clip-path="url(#clip0_4623_15609)">
<path d="M73.6176 23.1804H68.1018V34.6988H63.9666V3.12646H73.6176C80.1995 3.12646 84.4704 7.4836 84.4704 13.1781C84.4704 18.8726 80.1995 23.1866 73.6176 23.1866M73.6176 6.99674H68.1018V19.3594H73.6176C77.9747 19.3594 80.3782 16.6909 80.3782 13.1781C80.3782 9.66525 77.9747 6.99674 73.6176 6.99674Z" fill="#A51D21"/>
<path d="M87.0461 23.5808C87.0461 17.2207 91.7176 12.0193 97.9421 12.0193C101.319 12.0193 104.302 13.751 105.769 15.8896V12.463H109.596V34.6986H105.769V31.272C104.302 33.4044 101.319 35.1423 97.9421 35.1423C91.7176 35.1423 87.0461 29.9409 87.0461 23.5808ZM106.077 23.5808C106.077 19.0881 102.965 15.5321 98.5152 15.5321C94.0656 15.5321 90.9103 19.0881 90.9103 23.5808C90.9103 28.0735 94.0225 31.6295 98.5152 31.6295C103.008 31.6295 106.077 28.0735 106.077 23.5808Z" fill="#A51D21"/>
<path d="M118.439 43.9923L123.283 33.5401L113.546 12.4631H117.774L125.422 29.3617L133.027 12.4631H137.292L122.71 43.9923H118.439Z" fill="#A51D21"/>
<path d="M142.986 15.976H138.272V12.4632H142.986V7.97045C142.986 3.34215 145.877 1.07422 149.79 1.07422C151.171 1.07422 152.237 1.29608 153.26 1.65353V5.03077C152.545 4.71647 151.392 4.58705 150.505 4.58705C148.015 4.58705 146.813 5.51764 146.813 8.36488V12.457H153.26V15.9698H146.813V34.6926H142.992V15.9698L142.986 15.976ZM156.637 3.79204C156.637 2.32528 157.839 1.08038 159.392 1.08038C160.945 1.08038 162.06 2.32528 162.06 3.79204C162.06 5.34508 160.951 6.50369 159.392 6.50369C157.833 6.50369 156.637 5.34508 156.637 3.79204ZM157.438 12.4632H161.265V34.6988H157.438V12.4632Z" fill="white"/>
<path d="M176.648 26.2926L169.887 34.6987H165.13L174.244 23.4453L165.888 12.4631H170.51L176.648 20.5118L182.737 12.4631H187.408L179.002 23.4453L188.123 34.6987H183.409L176.648 26.2926Z" fill="white"/>
<path d="M193.676 43.9923L198.526 33.5401L188.789 12.4631H193.011L200.659 29.3617L208.264 12.4631H212.535L197.947 43.9923H193.676Z" fill="white"/>
<path d="M14.0167 32.8869H13.8996C12.0878 32.8869 10.621 31.4201 10.621 29.6082C10.6087 29.2569 10.6087 27.5498 11.4222 25.7071C12.2233 23.8891 13.5977 22.5024 15.391 21.6951C16.6606 21.122 18.1458 20.8323 19.8098 20.8323H32.7271C37.565 20.8323 41.651 16.8758 41.5708 12.0318C41.4907 7.3295 37.6451 3.53318 32.9244 3.53318H0.285889C0.285889 1.65968 1.80195 0.137451 3.68162 0.137451H32.6963C39.2783 0.137451 44.8125 5.32041 44.9666 11.8962C45.1268 18.6692 39.6604 24.2342 32.9244 24.2342H19.8098C18.6265 24.2342 17.6097 24.4253 16.7838 24.795C15.7547 25.2572 14.9966 26.0276 14.5282 27.0753C13.9859 28.3017 14.0167 29.4911 14.0167 29.5035V29.5712V32.8807V32.8869Z" fill="white"/>
<path d="M30.6007 10.4849H26.071C26.0217 10.4849 25.9785 10.4849 25.9539 10.4849H12.3155C5.6904 10.4849 0.297904 15.865 0.26709 22.4778C0.26709 22.4963 0.26709 22.5148 0.26709 22.5332V22.7428V32.8745C0.26709 39.5304 5.67191 44.9352 12.3155 44.9352H12.5373C18.4044 44.8243 23.3778 40.461 24.2344 34.6556L24.2714 33.0717V32.819C24.2468 31.9008 23.4887 31.1736 22.5705 31.1736H22.552C21.6214 31.1736 20.8757 31.9316 20.8757 32.8622V34.1132C20.2717 38.3471 16.611 41.5333 12.3155 41.5333H12.2415C7.50228 41.4963 3.66282 37.6322 3.66282 32.8868V22.4346C3.71829 17.7139 7.57624 13.8868 12.3093 13.8868H26.0401H26.0463H30.5945V13.8621C31.2786 13.7882 31.8949 13.5047 32.394 13.0856C33.1398 12.4631 33.6143 11.5325 33.6143 10.4849H30.5945H30.6007Z" fill="#A51D21"/>
</g>
<defs>
<clipPath id="clip0_4623_15609">
<rect width="212.267" height="44.7978" fill="white" transform="translate(0.26709 0.137451)"/>
</clipPath>
</defs>
</svg>
