<svg width="12" height="12" viewBox="0 0 12 12" fill="none" xmlns="http://www.w3.org/2000/svg">
<path d="M6.00015 1.5C8.6962 1.5 10.9392 3.43988 11.4094 6C10.9392 8.5601 8.6962 10.5 6.00015 10.5C3.30406 10.5 1.06108 8.5601 0.59082 6C1.06108 3.43988 3.30406 1.5 6.00015 1.5ZM6.00015 9.5C8.11795 9.5 9.93015 8.026 10.3889 6C9.93015 3.97401 8.11795 2.5 6.00015 2.5C3.8823 2.5 2.07011 3.97401 1.61139 6C2.07011 8.026 3.8823 9.5 6.00015 9.5ZM6.00015 8.25C4.75749 8.25 3.75013 7.24265 3.75013 6C3.75013 4.75736 4.75749 3.75 6.00015 3.75C7.24275 3.75 8.25015 4.75736 8.25015 6C8.25015 7.24265 7.24275 8.25 6.00015 8.25ZM6.00015 7.25C6.6905 7.25 7.25015 6.69035 7.25015 6C7.25015 5.30965 6.6905 4.75 6.00015 4.75C5.3098 4.75 4.75013 5.30965 4.75013 6C4.75013 6.69035 5.3098 7.25 6.00015 7.25Z" fill="#D8DAE5"/>
</svg>
